<?xml version="1.0" encoding="utf-8"?><svg viewBox="0 0 635 635" xmlns="http://www.w3.org/2000/svg" xmlns:xlink="http://www.w3.org/1999/xlink"><style>:root>svg{display:none}:root>svg:target{display:block}</style><svg fill="none" viewBox="0 0 12 20" id="arrow-icon" xmlns="http://www.w3.org/2000/svg"><path d="M1.462 1.538L9.923 10l-8.461 8.462" stroke="#fff" stroke-width="2" stroke-linecap="square"/></svg><svg fill="none" viewBox="0 0 635 635" id="circle-icon" xmlns="http://www.w3.org/2000/svg"><path d="M459.78 600.3l-.392-.818 1.497-1.025-4.179-8.351-.333 2.763-1.905 8.249.184.456 1.559-.498.392.818-4.597 2.333-.392-.818 1.256-.886-5.147-10.444-1.464.524-.392-.818 4.692-2.308.392.818-1.351.861 4.249 8.472.282-2.573 1.956-8.439-.348-.603-1.68.569-.392-.818 4.692-2.308.392.818-1.351.86 5.147 10.445 1.439-.43.392.818-4.598 2.333zm-11.375 5.202c-.508.374-.869.582-1.231.791-.361.209-.723.417-1.059.531-1.395.645-2.593.935-3.569.775-.976-.159-1.66-.648-2.096-1.682-.366-.913-.448-1.749-.123-2.579.324-.83.908-1.488 1.656-2.001-1.033.436-1.965.492-2.82.263-.83-.324-1.394-.883-1.786-1.701-.575-1.274-.605-2.301-.135-3.295.47-.995 1.511-1.837 3.147-2.62.697-.323 1.369-.55 1.895-.613a6.778 6.778 0 011.388-.239c.311-.019.527-.063.622-.037l.997 3.119-.818.392-1.493-2.03c-.691-.083-1.458.119-2.491.555-.793.297-1.231.791-1.409 1.456-.178.665-.072 1.407.295 2.32.322.697.791 1.23 1.43 1.503.64.274 1.477.192 2.51-.244l1.155-.505.461.938-1.033.436c-.457.183-.844.487-1.256.886a3.93 3.93 0 00-.667 1.349c-.033.501.005 1.122.257 1.699.297.792.791 1.23 1.361 1.383.57.153 1.217.021 2.01-.276.482-.279.938-.462 1.23-.791.292-.329.463-.589.514-.779l-.353-1.724 1.06-.531 1.34 2.6c-.12.069-.482.278-.989.651zm-15.224 5.496l1.509-.309.366.913-2.377.891c-.362.209-.913.367-1.49.619-.577.253-.939.462-1.18.601-1.585.594-2.853.763-3.708.534-.855-.229-1.514-.813-1.855-1.821-.297-.792-.378-1.629-.079-2.364.204-.76.787-1.419 1.51-1.836-1.128.411-2.085.562-2.915.237-.83-.324-1.489-.908-1.83-1.916-.505-1.154-.415-2.25.176-3.314.59-1.064 1.751-1.975 3.672-2.683a6.635 6.635 0 011.224-.385c.888-.272 1.465-.524 1.68-.568l2.283-.917.271.888-1.42.74 4.163 10.69zm-7.904-9.655c-1.154.505-1.902 1.018-2.296 1.727-.394.709-.287 1.451-.016 2.339.367.913.835 1.446 1.475 1.719.64.273 1.476.192 2.51-.244 1.154-.506 1.921-.708 2.283-.916l-1.965-5.212c-.406-.007-.983.246-1.991.587zm3.263 6.069l-.913.366c-.792.297-1.325.765-1.599 1.405-.273.64-.261 1.356.131 2.174.297.793.765 1.326 1.31 1.573.545.248 1.381.167 2.415-.269.456-.183.818-.392 1.274-.575l.362-.209-1.851-4.876c-.241.139-.577.253-1.129.411zm-10.197 10.305l-1.921.708-8.41-10.809-1.172.195-.272-.888 4.705-1.591.271.887-1.395.645 1.702 2.391 5.161-1.774-.047-2.865-1.604.283-.272-.887 4.248-1.409.272.888-1.059.531-.207 13.695zm-1.987-2.467l.955 1.376-.137-1.768-.157-6.256-4.489 1.548 3.828 5.1zm-12.629-6.848c1.141.306 2.015.846 2.787 1.766.772.919 1.398 2.004 1.732 3.418.36 1.318.434 2.561.198 3.822a5.47 5.47 0 01-1.626 3.027c-.825.797-1.814 1.449-3.038 1.834-.887.272-2.06.467-3.397.516l-.621.037-.757-3.258 1.224-.385 1.157 2.143c.19.051.57.153.976.16.405.006.957-.151 1.603-.284a3.477 3.477 0 001.859-1.233c.463-.589.787-1.419.826-2.325.04-.906-.061-2.054-.376-3.157-.316-1.103-.752-2.136-1.359-2.91-.608-.774-1.241-1.453-1.975-1.752-.735-.299-1.616-.433-2.504-.161a4.477 4.477 0 00-1.369.549c-.241.14-.533.469-.704.728l-.225 1.977-1.172.196-.314-2.631c.215-.044.577-.253 1.059-.531a4.672 4.672 0 011.205-.696c.361-.208.913-.366 1.465-.524 1.059-.531 2.206-.631 3.346-.326zm-14.087 14.56c-.375 1.02-.94 1.989-1.619 2.622-.799.702-1.643 1.189-2.6 1.34-1.198.29-2.294.2-3.219-.149-.925-.35-1.774-.985-2.451-1.879a7.484 7.484 0 01-1.447-3.342c-.309-1.509-.358-2.846-.147-4.012.236-1.261.801-2.23 1.531-3.053.729-.823 1.668-1.284 2.771-1.6 1.198-.29 2.32-.295 3.34.08s1.773.985 2.476 1.784a7.474 7.474 0 011.447 3.342l2.922-.643-1.223-5.319-1.578.188-.176-.862 5.008-1.204.176.862-1.464.524 2.673 11.31 1.458-.119.176.862-4.887 1.135-.177-.862 1.465-.524-1.135-4.888-2.948.738c.024 1.432-.092 2.623-.372 3.669zm-2.067.872c.426-1.21.428-2.737-.038-4.798-.448-1.749-1.093-3.144-1.986-3.995-.892-.85-1.912-1.225-3.205-.961-1.199.291-1.903 1.019-2.304 2.134-.4 1.114-.332 2.762.134 4.823.448 1.749.998 3.119 1.89 3.969.867.946 1.913 1.226 3.016.91 1.268-.169 2.067-.872 2.493-2.082zm-19.207-1.683c-.563-.559-1.387-1.289-2.254-2.234-.633-.679-1.006-1.186-1.335-1.478-.329-.292-.589-.464-.779-.515l-.691-.083-.176-.862 2.25-.416c.311-.018.665.179 1.064.591a21.552 21.552 0 011.709 1.986 27.143 27.143 0 002.038 2.278c.468.532.918.755 1.349.667l1.173-.196-.938-5.242-1.648.068-.177-.862 5.027-.894.151.957-1.439.429 2.027 11.442 1.527.002.151.957-4.906.824-.1-1.147 1.465-.524-.913-5.337-1.604.283-2.821 5.967 1.553-.094.151.957-4.501.832-.151-.958 1.44-.429 3.062-6.106c-.501-.032-1.115-.4-1.704-.863zm-8.354-4.174c.994.47 1.722 1.174 2.253 2.233.557.964.942 2.188 1.181 3.576a7.6 7.6 0 01-.328 3.885 6.685 6.685 0 01-1.86 2.761c-.895.677-1.833 1.138-3.101 1.308-1.914.302-3.53-.131-4.656-1.248-1.127-1.117-1.937-2.658-2.162-4.857-.214-1.483-.073-2.77.328-3.885.426-1.21 1.061-2.058 1.886-2.856.894-.677 1.927-1.113 3.1-1.308 1.268-.169 2.364-.079 3.359.391zm.773 10.8c.521-1.185.713-2.661.462-4.765-.207-1.889-.757-3.259-1.599-4.299-.841-1.041-1.861-1.416-3.034-1.221-1.173.195-2.042.777-2.563 1.962-.521 1.184-.738 2.756-.462 4.765.207 1.889.757 3.259 1.624 4.204.772.92 1.767 1.39 3.034 1.221 1.122-.005 2.016-.683 2.538-1.867zm-12.147 2.755l1.502.097.056.931-2.51.245c-.405-.007-.957.151-1.578.188-.647.132-1.052.125-1.268.169-1.673.163-2.959.022-3.738-.492-.779-.514-1.197-1.237-1.322-2.289a3.907 3.907 0 01.516-2.307c.368-.614 1.117-1.126 2.004-1.398-1.147.1-2.123-.06-2.902-.574-.779-.514-1.17-1.332-1.226-2.264-.075-1.242.205-2.287 1.055-3.18.851-.893 2.22-1.442 4.299-1.598.431-.088.837-.082 1.338-.049.931-.056 1.552-.094 1.742-.043l2.51-.244.056.932-1.508.309.974 11.567zm-4.986-11.42c-1.243.074-2.156.441-2.619 1.03-.558.563-.762 1.323-.611 2.281.056.931.378 1.629.898 1.972.519.343 1.374.572 2.426.446 1.243-.074 2.079-.156 2.415-.269l-.456-5.521c-.38-.102-1.001-.065-2.053.061zm1.557 6.732l-1.052.126c-.837.081-1.534.404-1.877.923-.343.519-.547 1.279-.465 2.116.081.837.308 1.509.828 1.852.519.342 1.279.546 2.331.421.431-.089.932-.056 1.389-.239l.431-.089-.438-5.21c-.31.019-.621.038-1.147.1zm-25.923 7.416l-.056-.932 1.603-.283-.353-11.604-1.787-.174-.056-.931 5.228-.127.056.931-1.578.189.328 11.699 5.945-.138-.328-11.7-1.692-.148-.056-.931 5.229-.127.056.931-1.484.214.354 11.605 1.572.217.055.932-13.036.377zm-4.408-13.2c.848.635 1.551 1.434 1.961 2.563.436 1.033.606 2.301.63 3.733-.072 1.407-.308 2.668-.898 3.732-.591 1.064-1.321 1.887-2.285 2.444a6.469 6.469 0 01-3.189.877c-1.933-.009-3.377-.701-4.383-1.888-.981-1.281-1.454-2.936-1.464-5.179-.024-1.433.333-2.763.923-3.827.591-1.064 1.346-1.982 2.31-2.539a6.281 6.281 0 013.284-.851c1.217.02 2.262.3 3.111.935zm-.755 10.798c.686-1.038 1.093-2.559 1.128-4.587-.017-1.838-.326-3.346-.952-4.431-.626-1.084-1.595-1.65-2.812-1.67-1.217-.02-2.181.536-2.866 1.575-.686 1.038-1.119 2.654-1.153 4.682-.009 1.933.23 3.321.951 4.431.627 1.084 1.596 1.649 2.812 1.67 1.173-.195 2.112-.657 2.892-1.67zm-14.752-6.906c.364-1.736.79-2.946 1.424-3.795.318-.424.61-.753.971-.962a2.343 2.343 0 011.198-.29c.596.058 1.002.065 1.287.141l-.002 1.527c-.285-.076-.786-.108-1.381-.166-.191-.051-.406-.007-.647.132s-.387.304-.533.468c-1.098 1.438-1.697 4.435-1.988 8.94l-.097 1.502 2.142.371-.039.906-10.824-.66.039-.906 1.768-.137.768-11.61-1.856-.294.039-.906 5.697.406-.039.907-1.959.086-.768 11.61 3.815.207.148-1.692c.275-2.167.499-4.144.837-5.785zm-11.878 6.697l1.52.407-.134.881-9.505-1.019.073-2.934 1.097.09.327 1.819 4.619.627.59-5.241-3.074-.314-.407 1.521-1.001-.065.429-4.265 1.002.065.067 1.648 3.048.409.571-5.551-5.291-.399-1.207 2.223-1.09-.496.866-3.231 10.291 1.128-.134.881-1.527-.002-1.13 11.818zm-15.436-1.692l3.168.34 1.209-3.75 1.166.21-1.014 4.923-11.545-1.769.513-4.955 1.166.21.052 3.986 3.213.556 1.699-11.666-2.591-.592.134-.881 7.046 1.073-.134.881-2.408-.136-1.674 11.57zm-13.33-9.173l.881.134c.336-.114.748-.513 1.091-1.032.343-.519.927-1.177 1.441-1.956.514-.779.978-1.368 1.295-1.792.317-.425.558-.564.749-.513l2.521.472-.134.881-.741.107c-.216.044-.432.088-.723.417-.267.234-.705.728-1.168 1.317-.609.753-1.073 1.342-1.485 1.741-.438.494-.8.703-1.256.886.804.419 1.368.977 1.69 1.675.322.697.404 1.534.244 2.51-.287 1.451-.947 2.394-1.86 2.761-1.008.341-2.25.416-3.891.078l-1.331-.357-1.33-.356-2.617-.498.134-.881 1.597.123 2.244-11.418-1.685-.553.134-.881 5.424 1.046-.134.881-1.787-.174-.893 4.854 1.59.528zm-2.543 6.448l1.426.382c.975.16 1.692.148 2.294-.2.603-.348.971-.962 1.156-2.033.16-.975.078-1.812-.365-2.44-.442-.628-1.057-.996-2.007-1.251-.976-.16-1.641-.338-1.952-.319l-1.097 5.614.545.247zm-10.581-2.326l3.187.65 1.494-3.674 1.235.331-1.488 4.796-11.291-2.719.919-4.949 1.14.306-.353 3.979 3.136.84 2.675-11.505-2.54-.783.229-.855 6.989 1.669-.23.855-2.452-.352-2.65 11.411zm-12.004-15.642c.798.824 1.234 1.858 1.429 3.031.195 1.172.054 2.459-.328 3.884-.356 1.331-1.067 2.464-1.892 3.262-.851.892-1.91 1.423-3.013 1.739-1.198.29-2.294.2-3.53-.131-.95-.255-1.944-.725-3.199-1.366l-.544-.248 1.151-3.155 1.235.331-.231 2.383c.139.241.399.412.754.609.354.197.899.445 1.469.598.76.203 1.477.191 2.244-.01a3.88 3.88 0 001.934-1.519c.61-.754 1.08-1.748 1.385-2.888.306-1.141.491-2.212.461-3.238-.031-1.027-.302-1.915-.72-2.638-.417-.723-1.101-1.212-2.051-1.466-.666-.178-1.141-.306-1.546-.313a1.912 1.912 0 00-.983.246l-1.219 1.507-1.089-.495 1.163-2.439c.285.076.69.083 1.191.116.501.032.906.039 1.312.045.405.007.976.16 1.546.313 1.235.331 2.299.922 3.071 1.842zm-18.439 7.994l.324-.829 1.831.388 3.085-8.85-2.176 1.658-7.211 4.485-.128.475 1.54.718-.325.83-4.84-1.704.325-.83 1.451.287 3.765-11.01-1.444-.693.324-.83 4.935 1.73-.325.83-1.641-.338-3.109 8.945 2.055-1.588 7.427-4.529.178-.665-1.634-.744.324-.83 4.935 1.73-.324.83-1.546-.313-3.765 11.011 1.349.667-.325.83-5.055-1.661zm-19.093-7.051l1.653-4.65 1.21.426-.898 3.732 3.744 1.614 4.36-10.952-2.983-1.411.324-.829 6.829 2.644-.324.83-1.996-.535-4.215 10.788 1.774.985-.324.829-9.154-3.471zm-2.539-2.31l1.204.832-.325.83-4.643-2.059.325-.83 1.52.408 2.034-4.548-6.018-2.631-2.034 4.548 1.299.857-.325.83-4.548-2.034.325-.83 1.425.382 4.69-10.66-1.324-.762.325-.83 4.548 2.033-.325.83-1.495-.502-2.256 4.997 6.018 2.631 2.256-4.997-1.419-.788.324-.83 4.738 2.085-.324.829-1.4-.477-4.595 10.686zm-17.711-6.885l-1.799-.889 1.708-13.598-.943-.661.419-.804 4.402 2.198-.419.804-1.495-.502-.454 2.832 4.852 2.421 1.993-2.115-1.394-.882.42-.805 3.952 1.976-.419.805-1.115-.401-9.708 9.621zm.244-3.193l-.338 1.641 1.168-1.317 4.372-4.533-4.212-2.147-.99 6.356zm-7.554-10.58c1.072-1.343 2.043-2.305 2.912-2.887a3.766 3.766 0 011.249-.48c.406.007.786.109 1.236.331.544.248.874.54 1.133.711l-.572 1.375c-.259-.172-.614-.369-1.228-.737a.629.629 0 00-.571-.153c-.215.044-.431.088-.672.228-1.541.809-3.419 3.259-5.706 7.23l-.762 1.324 1.792 1.295-.419.804-9.386-5.265.419-.804 1.66.648 5.684-10.19-1.558-1.029.42-.804 5.06 2.782-.419.804-1.73-.769-5.658 10.096 3.287 1.797.813-1.514c.889-1.798 1.943-3.451 3.016-4.793zm-28.049-6.701l.514-.779 1.635.743 6.203-9.847-1.342-1.073.514-.779 4.604 2.965-.514.779-1.539-.718-6.204 9.848 1.342 1.073-.514.778-4.699-2.99zm12.813 1.6c-1.298-.858-2.07-1.778-2.411-2.786-.341-1.008-.156-2.079.555-3.212.736-1.229 1.726-1.88 2.899-2.075 1.172-.195 2.408.136 3.731.898.165.146.355.197.52.343.164.146.329.292.519.342.589.464 1.108.807 1.532 1.124l2.172 1.397-.514.779-1.444-.693-6.204 9.848 1.153 1.022-.515.778-4.534-2.844.514-.779 1.73.769 2.304-3.661-2.007-1.25zm5.343-5.495c-.165-.146-.424-.318-.874-.54-.874-.54-1.729-.769-2.496-.567-.768.202-1.421.74-2.081 1.683-.54.874-.744 1.635-.542 2.402.202.767.74 1.42 1.614 1.96l1.653 1.054 3.359-5.313c-.209-.362-.374-.508-.633-.679zm-24.594-2.109l1.032 1.092-.514.779-4.078-3.028.514-.779 1.419.787 3.028-4.077-5.281-3.86-3.028 4.078 1.031 1.091-.514.779-3.983-3.002.515-.779 1.349.667 6.887-9.359-1.057-.996.514-.779 4.078 3.028-.514.779-1.324-.762-3.199 4.337 5.281 3.86 3.199-4.338-1.222-1.142.515-.779 4.173 3.053-.515.779-1.323-.762-6.983 9.333zm-15.838-10.456l-1.576-1.34 4.585-12.929-.772-.92.584-.658 3.862 3.072-.61.753-1.298-.857-1.023 2.68 4.261 3.484 2.461-1.582-1.127-1.116.584-.659 3.438 2.755-.584.658-1.064-.59-11.721 7.249zm1.005-2.991l-.623 1.565 1.402-1.05 5.214-3.492-3.672-3.022-2.321 5.999zm-12.108-8.031l1.31 1.573-.584.658-3.665-3.426 3.761-7.956 1.182-2.128-2.005 1.398-7.591 4.383-3.596-3.306.584-.658 1.697 1.269 6.818-9.479-1.076-1.307.584-.658 3.9 3.693-.584.658-1.368-.977-5.053 6.692-2.196 2.875 2.41-1.391 8.986-5.028.893.85-3.845 8.647-1.607 3.338 2.69-2.437 6.3-5.646-1.266-1.358.584-.658 3.596 3.306-.584.659-1.273-.953-9.002 7.367z" fill="#f58400"/><path d="M90.751 539.106l-1.43-1.503 6.124-12.212-.652-.989.679-.633 3.424 3.565-.678.633-1.273-.952-1.404 2.578 3.849 3.883 2.6-1.34-.981-1.282.679-.633 3.121 3.179-.679.633-.944-.66-12.435 5.733zm1.385-2.888l-.813 1.514 1.54-.81 5.658-2.864-3.355-3.445-3.03 5.605zm-7.592-5.498l.791 1.231-.679.633-1.64-1.866c-.328-.292-.632-.678-.961-.97-.494-.438-.963-.971-1.361-1.384-1.171-1.332-1.772-2.511-1.802-3.538-.031-1.027.509-1.901 1.48-2.863.774-.607 1.522-1.12 2.359-1.201.862-.177 1.743-.043 2.572.282.83.324 1.584.933 2.286 1.733l.703.799c.234.266.373.507.468.533l3.077-2.741-1.588-2.055.679-.633 4.076 4.555-.68.633-1.151-1.021-8.629 7.873zm2.34-7.216c-.632-.678-1.436-1.098-2.222-1.206-.786-.109-1.82.327-2.79 1.289-.8.703-1.193 1.412-1.182 2.128.012.716.404 1.534 1.107 2.334.234.266.563.558.892.85.165.146.33.292.399.413l4.942-4.38c-.234-.267-.607-.774-1.145-1.428zm-2.04-10.63c.195 1.173.01 2.244-.58 3.308-.496 1.089-1.372 2.077-2.438 3.013-1.065.937-2.22 1.443-3.392 1.638-1.173.195-2.39.174-3.48-.321-1.114-.401-2.058-1.061-2.9-2.102a18.065 18.065 0 01-1.859-2.942l-.253-.577 2.683-2.032.772.92-1.51 1.836c.044.216.063.526.246.983.209.362.487.843.86 1.351a3.538 3.538 0 001.913 1.225c.76.204 1.597.123 2.484-.149.888-.271 1.852-.828 2.772-1.6.92-.772 1.624-1.5 2.164-2.374.539-.874.864-1.704.877-2.515.014-.811-.283-1.604-.795-2.352-.374-.507-.798-.825-1.127-1.117-.329-.292-.615-.368-.925-.349l-1.896.612-.651-.989 2.289-1.322c.165.146.494.438.918.755.424.317.779.514 1.108.806.329.292.633.679 1.127 1.117.962.971 1.493 2.03 1.593 3.177zM54.37 494.319l.748-.512 1.146 1.427 7.82-5.238-2.744-.022-8.434-.834-.387.303.714 1.516-.748.512-2.815-4.319.748-.512 1.032 1.091 9.679-6.472-.74-1.42.749-.513 2.91 4.345-.75.512-1.075-1.307-7.941 5.308 2.554-.028 8.625.885.602-.348-.81-1.541.749-.513 2.91 4.345-.748.512-1.006-1.186-9.679 6.472.645 1.395-.75.512-3.004-4.37zm-6.623-10.636c-.4-.412-.702-.799-1.032-1.091-.33-.292-.442-.628-.677-.895-.765-1.325-1.175-2.454-1.206-3.48-.03-1.027.458-1.711 1.422-2.268.844-.487 1.706-.663 2.56-.434.857.229 1.54.718 2.173 1.397-.556-.964-.802-1.947-.573-2.802.229-.855.718-1.539 1.467-2.052 1.109-.721 2.282-.916 3.302-.541 1.02.376 2.008 1.251 3.007 2.843.348.603.696 1.205.853 1.757.158.551.342 1.008.455 1.344.114.336.158.551.132.646l-2.91 1.36-.487-.844 1.77-1.665c-.012-.716-.31-1.508-.891-2.377-.417-.723-1.006-1.187-1.602-1.244-.595-.058-1.457.118-2.301.605-.628.443-1.066.937-1.34 1.577-.177.665-.001 1.527.58 2.396l.722 1.11-.87.582-.555-.964c-.278-.482-.608-.774-1.032-1.091-.424-.318-.9-.445-1.4-.477-.501-.033-1.052.125-1.655.473-.723.418-1.065.937-1.218 1.507-.058.596.074 1.242.492 1.965.278.482.582.869.936 1.066.33.292.615.368.83.324l1.68-.568.652.989-2.366 1.607c-.19-.051-.424-.317-.918-.755zM40.4 469.288l.524 1.465-.818.391-1.226-2.264c-.21-.361-.487-.843-.861-1.35a11.051 11.051 0 01-.721-1.11c-.81-1.541-1.1-2.74-1.06-3.646.134-.881.623-1.564 1.587-2.121.818-.392 1.585-.594 2.345-.39.786.109 1.47.597 2.008 1.251-.531-1.059-.777-2.042-.548-2.897.229-.855.718-1.539 1.656-2.001 1.085-.626 2.232-.726 3.321-.23 1.115.4 2.147 1.492 3.165 3.394.209.362.392.818.601 1.18.392.818.645 1.395.809 1.541l1.157 2.143-.818.392-.885-1.256-10.236 5.508zm2.998-5.105l-.462-.938c-.417-.723-.886-1.256-1.551-1.434-.665-.179-1.312-.046-2.13.346-.723.417-1.256.885-1.408 1.456-.153.57.049 1.337.51 2.275l.696 1.205.209.362 4.623-2.428-.487-.844zm5.651-3.986c-.626-1.084-1.259-1.763-1.994-2.062-.735-.298-1.476-.192-2.32.295-.843.487-1.376.956-1.459 1.646-.083.691.023 1.433.58 2.397.626 1.084.948 1.782 1.157 2.143l4.89-2.662c-.139-.241-.392-.818-.854-1.757zm-17.15-4.799l-.923-1.877 9.613-9.647-.316-1.103.818-.392 2.169 4.452-.818.392-.86-1.351-2.158 1.968 2.352 4.908 2.872-.453-.5-1.559.819-.392 1.89 3.969-.818.392-.652-.989-13.488 1.682zm2.164-2.374l-1.332 1.171 1.724-.353 6.244-.873-2.1-4.331-4.536 4.386zm5.213-13.372c-.185 1.071-.681 2.16-1.411 2.983s-1.865 1.64-3.14 2.215a7.275 7.275 0 01-3.733.629 6.784 6.784 0 01-3.25-1.176c-.944-.66-1.69-1.675-2.196-2.829-.366-.913-.682-2.017-.946-3.31l-.133-.646 3.17-1.188.506 1.154-2.004 1.398c-.051.19-.058.596.03 1.027.088.431.246.983.499 1.56.322.697.765 1.325 1.475 1.719a4.222 4.222 0 002.4.541 9.247 9.247 0 003.164-.782c1.034-.436 1.998-.992 2.797-1.695.8-.702 1.289-1.386 1.518-2.241.324-.83.243-1.667-.15-2.485-.252-.577-.53-1.059-.765-1.325-.234-.267-.468-.533-.848-.635l-2.028-.034-.316-1.104 2.612-.624c.139.241.348.603.652.99.304.387.633.679.84 1.04.21.362.488.843.74 1.421.507 1.154.702 2.326.517 3.397zM23.085 427.47a6.248 6.248 0 01-2.819-1.264c-.753-.609-1.335-1.478-1.676-2.486-.41-1.129-.536-2.181-.256-3.227.28-1.045.725-1.944 1.524-2.647.825-.797 1.789-1.354 3.038-1.834 1.465-.524 2.732-.694 3.95-.674 1.19.116 2.306.517 3.154 1.151.849.635 1.526 1.53 1.962 2.563.41 1.129.51 2.276.325 3.347-.185 1.071-.725 1.944-1.55 2.742-.824.798-1.814 1.449-3.063 1.929l1.074 2.835 5.09-1.896-.377-1.629.888-.271 1.756 4.85-.888.272-.74-1.421-10.854 4.018.308 1.508-.887.272-1.782-4.755.888-.272.74 1.421 4.755-1.782-1.074-2.834c-1.198.29-2.44.365-3.486.084zm-1.138-1.832c1.235.331 2.813.142 4.76-.66 1.706-.664 2.936-1.454 3.717-2.467.781-1.014.966-2.084.555-3.213-.411-1.129-1.26-1.763-2.4-2.069-1.14-.305-2.744-.022-4.665.685-1.706.664-2.936 1.454-3.691 2.373-.781 1.013-.94 1.988-.53 3.117.29 1.198 1.113 1.928 2.254 2.234zm-.656-19.223a29.866 29.866 0 012-2.52c.584-.658 1.021-1.152 1.339-1.576.292-.33.368-.615.419-.805l-.012-.716.888-.271.726 2.231c.14.241-.083.691-.4 1.115-.344.519-.927 1.178-1.752 1.975-.876.988-1.58 1.716-2.044 2.305-.463.589-.59 1.064-.477 1.4l.316 1.103 5.11-1.585-.258-1.698.888-.272 1.54 4.895-.887.271-.645-1.395-11.108 3.441.214 1.483-.888.271-1.47-4.773.887-.272.645 1.395 5.11-1.585-.5-1.559-6.29-1.991.283 1.603-.887.272-1.357-4.438.887-.272.67 1.3 6.43 2.233c-.113-.336.16-.976.623-1.565zm2.989-8.876a5.54 5.54 0 01-1.904 2.546c-.894.677-2.074 1.278-3.392 1.637-1.414.334-2.656.409-3.822.198-1.166-.21-2.135-.775-2.958-1.505-.823-.73-1.38-1.694-1.67-2.892-.517-1.87-.3-3.442.678-4.809.952-1.273 2.424-2.203 4.51-2.765 1.413-.334 2.75-.383 3.916-.172 1.166.21 2.23.801 3.053 1.531.823.729 1.38 1.693 1.67 2.892.29 1.198.295 2.32-.08 3.339zm-10.655 2.136c1.21.426 2.762.333 4.728-.159 1.845-.422 3.17-1.188 4.02-2.08.85-.893 1.156-2.033.84-3.136-.29-1.198-1.113-1.928-2.323-2.354-1.21-.426-2.857-.359-4.823.133-1.844.423-3.17 1.188-4.02 2.081-.85.892-1.13 1.937-.84 3.136.505 1.154 1.303 1.979 2.418 2.379zM9.43 387.958l.094 1.553-.862.177-.555-2.492c-.088-.431-.246-.982-.404-1.534-.158-.552-.341-1.008-.36-1.319-.352-1.724-.332-2.941-.008-3.771.324-.829 1.073-1.342 2.056-1.588a4.026 4.026 0 012.382.231c.71.394 1.273.952 1.665 1.77-.29-1.198-.251-2.104.168-2.908.42-.805 1.168-1.317 2.125-1.468 1.198-.29 2.364-.08 3.282.676.943.66 1.683 2.08 2.08 4.02.088.431.177.862.17 1.268.15.957.309 1.508.353 1.724l.58 2.396-.862.177-.524-1.465-11.38 2.553zm4.245-4.057l-.246-.983c-.176-.862-.524-1.464-1.138-1.833-.52-.342-1.305-.451-2.193-.18-.862.177-1.465.525-1.712 1.069-.248.545-.357 1.331-.136 2.408.088.432.176.863.36 1.319l.113.336 5.078-1.084c.05-.19-.063-.526-.126-1.052zm6.436-2.35c-.29-1.198-.682-2.016-1.366-2.505-.59-.463-1.375-.572-2.358-.326-.957.151-1.585.594-1.832 1.139-.343.519-.382 1.425-.162 2.503.29 1.198.467 2.06.58 2.396l5.414-1.198c.076-.285-.056-.931-.276-2.009zM2.969 359.235l.957-.151.499 1.559 11.486-1.811-.043-1.743.958-.151.843 5.217-.958.151-.403-1.534-11.486 1.811.95 5.959 11.58-1.786-.042-1.743.957-.151.748 5.191-.957.151-.43-1.439-11.485 1.811-.027 1.623-.957.151-2.19-13.115zm12.631-6.088c-.444.899-1.269 1.697-2.233 2.253-.964.557-2.188.942-3.645 1.061-1.458.118-2.744-.023-3.86-.423-1.114-.401-2.058-1.061-2.735-1.955-.677-.895-1.113-1.928-1.213-3.076-.207-1.888.226-3.504 1.343-4.631 1.117-1.127 2.727-1.815 4.927-2.041 1.457-.119 2.744.022 3.859.423a6.516 6.516 0 012.83 1.981c.677.894 1.113 1.928 1.213 3.075.145 1.363-.04 2.433-.485 3.333zm-10.844.557c1.16.616 2.661.713 4.74.557 1.889-.207 3.233-.661 4.274-1.503 1.014-.747 1.485-1.741 1.315-3.009-.1-1.147-.777-2.041-1.936-2.657-1.16-.617-2.756-.739-4.74-.558-1.889.207-3.328.637-4.273 1.504-1.015.746-1.39 1.766-1.22 3.034.074 1.242.75 2.137 1.84 2.632zm4.937-15.382c1.692.148 3.048.41 3.947.854a3.3 3.3 0 011.013.781c.209.362.322.698.41 1.129.038.621.031 1.027-.045 1.312l-1.484.213c-.018-.31-.011-.716-.023-1.432-.044-.216-.088-.431-.253-.577a4.836 4.836 0 00-.589-.463c-1.514-.813-4.587-1.128-9.15-.823l-1.458.119-.06 2.123-.931.056-.678-10.775.931-.056.353 1.725 11.612-.76.078-1.812.931-.056.406 5.711-.932.056-.302-1.915-11.586.664.198 3.822 1.648-.067c2.339.015 4.272.024 5.964.171zm-8.169-10.948l-.217 1.571-.932.056-.198-9.525 2.941-.333.03 1.027-1.774.543-.031 4.677 5.228-.127-.091-3.08-1.572-.217-.03-1.027 4.297-.071.03 1.027-1.603.283-.03 3.15 5.54-.146-.317-5.279-2.395-.947.306-1.141 3.238.46.184 10.337-.932.056-.188-1.578-11.484.284zm-.216-15.54l.066 3.175 3.878.734-.02 1.216-4.982-.418.268-11.641 5.013-.083-.02 1.217-3.924.578-.15 3.219 11.762.198.213-2.693.906.039-.167 7.085-.906-.039-.15-2.484-11.787-.103zm7.426-14.409l-.039.906c.209.361.538.653 1.152 1.022.52.342 1.229.736 2.128 1.181.9.445 1.514.813 1.963 1.035.45.223.684.489.633.679l-.16 2.503-.907-.039-.107-.741c-.044-.216-.209-.362-.443-.628-.355-.197-.779-.515-1.463-1.003-.804-.42-1.393-.883-1.912-1.226a3.171 3.171 0 01-1.032-1.091c-.324.83-.787 1.419-1.536 1.931-.723.417-1.49.619-2.491.555-1.502-.097-2.497-.567-3.053-1.531-.557-.964-.726-2.232-.604-3.829.007-.406.109-.786.166-1.381.058-.596.186-1.071.167-1.382l.212-2.693.906.039.094 1.553 11.61.768.268-1.761.906.039-.355 5.507-.907-.04-.016-1.837-5.007-.323-.173 1.787zm-6.773-1.713a5.952 5.952 0 00-.192 1.476c-.064 1.001.043 1.743.51 2.276.47.533 1.109.806 2.205.896 1.002.065 1.769-.137 2.397-.58.628-.443.831-1.203.99-2.179.065-1.001.123-1.597.035-2.028l-5.697-.406-.248.545zm.945-10.748l-.245 3.194 3.801 1.019-.115 1.191-4.974-.824 1.268-11.577 5.007.323-.116 1.191-3.917.173-.46 3.238 11.673 1.294.497-2.617.88.135-.787 7.122-.881-.134.04-2.434-11.671-1.294zm14.124-13.938a6.045 6.045 0 01-2.823 1.79c-1.103.315-2.44.365-3.796.103-1.356-.261-2.566-.687-3.484-1.443-.918-.755-1.69-1.675-2.1-2.803-.411-1.129-.511-2.276-.275-3.537.16-.976.465-2.116.986-3.301l.248-.545 3.282.676-.236 1.261-2.459.054c-.146.165-.317.424-.54.874-.197.355-.35.925-.407 1.521a3.914 3.914 0 00.32 2.224c.323.698.886 1.256 1.76 1.796.779.514 1.824.794 3.085 1.03 1.166.211 2.193.181 3.245.055.957-.151 1.87-.517 2.524-1.055.653-.538 1.047-1.248 1.207-2.223.083-.691.115-1.192.096-1.502-.018-.311-.132-.647-.34-1.008l-1.654-1.054.306-1.141 2.515.878c-.076.285.037.621.1 1.147.088.431.056.932.144 1.363.088.431-.039.906-.122 1.597-.331 1.235-.827 2.325-1.582 3.243zM6.796 253.718l.881.134-.173 1.787 9.155 1.944-1.924-1.941-5.354-6.629-.475-.128-.528 1.59-.88-.134 1.039-5.018.88.134-.096 1.502 11.366 2.435.503-1.495.855.229-1.065 5.113-.855-.229.148-1.692-9.346-1.995 1.855 1.821 5.423 6.75.666.178.553-1.685.88.134-1.064 5.113-.88-.134.122-1.597-11.367-2.434-.477 1.4-.88-.135 1.038-5.018zm4.581-19.755l4.802 1.083-.33 1.235-3.765-.397-1.164 3.966 11.455 2.865 1.03-3.085.855.23-1.789 7.057-.855-.229.344-2.046-11.265-2.815-.699 1.85-.855-.229 2.236-9.485zm1.98-2.831l-.667 1.35-.855-.23 1.514-4.89.855.229-.217 1.571 4.796 1.489 1.896-6.316-4.796-1.489-.667 1.349-.855-.229 1.489-4.796.855.229-.192 1.477 11.112 3.385.572-1.375.856.229-1.49 4.796-.854-.229.312-1.546-5.176-1.591-1.896 6.316 5.176 1.591.597-1.47.855.23-1.514 4.891-.855-.23.287-1.451-11.138-3.29zm4.535-18.443l.725-1.945 13.65-.009.592-1.064.829.325-1.653 4.649-.83-.324.313-1.546-2.935-.073-1.78 5.125 2.286 1.733.692-1.444.83.324-1.431 4.2-.83-.324.21-1.166-10.668-8.461zm3.27-.04l-1.692-.148 1.463 1.003 4.996 3.783 1.602-4.46-6.369-.178zm9.625-8.931c1.488.908 2.596 1.714 3.204 2.488.304.387.487.843.6 1.179.089.431-.013.812-.115 1.192a8.571 8.571 0 01-.616 1.159l-1.4-.477c.17-.26.299-.735.547-1.28.05-.19.127-.475.057-.596-.044-.215-.183-.456-.322-.697-1.05-1.402-3.672-3.021-7.917-4.668l-1.374-.572-1.01 1.869-.83-.325 4.011-10.027.83.324-.459 1.711 10.763 4.309.839-1.608.829.324-2.142 5.334-.83-.325.51-1.9-10.763-4.31-1.443 3.484 1.565.623c2.153 1.086 3.978 1.881 5.466 2.789zm3.01-15.796c.667-1.349 1.423-2.267 2.456-2.704 1.034-.436 2.035-.371 3.219.15 1.255.642 2.147 1.492 2.437 2.69.316 1.103.175 2.39-.492 3.739-.051.19-.197.354-.248.545-.146.164-.197.354-.368.614-.37.614-.617 1.159-.864 1.704l-1.017 2.274-.804-.42.502-1.495-10.584-4.975-.857 1.298-.805-.419 2.205-4.807.805.419-.58 1.78 3.883 1.855 1.112-2.248zm.003-12.935l.804.419-.553 1.685 10.489 4.95.908-1.489.805.42-2.351 4.972-.805-.419.554-1.686-10.49-4.949-.907 1.488-.805-.419 2.35-4.972zm6.17 17.645c.147-.165.249-.545.445-.9.445-.899.484-1.805.187-2.598-.297-.793-.955-1.376-1.95-1.847-.9-.444-1.805-.483-2.477-.256-.698.322-1.256.886-1.701 1.785l-.77 1.729 5.708 2.65c.24-.139.413-.399.559-.563zm-1.11-24.744l-.927 1.178-.804-.419 2.508-4.421.805.419-.598 1.47 4.446 2.413 3.176-5.769-4.446-2.414-.927 1.178-.804-.419 2.388-4.352.804.42-.477 1.4 10.19 5.684.927-1.178.805.42-2.414 4.446-.804-.419.597-1.47-4.801-2.611-3.175 5.77 4.8 2.611.978-1.368.805.419-2.535 4.516-.804-.419.572-1.375-10.285-5.71zm8.424-16.994l1.079-1.747 13.363 2.969.755-.918.779.514-2.648 4.18-.78-.515.694-1.444-2.851-.764-2.871 4.63 1.848 2.226 1.048-1.247.778.514-2.33 3.756-.78-.514.497-1.09-8.581-10.55zm3.092.625l-1.616-.433 1.196 1.238 4.12 4.77 2.502-4.015-6.202-1.56zm6.473-13.136l-1.34 1.576-.778-.514 2.908-4.008 8.33 2.741 2.3.922-1.639-1.865-5.347-7.035 2.907-4.008.779.514-.984 1.773 10.336 5.52 1.142-1.222.779.514-3.225 4.433-.778-.514.813-1.514-7.328-4.204-3.192-1.772 1.753 2.201 6.137 8.265-.685 1.039-9.047-2.73-3.56-1.158 2.728 2.361 6.376 5.477 1.193-1.412.779.515-2.787 3.938-.78-.514.788-1.419-8.578-7.9z" fill="#f58400"/><path d="M68.557 120.538l1.244-1.602 12.955 4.49.825-.798.754.609-3.072 3.863-.754-.61.857-1.298-2.68-1.024-3.39 4.287 1.608 2.366 1.117-1.127.754.609-2.755 3.438-.754-.609.59-1.064-7.299-11.53zm3.016.909l-1.565-.622 1.051 1.401 3.492 5.214 2.926-3.698-5.904-2.295zm4.527-8.157l-1.16.911-.753-.609 1.63-1.906c.293-.329.585-.658.782-1.013.438-.494.78-1.013 1.219-1.507 1.167-1.316 2.303-2.133 3.26-2.284.957-.151 1.977.225 2.964 1.1.754.61 1.266 1.358 1.538 2.246.27.887.258 1.698.028 2.554-.23.855-.673 1.755-1.378 2.482-.266.235-.463.589-.73.824-.266.234-.412.398-.437.493l3.152 2.679 1.796-1.76.659.584-3.992 4.634-.66-.584.858-1.298-8.775-7.546zm7.472 1.391c.609-.754.933-1.584.852-2.42-.081-.837-.568-1.68-1.626-2.677-.823-.73-1.557-1.028-2.3-.921-.741.106-1.369.549-2.219 1.442-.292.329-.49.684-.781 1.013-.171.26-.292.329-.317.424l5.058 4.31c.337-.114.749-.513 1.333-1.171zm10.366-3.334c-1.103.315-2.2.225-3.34-.08a9.025 9.025 0 01-3.236-1.988c-.962-.971-1.71-1.986-2.094-3.209-.411-1.129-.39-2.346-.18-3.511.306-1.141.802-2.23 1.747-3.097.704-.728 1.504-1.431 2.734-2.222l.507-.373 2.298 2.449-.85.893-2.103-1.277a3.229 3.229 0 00-.913.367c-.361.208-.774.607-1.186 1.006-.56.563-.857 1.298-.941 1.989-.108.786.094 1.553.46 2.466.392.818 1.069 1.712 1.962 2.563.797.824 1.766 1.39 2.666 1.834.899.445 1.78.579 2.617.498.836-.082 1.559-.499 2.238-1.132.438-.494.755-.918.927-1.178.17-.259.273-.639.254-.95l-.828-1.852.92-.772 1.658 2.176c-.146.165-.343.519-.591 1.064-.222.45-.42.804-.616 1.159-.197.355-.514.779-.952 1.273-1.066.937-2.15 1.563-3.158 1.904zm11.069-29.527l.633.679-1.193 1.412 6.278 6.979-.383-2.751-.383-8.455-.304-.387-1.376.956-.633-.679 3.876-3.443.633.678-.926 1.178 7.753 8.698 1.256-.885.633.678-3.877 3.443-.633-.678 1.143-1.222-6.348-7.1.434 2.561.332 8.645.468.533 1.402-1.05.633.679-3.902 3.538-.633-.679 1.022-1.152-7.753-8.699-1.231.791-.633-.679 3.712-3.589zm9.681-7.999c.317-.424.635-.848.926-1.177.292-.33.559-.564.825-.798 1.187-1.006 2.341-1.512 3.298-1.663.957-.151 1.761.268 2.464 1.068.607.774.904 1.566.77 2.447a4.68 4.68 0 01-1.042 2.369c.894-.677 1.807-1.043 2.688-.909.906.039 1.616.433 2.223 1.207.842 1.04 1.157 2.143.972 3.214-.185 1.071-.991 2.179-2.418 3.324-.533.469-1.136.816-1.618 1.095a7.216 7.216 0 01-1.274.575c-.336.114-.552.158-.577.253l-1.816-2.728.774-.607 1.931 1.536c.647-.132 1.465-.524 2.264-1.227.654-.538 1.022-1.152.985-1.773-.012-.716-.24-1.389-.942-2.188-.443-.628-1.057-.996-1.748-1.079-.691-.084-1.483.213-2.378.89l-1.04.842-.702-.799.799-.703c.387-.304.704-.728.927-1.178.222-.449.349-.924.287-1.451-.063-.526-.341-1.008-.715-1.515-.538-.653-1.057-.996-1.678-.959-.621.037-1.198.29-1.826.733-.413.399-.705.728-.997 1.057a.921.921 0 00-.229.855l.81 1.541-.92.773-1.969-2.158c.241-.139.533-.468.946-.867zm13.187-9.3l-1.421.74-.512-.749 2.03-1.493c.361-.209.773-.608 1.281-.981.412-.399.799-.702 1.04-.842 1.402-1.05 2.556-1.556 3.462-1.517.907.04 1.711.459 2.319 1.233.512.748.714 1.515.7 2.327-.013.811-.407 1.52-.991 2.178.92-.772 1.902-1.018 2.809-.978.906.039 1.685.553 2.197 1.301.747 1.015.967 2.093.757 3.259-.211 1.166-1.232 2.318-2.901 3.602a8.852 8.852 0 01-1.11.722c-.843.487-1.256.885-1.471.929l-2.03 1.494-.512-.749 1.091-1.032-6.738-9.444zm5.403 2.262l.869-.582c.748-.512 1.117-1.126 1.174-1.722.058-.596-.144-1.363-.656-2.111-.513-.749-1.032-1.092-1.628-1.149-.595-.058-1.388.239-2.162.846-.387.304-.748.513-1.04.842l-.267.234 3.057 4.18c-.096-.025.266-.234.653-.538zm4.785 4.949c1.015-.746 1.624-1.5 1.733-2.285.109-.786-.093-1.553-.606-2.302-.607-.774-1.196-1.237-1.792-1.295-.69-.083-1.388.24-2.282.917-1.015.746-1.643 1.189-1.909 1.423l3.264 4.542c.216-.044.723-.418 1.592-1zm2.373-17.596l1.738-1.164 10.935 8.226 1.059-.531.512.749-4.103 2.771-.513-.749 1.186-1.006-2.26-1.828-4.586 3.049.789 2.758 1.421-.74.512.749-3.717 2.467-.512-.749.825-.797-3.286-13.205zm2.666 1.835l-1.343-1.073.569 1.68 1.735 6.067 3.958-2.606-4.919-4.068zm13.907 3.217c-1.122.005-2.142-.37-3.206-.961-.943-.66-1.811-1.606-2.601-2.836-.696-1.205-1.081-2.429-1.181-3.576-.1-1.147.231-2.383.796-3.352.591-1.064 1.416-1.861 2.526-2.582.843-.487 1.877-.923 3.221-1.378l.577-.253 1.549 2.962-1.085.626-1.664-1.77c-.19-.051-.526.062-.957.151-.431.088-.913.366-1.395.644a3.423 3.423 0 00-1.46 1.646c-.299.735-.407 1.521-.257 2.478.151.957.588 1.991 1.239 2.98.652.99 1.329 1.884 2.082 2.493.754.61 1.558 1.029 2.413 1.258.856.229 1.623.027 2.466-.46.603-.347.99-.651 1.161-.911a1.9 1.9 0 00.54-.874l-.277-2.009 1.059-.531.961 2.498c-.241.139-.508.373-.825.797-.292.33-.584.659-.971.963-.292.329-.774.607-1.256.885a5.839 5.839 0 01-3.455 1.112zm9.749-17.759c.09-1.097.37-2.142.91-3.016.54-.874 1.219-1.507 2.183-2.063 1.084-.626 2.162-.847 3.163-.782a4.736 4.736 0 012.844 1.169c.823.73 1.595 1.65 2.317 2.76.765 1.325 1.124 2.644 1.199 3.886.075 1.242-.11 2.313-.676 3.282-.565.969-1.269 1.697-2.233 2.254-1.085.626-2.162.846-3.259.756a5.426 5.426 0 01-2.869-1.074 8.09 8.09 0 01-2.317-2.76l-2.625 1.436 2.593 4.769 1.49-.62.392.818-4.528 2.454-.392-.818 1.256-.886-5.508-10.235-1.465.524-.487-.844 4.408-2.384.487.844-1.256.886 2.384 4.407 2.72-1.41c-.531-1.059-.751-2.137-.731-3.353zm1.764-1.259c-.141 1.286.262 2.82 1.306 4.628.904 1.566 1.816 2.727 2.975 3.343 1.159.616 2.16.681 3.339.08 1.059-.531 1.625-1.5 1.645-2.717.021-1.217-.383-2.751-1.332-4.533-.904-1.566-1.815-2.727-2.879-3.318-1.064-.59-2.161-.68-3.22-.149-1.059.531-1.693 1.379-1.834 2.666zm18.959-3.476c.71.394 1.584.934 2.743 1.55.779.514 1.298.857 1.748 1.079.449.222.639.273.855.229l.742-.107.392.818-2.093.968c-.241.139-.621.037-1.166-.211-.545-.248-1.228-.737-2.172-1.397a25.223 25.223 0 00-2.501-1.689c-.615-.368-1.115-.4-1.451-.287l-1.059.532 2.282 4.787 1.56-.499.391.818-4.667 2.213-.392-.818 1.326-.765-4.931-10.489-1.439.43-.392-.818 4.547-2.143.392.818-1.351.86 2.256 4.883 1.421-.74 1.136-6.52-1.56.499-.392-.818 4.185-1.935.392.818-1.23.791-1.377 6.659c.405.007 1.071.185 1.805.484zm9.207 1.754c-1.071-.185-1.945-.725-2.742-1.55a9.723 9.723 0 01-2.094-3.209c-.55-1.37-.84-2.568-.725-3.759.116-1.192.396-2.237 1.056-3.18.66-.944 1.555-1.62 2.588-2.057 1.826-.733 3.354-.731 4.798-.039 1.444.693 2.59 2.12 3.392 4.067.55 1.369.814 2.663.699 3.854-.116 1.191-.421 2.332-1.081 3.275-.661.944-1.555 1.621-2.589 2.057-1.179.601-2.231.726-3.302.541zm-3.6-10.132c-.236 1.261.072 2.77.78 4.691.758 1.731 1.644 2.987 2.683 3.673 1.013.78 2.109.87 3.263.365 1.129-.411 1.789-1.354 2.025-2.615.236-1.261-.047-2.865-.875-4.717-.759-1.73-1.645-2.986-2.683-3.672-1.039-.686-2.11-.871-3.264-.365-1.059.53-1.693 1.38-1.929 2.64zm10.958-5.926l-1.509.31-.271-.888 2.378-.89c.431-.09.913-.367 1.49-.62s.938-.462 1.249-.48c1.585-.594 2.853-.764 3.708-.535.855.23 1.514.813 1.855 1.822.297.792.378 1.629.079 2.363-.298.735-.787 1.42-1.51 1.837 1.128-.411 2.06-.467 2.915-.238.856.23 1.489.908 1.83 1.916.41 1.129.39 2.346-.175 3.315-.591 1.064-1.847 1.95-3.768 2.657a6.635 6.635 0 01-1.224.385c-.887.272-1.464.524-1.68.569l-2.378.89-.297-.792 1.421-.74-4.113-10.88zm4.616 3.682l1.008-.341c.793-.297 1.325-.765 1.599-1.405.273-.64.261-1.356-.131-2.174-.297-.793-.765-1.325-1.31-1.573-.544-.248-1.381-.167-2.389.174-.457.184-.818.392-1.275.575l-.361.21 1.851 4.875c.12-.07.456-.183 1.008-.341zm3.168 6.044c1.128-.411 1.902-1.018 2.296-1.728.394-.709.382-1.425.041-2.433-.366-.913-.835-1.446-1.38-1.694-.639-.273-1.476-.192-2.51.244-1.223.385-1.921.707-2.257.821l1.965 5.212c.26.171.932-.056 1.845-.422zm19.74-20.073l.272.887-1.421.74 3.346 11.082 1.724-.353.271.888-4.989 1.515-.272-.887 1.396-.645-3.416-11.203-5.756 1.717 3.415 11.203 1.724-.353.272.887-4.99 1.515-.271-.887 1.395-.645-3.346-11.082-1.604.283-.271-.887 12.521-3.775zm7.801 11.563a5.54 5.54 0 01-2.546-1.905c-.677-.894-1.183-2.048-1.517-3.462-.334-1.414-.408-2.656-.172-3.917.21-1.166.775-2.135 1.505-2.958.73-.823 1.694-1.38 2.892-1.67 1.87-.517 3.442-.3 4.809.678 1.273.952 2.203 2.424 2.739 4.605.334 1.413.383 2.75.173 3.916a5.467 5.467 0 01-1.626 3.028 6.785 6.785 0 01-2.892 1.67c-1.319.36-2.346.39-3.365.015zm-2.136-10.657c-.426 1.21-.333 2.763.159 4.729.422 1.844 1.188 3.17 2.08 4.02.893.85 2.033 1.156 3.136.84 1.199-.29 1.903-1.018 2.354-2.323.426-1.21.359-2.857-.133-4.823-.423-1.845-1.188-3.17-2.08-4.02-.893-.85-1.938-1.13-3.137-.84-1.154.505-1.979 1.303-2.379 2.418zm16.062 2.777c.138 1.768-.003 3.054-.378 4.074-.128.475-.445.9-.712 1.134a2.32 2.32 0 01-1.059.53c-.551.159-1.052.126-1.267.17l-.43-1.439c.311-.018.742-.107 1.389-.239.215-.044.431-.088.577-.253.146-.164.292-.329.368-.614.648-1.66.436-4.67-.49-9.196l-.334-1.414-2.199.225-.177-.862 10.561-2.161.177.862-1.68.569 2.337 11.423 1.889-.207.176.862-5.603 1.147-.177-.862 1.896-.613-2.338-11.423-3.664.75.379 1.629c.32 2.225.597 4.234.759 5.908zm9.613-9.648l-1.527-.001-.151-.957 9.382-1.561.763 2.853-1.052.125-.854-1.756-4.544.615.843 5.217 3.112-.592.002-1.527 1.052-.126.692 4.26-1.052.126-.499-1.56-3.087.497.862 5.527 5.172-1.058.567-2.496 1.166.21.041 3.27-10.218 1.642-.177-.862 1.534-.404-2.027-11.442zm15.41-2.389l-3.182.471L275 8.096l-1.268.17-.298-4.97 11.574-1.38.825 4.906-1.148.1-1.104-3.86-3.226.255 1.45 11.695 2.674-.098.056.931-7.055.86-.055-.932 2.37-.485-1.475-11.6zm15.28 5.316l-.932.056c-.266.234-.584.658-.831 1.203a16.54 16.54 0 00-.827 2.325c-.35.925-.528 1.59-.75 2.04-.223.45-.394.71-.61.753l-2.51.245-.056-.932.673-.228c.215-.044.361-.208.558-.563.197-.355.445-.9.743-1.634.325-.83.718-1.54.966-2.084.343-.52.66-.943 1.022-1.152-.881-.134-1.59-.528-2.128-1.182-.538-.653-.835-1.446-.891-2.377-.119-1.458.282-2.573 1.056-3.18.894-.677 2.118-1.063 3.766-1.13.31-.02.836-.082 1.432-.024.621-.037 1.027-.03 1.337-.05L298.319.9l.055.931-1.508.309.905 11.447 1.717.053.056.931-5.52.456-.056-.931 1.819-.328-.393-4.994-1.794.232zm.763-7.027c-.596-.058-1.027.03-1.528-.002-.932.056-1.724.353-2.136.751-.533.469-.737 1.229-.612 2.281.031 1.027.448 1.75.917 2.283.588.463 1.349.667 2.28.611 1.027-.03 1.674-.163 1.984-.181l-.405-5.711-.5-.032zm10.723-.488l-3.226.256-.543 3.928-1.242.075.132-5.057 11.63-.45.394 4.995-1.122.005-.794-3.88-3.27.041.398 11.82 2.623.092.056.932-7.092.239-.056-.932 2.415-.27-.303-11.794zm15.836 11.984a6.56 6.56 0 01-2.177-2.518c-.531-1.06-.7-2.327-.724-3.76.071-1.406.402-2.642.993-3.706s1.416-1.861 2.475-2.392c1.059-.532 2.162-.847 3.474-.801.906.039 2.097.154 3.428.51l.57.154-.296 3.384-1.217-.02-.39-2.346c-.164-.146-.424-.318-.899-.445-.475-.127-.976-.16-1.572-.217a3.414 3.414 0 00-2.111.656c-.628.443-1.117 1.127-1.536 1.931a9.42 9.42 0 00-.65 3.188c-.021 1.216.105 2.269.376 3.156.272.888.759 1.731 1.417 2.315.659.584 1.393.883 2.3.922.716-.012 1.121-.005 1.552-.093.337-.114.673-.228.939-.462l.794-1.824 1.166.21-.497 2.617c-.311.019-.647.132-1.173.195-.431.088-.887.272-1.293.265-.431.088-.932.056-1.553.093-1.312-.046-2.452-.352-3.396-1.012zM336.528.85l-.039.906-1.864.111-.683 9.392 1.708-2.19 5.832-6.18.032-.5-1.641-.338.039-.906 5.101.348-.039.906-1.458.119-.768 11.61 1.546.312-.039.906-5.196-.373.039-.907 1.648-.068.613-9.511-1.561 2.026-5.952 6.248-.084.69 1.762.269-.039.906-5.292-.4.039-.906 1.553-.093.768-11.61-1.451-.286.04-.906 5.386.424zm20.278 1.868l-.392 4.886-1.287-.141-.103-3.797-4.119-.594-1.319 11.767 3.212.556-.134.88-7.312-.839.134-.88 2.028.034 1.243-11.483-1.901-.509.134-.88 9.816 1zm3.148 1.556l-1.4-.477.134-.88 5 .728-.135.88-1.622-.026-.728 4.999 6.45 1.015.728-5-1.495-.502.135-.88 4.999.728-.134.88h-1.527l-1.744 11.449 1.425.382-.134.88-4.999-.728.134-.88 1.527.001.83-5.38-6.45-1.015-.83 5.38 1.615.433-.134.88-5.095-.753.135-.881 1.527.002 1.788-11.235zm18.82 1.988l2.021.44 1.873 13.539 1.115.4-.134.88-4.828-.987.134-.88 1.597.121-.333-2.94-5.303-1.116-1.404 2.578 1.495.502-.134.88-4.353-.86.134-.88 1.217.02 6.903-11.697zm.592 3.112l-.163-1.673-.718 1.539-3.004 5.51 4.638.937-.753-6.313zm10.099 8.308c-.623 1.565-1.36 2.793-2.064 3.521-.413.4-.774.608-1.11.721-.336.114-.742.107-1.217-.02-.57-.153-1.045-.28-1.305-.451l.192-1.477 1.331.357c.19.05.405.006.621-.038.215-.044.361-.208.628-.443 1.237-1.196 2.501-4.015 3.603-8.507l.382-1.425-1.996-.535.255-.95 10.505 2.61-.255.951-1.787-.173-2.815 11.265 1.755.674-.229.855-5.632-1.408.229-.855 1.951.32 2.815-11.265-3.732-.899-.433 1.616a36.356 36.356 0 01-1.692 5.556zm16.071.843c1.4.477 2.439 1.163 3.021 2.032.582.869.682 2.016.256 3.226-.477 1.4-1.233 2.318-2.266 2.754-1.154.506-2.371.485-3.797.103l-.57-.152c-.19-.051-.38-.102-.639-.274-.64-.273-1.306-.451-1.85-.699l-2.446-.757.229-.855 1.547.312 3.384-11.112-1.349-.667.229-.856 5.081 1.566-.229.855-1.856-.294-1.311 4.13 2.566.688zm-3.836 6.713c.19.051.545.248.925.35 1.045.28 1.857.294 2.58-.123.722-.418 1.211-1.102 1.491-2.147.281-1.046.269-1.762-.149-2.485-.348-.602-1.031-1.091-2.051-1.466l-1.806-.484-1.82 6.031c.38.102.64.274.83.324zm16.634-8.478l-.229.855-1.762-.268-3.385 11.112 1.634.743-.229.856-5.271-1.616.229-.856 1.737.364 3.384-11.113-1.634-.743.229-.855 5.297 1.52zm7.689 3.995l-1.324-.762.324-.83 4.72 1.774-.324.83-1.546-.312-1.774 4.72 6.189 2.37 1.774-4.719-1.324-.762.324-.83 4.72 1.774-.325.83-1.451-.287-4.145 10.908 1.349.667-.324.83-4.719-1.774.324-.83 1.521.408 1.97-5.074-6.189-2.372-1.97 5.075 1.418.787-.324.83-4.789-1.894.324-.83 1.521.407 4.05-10.934zm17.992 5.84l1.919.82-1.018 13.681.944.66-.324.83-4.548-2.033.324-.83 1.495.502.384-2.953-5.023-2.16-1.898 2.14 1.419.787-.324.83-4.099-1.811.324-.83 1.141.306 9.284-9.94zm-.055 3.244l.243-1.666-1.073 1.342-4.112 4.704 4.383 1.888.559-6.268zm13.766 4.504l-1.722-1.175.419-.804 4.377 2.293-1.506 8.662-.542 2.401 1.606-1.81 6.167-6.293 4.377 2.294-.419.804-1.945-.725-4.05 10.934 1.367.978-.419.804-4.731-2.49.419-.804 1.565.623 3.115-7.824 1.322-3.414-1.967 2.019-7.234 7.229-1.064-.591 1.495-9.377.657-3.593-1.937 3.046-4.559 7.131 1.558 1.028-.419.805-4.282-2.268.419-.804 1.47.597 6.463-9.676z" fill="#f58400"/><path d="M477.096 43.404l1.748 1.079-2.589 13.464.943.661-.419.804-4.231-2.458.419-.804 1.47.597.644-2.781-4.655-2.775-2.157 1.968 1.272.953-.419.804-3.781-2.235.419-.805 1.115.401 10.221-8.873zm-.435 3.143l.433-1.616-1.237 1.196-4.701 4.241 4.135 2.432 1.37-6.253zm8.704 3.248l-1.057-.996.514-.779 2.077 1.372c.355.196.779.514 1.134.711.614.368 1.159.616 1.678.959 1.463 1.003 2.425 1.974 2.671 2.956.246.983.061 2.054-.625 3.092a4.561 4.561 0 01-2.011 1.804c-.818.392-1.655.473-2.535.339-.881-.134-1.806-.484-2.68-1.023a4.783 4.783 0 01-.943-.661c-.355-.196-.52-.342-.589-.463l-2.254 3.47 2.026 1.562-.514.779-5.124-3.308.515-.779 1.444.692 6.273-9.727zm-.32 7.656c.874.54 1.635.743 2.497.567.862-.177 1.636-.784 2.372-2.013.54-.874.769-1.729.542-2.401-.227-.672-.765-1.325-1.709-1.986a26.476 26.476 0 00-1.159-.616 1.734 1.734 0 00-.45-.222l-3.625 5.547c.329.292.753.61 1.532 1.124zm4.729 9.721a5.855 5.855 0 01-.351-3.252c.185-1.07.732-2.35 1.564-3.553.806-1.108 1.751-1.975 2.81-2.506 1.059-.532 2.232-.727 3.423-.611 1.192.115 2.307.516 3.32 1.297.779.514 1.671 1.364 2.538 2.31l.494.438-2.12 2.589-1.038-.686.991-2.179c-.044-.215-.278-.481-.487-.843-.209-.361-.728-.704-1.247-1.047-.684-.489-1.349-.667-2.161-.681-.811-.014-1.603.283-2.352.796-.748.512-1.573 1.31-2.233 2.253-.661.944-1.131 1.938-1.48 2.863-.255.95-.389 1.831-.118 2.719.272.887.715 1.515 1.493 2.03.52.343.944.66 1.324.762.38.102.665.178.976.159l1.712-1.069.893.851-1.942 1.924c-.259-.171-.639-.273-1.089-.496-.475-.127-.83-.324-1.305-.451-.355-.197-.805-.419-1.324-.762-.987-.876-1.855-1.821-2.291-2.855zm27.26 3.943l-.609.753-1.558-1.028-5.922 7.275 2.663-.815 8.285-1.65.318-.424-1.102-1.212.61-.754 4.001 3.313-.609.754-1.324-.762-7.407 9.016 1.127 1.116-.584.659-4.001-3.313.584-.659 1.393.883 6.042-7.344-2.447.77-8.501 1.694-.438.494 1.196 1.238-.583.658-4.097-3.339.584-.658 1.298.857 7.407-9.016-1.032-1.091.61-.753 4.096 3.338zm9.478 8.345c.544.248.873.54 1.228.737.355.197.684.489.944.66 1.152 1.022 1.898 2.037 2.144 3.019.246.983.017 1.838-.687 2.566-.704.728-1.427 1.146-2.334 1.107-.836.081-1.692-.148-2.471-.663.798.825 1.285 1.669 1.366 2.505.082.837-.242 1.667-.826 2.325-.876.988-1.935 1.519-3.031 1.429-1.122.005-2.281-.611-3.693-1.804-.589-.464-.962-.971-1.336-1.479-.373-.507-.582-.868-.816-1.135l-.348-.602 2.424-2.203.658.584-1.181 2.128c.227.672.765 1.325 1.493 2.03.659.584 1.204.831 1.945.724.647-.132 1.344-.454 1.954-1.208.558-.563.736-1.228.819-1.919.084-.691-.429-1.439-1.252-2.169l-.987-.876.704-.728.823.73c.424.318.848.635 1.324.762.475.128.975.16 1.527.002.552-.158.938-.461 1.376-.955.584-.659.832-1.203.7-1.85-.038-.621-.411-1.129-1.069-1.712-.399-.413-.754-.61-1.203-.832a1.235 1.235 0 00-.881-.134l-1.402 1.05-.918-.755 1.828-2.261c.304.387.658.584 1.178.927zm11.14 11.643l-.886-1.256.679-.633 1.759 1.796c.33.292.728.704 1.222 1.142l.988.876c1.196 1.237 1.943 2.252 1.999 3.184.176.862-.148 1.692-.852 2.42-.679.633-1.377.955-2.118 1.062-.742.107-1.597-.123-2.376-.637.892.85 1.379 1.694 1.435 2.626.056.931-.243 1.666-.947 2.394-.85.893-1.979 1.303-3.075 1.213-1.191-.115-2.515-.877-3.971-2.286-.329-.292-.633-.679-.867-.945-.633-.679-1.032-1.092-1.196-1.238l-1.76-1.795.679-.633 1.272.952 8.015-8.242zm-5.534 11.148c.893.85 1.672 1.364 2.483 1.378.811.013 1.509-.309 2.188-.942.678-.633.977-1.368.94-1.989-.037-.621-.455-1.344-1.252-2.169-.893-.85-1.456-1.408-1.691-1.675l-3.908 3.944c.044.215.538.653 1.24 1.453zm4.221-5.49l.728.704c.659.584 1.273.952 1.894.915.621-.037 1.319-.36 1.903-1.018.584-.658.926-1.178.889-1.799-.037-.621-.455-1.344-1.183-2.048-.329-.292-.658-.584-1.082-.901l-.329-.292-3.643 3.709c.19.051.425.317.823.73zm13.614 5.074l1.43 1.503-6.383 12.04.651.99-.679.633-3.304-3.636.679-.633 1.152 1.022 1.499-2.552-3.702-4.048-2.67 1.22.981 1.281-.679.633-3-3.248.679-.633.918.755 12.428-5.327zm-1.48 2.862l.908-1.488-1.541.809-5.701 2.649 3.234 3.515 3.1-5.485zm-1.076 14.278c-.195-1.173-.01-2.244.486-3.333.496-1.09 1.276-2.103 2.437-3.014 1.066-.937 2.22-1.442 3.418-1.732 1.198-.29 2.39-.175 3.505.226 1.115.4 2.058 1.061 2.9 2.101a18.146 18.146 0 011.86 2.943l.252.577-2.683 2.031-.772-.92 1.536-1.931c-.044-.216-.063-.526-.271-.888-.209-.361-.487-.843-.886-1.256a3.544 3.544 0 00-1.913-1.225c-.76-.204-1.597-.122-2.484.149-.888.272-1.852.828-2.772 1.6-.92.772-1.649 1.595-2.164 2.374-.539.874-.769 1.73-.782 2.541-.014.811.283 1.603.891 2.377.468.533.797.825 1.152 1.022.355.197.614.368.925.35l1.895-.613.652.99-2.315 1.417c-.165-.146-.494-.438-.918-.756-.45-.222-.779-.514-1.108-.806-.329-.292-.754-.609-1.127-1.117a5.16 5.16 0 01-1.714-3.107zm19.024 6.93c1.147-.1 2.123.06 3.048.41.925.349 1.748 1.079 2.355 1.853.747 1.015 1.113 1.928 1.239 2.98.03 1.027-.129 2.003-.695 2.972a8.534 8.534 0 01-2.456 2.703 9.594 9.594 0 01-3.633 1.777c-1.198.29-2.295.2-3.41-.201-1.115-.401-1.868-1.01-2.545-1.904-.747-1.015-1.183-2.049-1.308-3.101-.126-1.052.129-2.003.599-2.997a9.877 9.877 0 012.361-2.729l-1.797-2.416-4.352 3.315.835 1.446-.748.513-3.082-4.085.749-.513 1.126 1.117 9.211-7.005-.765-1.325.774-.608 3.012 3.965-.774.607-1.127-1.116-3.965 3.012 1.797 2.416c1.37-.549 2.473-.865 3.551-1.086zm1.62 1.555c-1.242.075-2.732.694-4.4 1.979-1.428 1.145-2.424 2.202-2.85 3.412-.426 1.21-.301 2.262.446 3.277.772.92 1.672 1.365 2.939 1.195 1.243-.074 2.663-.814 4.306-2.004 1.427-1.145 2.424-2.202 2.85-3.412.426-1.21.3-2.262-.377-3.157-.677-.894-1.671-1.364-2.914-1.29zm6.329 18.197c-.204.76-.674 1.755-1.195 2.939-.419.805-.598 1.47-.795 1.824-.101.381-.203.761-.134.881l.228.672-.749.513-1.328-1.884c-.14-.241-.133-.647.115-1.191.248-.545.572-1.375 1.042-2.37.616-1.159.966-2.083 1.239-2.723.274-.64.211-1.166.097-1.502l-.651-.99-4.371 3.006.715 1.515-.749.513-2.84-4.225.748-.512 1.007 1.186 9.583-6.497-.644-1.395.748-.513 2.771 4.104-.748.513-1.007-1.187-4.465 2.98.86 1.351 6.585.135-.74-1.421.749-.512 2.536 3.837-.748.512-1.032-1.091-6.749-.281c.183.457.126 1.053-.078 1.813zm-.373 9.373c.065-1.002.345-2.047 1.1-2.965.661-.944 1.606-1.811 2.811-2.506 1.23-.791 2.454-1.176 3.601-1.276 1.242-.075 2.313.11 3.308.58.994.471 1.817 1.2 2.443 2.285.974 1.687 1.283 3.196.755 4.786-.502 1.495-1.67 2.812-3.503 3.95-1.23.791-2.454 1.176-3.722 1.346-1.242.074-2.313-.111-3.402-.607-.995-.47-1.792-1.295-2.444-2.284-.696-1.205-.916-2.283-.947-3.309zm9.538-5.186c-1.216-.02-2.776.479-4.488 1.548-1.592.999-2.684 2.031-3.205 3.215-.616 1.159-.49 2.211.136 3.296.651.989 1.62 1.555 2.837 1.575 1.312.046 2.776-.478 4.489-1.547 1.592-1 2.683-2.031 3.204-3.216.496-1.089.491-2.211-.135-3.296-.652-.989-1.526-1.529-2.838-1.575zm7.492 10.054l-.524-1.464.843-.487 1.253 2.169c.208.361.487.843.86 1.351.373.507.582.869.721 1.11.809 1.541 1.22 2.669 1.06 3.645-.159.976-.623 1.565-1.492 2.147-.723.417-1.585.593-2.37.485-.786-.109-1.495-.503-2.103-1.277.626 1.085.803 1.947.643 2.923-.134.881-.718 1.539-1.562 2.026-1.084.626-2.231.726-3.346.326-1.115-.401-2.147-1.492-3.19-3.3-.209-.361-.392-.818-.601-1.179-.487-.844-.74-1.421-.809-1.541l-1.253-2.169.818-.392.886 1.256 10.166-5.629zm-8.459 9.142c.626 1.084 1.259 1.763 2.019 1.967.761.203 1.502.097 2.346-.39.843-.487 1.307-1.076 1.459-1.646.153-.571-.023-1.433-.58-2.397l-1.182-2.048-4.89 2.662c.088.431.341 1.008.828 1.852zm5.582-4.107l.462.939c.417.723 1.006 1.186 1.576 1.339.665.178 1.312.046 2.155-.441.723-.418 1.161-.911 1.314-1.482.153-.57-.049-1.337-.606-2.301-.208-.361-.512-.748-.695-1.205l-.209-.361-4.553 2.548.556.964zm17.436 20.46l-.818.392-.861-1.351-10.418 5.051.568 1.68-.818.392-2.282-4.787.818-.392.86 1.351 10.514-5.026-2.63-5.39-10.539 5.12.568 1.681-.818.392-2.307-4.693.818-.392.79 1.23 10.419-5.051-.499-1.559.818-.392 5.817 11.744zm-10.304 9.564c.185-1.071.725-1.945 1.455-2.768a10.851 10.851 0 013.114-2.119c1.274-.576 2.568-.84 3.759-.725 1.191.116 2.237.396 3.18 1.056.944.66 1.621 1.555 2.057 2.588.733 1.827.826 3.379.039 4.798-.693 1.444-2.12 2.59-4.067 3.392-1.37.55-2.663.814-3.854.699-1.191-.116-2.332-.421-3.275-1.081-.944-.661-1.621-1.555-2.152-2.614-.316-1.103-.511-2.276-.256-3.226zm10.157-3.696c-1.261-.236-2.769.073-4.716.876-1.731.758-2.987 1.644-3.673 2.683-.685 1.038-.87 2.109-.365 3.263.506 1.154 1.354 1.789 2.615 2.025 1.261.236 2.865-.047 4.716-.875 1.732-.759 2.987-1.645 3.673-2.683.686-1.039.776-2.135.365-3.264-.505-1.154-1.354-1.789-2.615-2.025zm-.247 16.13c-1.724.352-3.087.497-4.063.337-.475-.127-.95-.255-1.185-.521-.329-.292-.563-.559-.746-1.015-.253-.577-.341-1.008-.36-1.319l1.395-.645c.019.311.202.768.455 1.345.044.215.209.361.373.507.165.146.355.197.64.273 1.736.364 4.754-.254 8.957-1.878l1.37-.549-.562-2.086.913-.367 3.816 10.088-.913.367-.809-1.541-10.881 4.112.448 1.75-.887.272-2.009-5.428.888-.271.853 1.756 10.88-4.112-1.301-3.507-1.585.594c-2.093.967-3.963 1.485-5.687 1.838zm11.081 8.061l-.309-1.508.888-.272 2.974 9.047-2.644 1.125-.341-1.008 1.522-1.12-1.357-4.438-5.015 1.61 1.049 2.93 1.578-.189.341 1.009-4.127 1.338-.342-1.008 1.421-.74-.928-2.999-5.256 1.75 1.826 4.971 2.598.186.005 1.122-3.277.446-3.271-9.84.887-.271.645 1.395 11.133-3.536zm4.786 14.83l-1.023-3.024-3.993.458-.29-1.199 4.862-1.039 3.2 11.246-4.8 1.566-.315-1.103 3.608-1.681-.782-3.164-11.342 3.174.529 2.587-.888.271-1.937-6.834.888-.271.821 2.257 11.462-3.244zm-2.941 15.916l-.176-.862c-.234-.266-.709-.394-1.375-.572-.665-.178-1.451-.287-2.426-.446a19.957 19.957 0 01-2.117-.466c-.475-.127-.734-.298-.778-.514l-.555-2.491.862-.177.322.698c.07.12.33.292.684.489.38.102.951.254 1.685.553l2.281.611c.545.248.995.47 1.324.762.039-.906.338-1.641.801-2.23a3.867 3.867 0 012.169-1.252c1.414-.334 2.58-.123 3.308.581.728.704 1.328 1.884 1.706 3.513.114.336.177.862.24 1.388.037.621.125 1.052.239 1.388l.624 2.612-.887.272-.62-1.49-11.309 2.673.258 1.699-.837.081-1.318-5.344.862-.176.568 1.68 4.793-1.16-.328-1.82zm6.998-.264a19.5 19.5 0 00-.214-1.483c-.246-.983-.594-1.585-1.088-2.023-.494-.438-1.305-.452-2.287-.206-.983.246-1.706.664-2.074 1.278-.369.614-.477 1.4-.231 2.383.246.982.378 1.629.517 1.87l5.56-1.362-.183-.457zm2.186 10.466l-.687-3.138-4.012.148-.195-1.173 4.951-.609 2.242 11.398-4.888 1.135-.195-1.173 3.722-1.345-.471-3.182-11.588 2.191.314 2.631-.862.176-1.386-6.992.862-.176.7 2.326 11.493-2.217zm-9.362 17.455c.47-.994 1.225-1.912 2.189-2.469.989-.651 2.213-1.036 3.601-1.276 1.363-.144 2.675-.098 3.764.398 1.115.401 2.033 1.156 2.805 2.076.772.92 1.183 2.048 1.353 3.316.151.957.156 2.079-.011 3.46l-.058.596-3.321.23-.169-1.267 2.257-.822c.146-.164.248-.544.254-.95.007-.405.065-1.001-.093-1.553a3.475 3.475 0 00-.992-1.997c-.564-.559-1.273-.952-2.223-1.207-.951-.255-1.977-.224-3.22-.15-1.172.195-2.155.441-3.094.903-.938.461-1.591.999-2.08 1.683-.489.684-.623 1.565-.542 2.402.132.646.195 1.172.404 1.534.114.336.348.602.582.869l1.901.509-.021 1.217-2.719-.118c-.044-.215-.132-.646-.41-1.128-.183-.457-.392-.818-.48-1.249-.089-.431-.272-.888-.309-1.509.02-1.217.136-2.408.632-3.498zm14.902 13.568l-.932.056-.422-1.845-9.393.845 2.387 1.353 7.08 4.749.526-.063.053-1.718.932-.056.463 5.115-.932.056-.334-1.413-11.593 1.07-.027 1.622-.932.056-.437-5.21.931-.056.378 1.629 9.489-.819-2.318-1.232-7.15-4.87-.621.038-.052 1.717-.932.056-.438-5.21.932-.056.309 1.509 11.593-1.07.097-1.502.931-.056.412 5.305zm1.281 20.307l-4.874.324-.074-1.242 3.759-.725-.027-4.081-11.751.518-.054 3.245-.932.056-.378-7.333.932-.056.276 2.009 11.561-.569.129-2.002.932-.056.501 9.912zm-1.081 3.276l.192-1.477.906.039-.038 5.083-.906-.039-.188-1.578-4.988-.013-.039 6.611 4.987.012.192-1.477.906.039-.012 4.988-.906-.039-.214-1.483-11.623.043-.192 1.476-.906-.039.012-4.987.906.039.189 1.578 5.393.019.039-6.61-5.393-.019-.217 1.571-.906-.039-.058-5.108.907.039.213 1.483 11.744-.112zm1.042 18.919l-.034 2.028-13.073 3.932-.21 1.166-.907-.039.203-4.937.906.04.093 1.552 2.853-.763.235-5.438-2.68-1.023-.217 1.571-.907-.039.171-4.436.906.039.1 1.147 12.561 5.2zm-3.05 1.118l1.63-.378-1.686-.554-5.929-2.2-.246 4.721 6.231-1.589zm-6.585 11.273c-1.711-.459-2.921-.885-3.769-1.519-.425-.318-.754-.61-.868-.946-.208-.361-.201-.767-.195-1.172.058-.596.065-1.002.236-1.261l1.528.001c-.077.286-.109.786-.167 1.382-.051.19-.006.405.133.646.044.216.208.362.468.533 1.342 1.073 4.409 1.793 8.889 2.178l1.502.097.37-2.141.906.039-.944 10.747-.906-.039-.043-1.743-11.533-1.053-.389 1.831-.906-.039.527-5.767.906.04-.009 1.933 11.533 1.053.303-3.79-1.692-.148a51.942 51.942 0 01-5.88-.862zm1.641 15.922c-.192 1.476-.713 2.661-1.607 3.338-.8.702-1.877.923-3.164.782-1.381-.167-2.42-.852-3.071-1.842-.652-.989-.821-2.257-.629-3.733.05-.19.101-.38.057-.596-.044-.215.102-.38.179-.665.178-.665.261-1.356.414-1.926l.377-2.548.881.135-.028 1.622 11.571 1.674.502-1.495.881.134-.805 5.285-.881-.134-.112-1.864-4.308-.645-.257 2.478zm-7.234-2.652c-.051.19-.153.571-.16.976-.185 1.071.017 1.838.555 2.492.538.653 1.247 1.047 2.343 1.137.976.159 1.838-.017 2.371-.485.628-.443.927-1.178 1.112-2.249l.294-1.856-6.286-.87-.229.855zm10.94 15.053l-.881-.135.052-1.717-11.475-1.649-.458 1.711-.881-.134.735-5.405.881.134-.053 1.717 11.476 1.649.458-1.711.881.135-.735 5.405zm-2.812 8.21l.573-1.375.855.23-1.134 4.992-.856-.229.123-1.597-4.898-1.108-1.421 6.443 4.898 1.109.572-1.375.855.229-1.108 4.898-.856-.229.097-1.502-11.367-2.435-.477 1.4-.855-.229 1.109-4.897.855.229-.097 1.502 5.303 1.115 1.421-6.444-5.303-1.115-.528 1.59-.855-.229 1.134-4.993.855.229-.097 1.502 11.202 2.289zm-3.032 18.54l-.535 1.996-13.577 1.251-.495 1.089-.856-.229 1.179-4.777.855.229-.217 1.572 2.89-.143 1.305-5.252-2.457-1.473-.598 1.469-.855-.229 1.051-4.302.855.23-.115 1.191 11.57 7.378zm-3.157.376l1.743-.042-1.514-.813-5.338-3.264-1.128 4.587 6.237-.468zm-2.368 14.543l.914-1.894.83.324-1.558 4.675-8.803-.22-2.408-.135 2.103 1.276 7.168 5.18-1.559 4.675-.829-.324.439-2.021-11.512-2.27-.693 1.444-.83-.324 1.686-5.151.83.325-.338 1.641 8.249 1.904 3.567.753-2.311-1.638-8.251-6.082.401-1.115 9.475-.007 3.745.087-3.363-1.513-7.747-3.4-.769 1.73-.83-.325 1.533-4.58.83.324-.313 1.546 10.344 5.115z" fill="#f58400"/><path d="M612.495 432.923l-.724 1.945-13.619-.492-.566.969-.829-.324 1.843-4.599.83.324-.408 1.521 2.909.168 1.971-5.074-2.26-1.828-.788 1.419-.83-.325 1.621-4.149.83.324-.21 1.166 10.23 8.955zm-3.244-.055l1.692.148-1.368-.978-4.85-3.947-1.698 4.434 6.224.343zm-1.824 9.086l.832-1.203.83.324-1.017 2.274c-.222.45-.324.83-.521 1.185-.274.64-.426 1.21-.674 1.754-.744 1.635-1.524 2.648-2.463 3.109-.913.367-1.94.397-3.219-.149-.9-.445-1.583-.934-2.096-1.682-.512-.749-.714-1.516-.77-2.448-.056-.931.199-1.882.643-2.781.197-.355.274-.64.47-.994.197-.355.248-.545.369-.615l-3.744-1.614-1.207 2.223-.83-.324 2.504-5.543.83.325-.502 1.495 10.565 4.664zm-7.555.828c-.445.899-.459 1.71-.187 2.598.271.888 1.025 1.497 2.304 2.043.995.471 1.806.484 2.383.231.697-.322 1.186-1.006 1.656-2 .197-.355.299-.735.426-1.21l.153-.57-6.112-2.657c-.077.285-.325.83-.623 1.565zm-8.912 6.27a6.459 6.459 0 013.189-.877c1.216.02 2.452.351 3.706.993 1.254.641 2.267 1.422 2.919 2.411.746 1.015 1.062 2.118 1.162 3.266.1 1.147-.111 2.313-.727 3.472-.444.899-1.105 1.843-1.911 2.951l-.343.519-2.932-1.6.496-1.09 2.375.637c.216-.044.482-.279.774-.608.292-.329.515-.779.857-1.298.394-.709.477-1.4.301-2.262-.107-.742-.524-1.465-1.132-2.239-.633-.679-1.481-1.313-2.64-1.929-1.09-.496-2.11-.871-3.085-1.031-.976-.159-1.908-.104-2.726.288-.792.297-1.351.861-1.796 1.76-.273.64-.495 1.09-.502 1.495-.102.38-.083.691.03 1.027l1.336 1.478-.66.944-2.217-1.613.306-1.14c.127-.475.134-.881.261-1.356.102-.38.35-.925.598-1.47.616-1.159 1.371-2.077 2.361-2.728zm.372 27.499l-.779-.514.769-1.73-8.106-4.718 1.176 2.454 2.944 8.021.449.222 1.073-1.342.779.514-2.604 4.395-.779-.514.572-1.375-10.044-5.849-.952 1.273-.805-.419 2.629-4.49.805.419-.718 1.539 8.176 4.839-1.227-2.264-2.918-8.116-.615-.368-1.098 1.437-.804-.419 2.655-4.585.804.419-.598 1.47 10.045 5.849.927-1.178.778.514-2.534 4.516zm-6.717 10.627c-.248.544-.376 1.019-.573 1.374-.196.355-.393.71-.565.969-.857 1.298-1.707 2.191-2.62 2.557-.913.367-1.82.328-2.693-.212-.874-.54-1.292-1.263-1.468-2.125-.177-.862-.068-1.648.282-2.573-.661.944-1.434 1.551-2.297 1.728-.862.176-1.647.068-2.426-.447-1.134-.711-1.811-1.605-1.911-2.753-.126-1.052.231-2.382 1.26-3.94.368-.614.806-1.108 1.244-1.602.412-.399.799-.702 1.065-.937.267-.234.413-.398.508-.373l2.52 1.999-.514.779-2.3-.921c-.602.348-1.161.911-1.821 1.854-.489.684-.572 1.375-.44 2.022.133.646.696 1.205 1.57 1.744.614.369 1.28.547 2.021.44.742-.107 1.395-.645 1.935-1.519l.711-1.133.874.539-.54.874c-.317.425-.444.9-.572 1.375a3.455 3.455 0 00.214 1.483c.183.457.582.869 1.101 1.212.684.489 1.375.572 1.926.414.552-.157 1.085-.626 1.574-1.31.317-.424.539-.874.546-1.279.102-.38.083-.691-.056-.932l-1.291-1.263.66-.943 2.483 1.378c-.058.596-.255.95-.407 1.521zm-9.788 12.961l1.116-1.127.779.515-1.466 2.051c-.292.33-.514.779-.883 1.394-.343.519-.54.873-.711 1.133-.978 1.368-1.923 2.235-2.811 2.506-.887.272-1.768.138-2.521-.472-.684-.488-1.222-1.142-1.399-2.004-.201-.767-.093-1.553.231-2.383-.66.944-1.434 1.551-2.321 1.823-.862.176-1.743.042-2.497-.567-1.013-.781-1.569-1.745-1.669-2.892-.1-1.147.402-2.642 1.646-4.244.292-.33.489-.684.781-1.013.609-.754.952-1.273 1.073-1.343l1.466-2.051.779.514-.762 1.324 9.169 6.836zm-11.917-3.804c-.781 1.013-1.035 1.963-1.023 2.68.011.716.524 1.464 1.303 1.978.753.61 1.513.813 2.16.681.647-.132 1.3-.67 1.935-1.519.781-1.013 1.174-1.722 1.346-1.982l-4.528-3.25c-.12.07-.558.564-1.193 1.412zm6.055 3.252l-.635.849c-.489.683-.667 1.349-.535 1.995.133.647.576 1.275 1.26 1.764.683.488 1.349.667 1.97.629.551-.157 1.179-.6 1.84-1.544.291-.329.514-.779.711-1.133l.197-.355-4.173-3.053c-.051.19-.318.424-.635.848zm-2.914 14.294l-1.244 1.602-12.955-4.49-.825.798-.753-.61 3.072-3.862.754.609-.858 1.298 2.68 1.024 3.389-4.287-1.607-2.365-1.116 1.126-.754-.609 2.755-3.438.753.609-.59 1.064 7.299 11.531zm-3.085-1.03l1.565.622-1.05-1.401-3.493-5.214-2.926 3.698 5.904 2.295zm-14.267 1.168a6.183 6.183 0 013.365-.015c1.141.305 2.274 1.016 3.357 1.918 1.083.901 1.829 1.916 2.24 3.044.41 1.129.51 2.276.3 3.442-.211 1.166-.801 2.23-1.557 3.148-.609.753-1.529 1.526-2.569 2.367l-.508.373-2.418-2.379.851-.893 2.128 1.182c.215-.044.551-.158.938-.462.362-.208.774-.607 1.117-1.127a3.017 3.017 0 00.871-2.109c.108-.786-.094-1.553-.581-2.396-.487-.844-1.069-1.713-2.082-2.493-.918-.756-1.766-1.39-2.691-1.74-.925-.35-1.806-.484-2.642-.403-.837.082-1.56.499-2.169 1.253-.438.494-.756.918-.857 1.298-.197.355-.179.665-.255.95l.853 1.757-.92.772-1.683-2.081c.146-.164.343-.519.591-1.064.222-.45.419-.804.616-1.159s.514-.779.952-1.273c.635-.848 1.65-1.595 2.753-1.91zm-3.915 19.933c.315 1.103.346 2.13.091 3.08-.255.951-.699 1.85-1.499 2.552-.85.893-1.814 1.45-2.797 1.696-.982.246-2.078.156-3.098-.22-1.02-.375-2.059-1.06-3.046-1.936-1.058-.996-1.874-2.132-2.259-3.355-.411-1.129-.606-2.302-.325-3.347.185-1.071.75-2.04 1.48-2.863a6.854 6.854 0 012.822-1.79c.983-.246 2.079-.156 3.099.219s2.058 1.061 3.046 1.937l2.113-2.184-3.969-3.814-1.282.981-.632-.679 3.547-3.735.658.584-.952 1.273 8.337 8.039 1.161-.911.633.679-3.522 3.64-.633-.679.952-1.273-3.64-3.521-2.113 2.184c.981 1.281 1.512 2.34 1.828 3.443zm-1.175 1.723c-.29-1.199-1.15-2.55-2.606-3.958-1.292-1.263-2.615-2.025-3.876-2.261-1.261-.236-2.364.079-3.214.972-.851.893-1.105 1.843-.815 3.041.29 1.198 1.15 2.549 2.701 3.983 1.292 1.263 2.52 2 3.756 2.331 1.235.331 2.243-.01 3.093-.903.851-.892 1.131-1.938.961-3.205zm-17.097 9.067c-.786-.109-1.831-.389-3.066-.72l-1.996-.534c-.38-.102-.691-.084-.932.056l-.697.322-.633-.679 1.65-1.595c.241-.139.577-.253 1.242-.075l2.566.688c1.21.426 2.16.681 2.946.789.665.179 1.191.116 1.483-.213l.825-.798-3.633-3.927-1.377.955-.633-.679 3.782-3.468.633.679-1.022 1.152 7.899 8.533 1.256-.885.633.678-3.661 3.399-.633-.679.952-1.272-3.633-3.928-1.212 1.102.892 6.554 1.256-.886.633.679-3.394 3.165-.633-.679.927-1.178-.746-6.719c-.172.26-.888.272-1.674.163zm-9.279 1.181a4.904 4.904 0 013.092.625c1.089.495 1.982 1.345 2.918 2.411.937 1.066 1.538 2.246 1.828 3.444.29 1.198.295 2.32-.08 3.34s-.941 1.988-1.86 2.761c-1.453 1.24-3.013 1.739-4.584 1.521-1.572-.217-3.035-1.22-4.535-2.844-.936-1.066-1.537-2.246-1.827-3.444-.29-1.198-.295-2.32.105-3.435.306-1.14.941-1.988 1.861-2.761.996-1.057 2.029-1.493 3.082-1.618zm6.561 8.582c-.169-1.267-.909-2.688-2.244-4.166-1.241-1.453-2.444-2.285-3.654-2.711-1.21-.426-2.288-.205-3.207.567-.92.772-1.295 1.792-1.126 3.06.17 1.267.909 2.688 2.219 4.261 1.241 1.453 2.444 2.285 3.654 2.711 1.236.331 2.313.11 3.233-.662.92-.772 1.295-1.792 1.125-3.06zm-8.693 8.875l1.326-.765.607.774-1.935 1.518c-.361.209-.774.608-1.211 1.102-.413.399-.8.702-1.041.841-1.402 1.051-2.461 1.582-3.392 1.638-.932.056-1.736-.364-2.344-1.137-.538-.654-.835-1.446-.821-2.258.013-.811.312-1.546.896-2.204-.92.772-1.833 1.139-2.739 1.099-.906-.039-1.711-.458-2.318-1.232-.747-1.015-1.062-2.118-.852-3.284.211-1.166 1.163-2.438 2.711-3.653.387-.304.748-.513 1.015-.747.774-.607 1.256-.886 1.401-1.05l1.935-1.519.513.748-1.117 1.127 7.366 9.002zm-10.385-6.857c-1.015.747-1.529 1.526-1.638 2.311-.109.786.093 1.553.7 2.327.608.774 1.222 1.142 1.913 1.226.691.083 1.388-.24 2.283-.917 1.015-.746 1.668-1.284 1.839-1.544l-3.41-4.377c-.38-.102-.888.272-1.687.974zm4.931 4.785l-.774.607c-.653.538-1.022 1.152-1.105 1.843-.083.691.144 1.363.777 2.042.538.653 1.152 1.021 1.748 1.079.596.058 1.293-.265 2.188-.942.387-.303.679-.633 1.066-.936l.266-.234-3.177-4.111c-.336.114-.602.348-.989.652zM100.44 97.395a2 2 0 100-4 2 2 0 000 4zm404.499-25.63a2 2 0 100-4 2 2 0 000 4z" fill="#f58400"/></svg><svg fill="none" viewBox="0 0 23 32" id="horse-icon" xmlns="http://www.w3.org/2000/svg"><path d="M21.316 29.944h-.563l-.003-.018-.016-.069a5.09 5.09 0 00-.032-.134l-.015-.063a9.523 9.523 0 00-.045-.177l-.005-.016a8.111 8.111 0 00-.055-.19l-.018-.062-.04-.129-.023-.07a6.495 6.495 0 00-.043-.124l-.022-.065a7.031 7.031 0 00-.057-.154l-.012-.032a7.571 7.571 0 00-.072-.18l-.027-.064-.05-.117-.032-.072a7.38 7.38 0 00-.084-.183c-.02-.043-.039-.085-.061-.128l-.025-.049a6.16 6.16 0 00-.086-.166l-.04-.07-.055-.101-.043-.075-.055-.094a2.274 2.274 0 00-.045-.075c-.02-.034-.04-.068-.062-.101l-.056-.092-.082-.125a5.298 5.298 0 00-.052-.078l-.056-.083a1.35 1.35 0 01-.057-.082.983.983 0 00-.055-.074c-.019-.024-.04-.055-.06-.083l-.055-.075c-.04-.05-.076-.1-.115-.15l-.054-.068-.07-.085-.052-.063a2.063 2.063 0 00-.073-.086l-.051-.06-.077-.086-.045-.05a9.498 9.498 0 00-.29-.306l-.044-.044-.09-.088-.045-.043a7.278 7.278 0 00-.095-.09l-.033-.03a8.237 8.237 0 00-.343-.3l-.032-.026a7.135 7.135 0 00-.11-.088l-.036-.03c-.04-.03-.075-.06-.113-.089l-.02-.014a9.262 9.262 0 00-.395-.288l-.018-.013a9.713 9.713 0 00-.127-.085l-.028-.018c-.044-.03-.087-.057-.131-.085l-.008-.005a9.483 9.483 0 00-.444-.265l-.006-.003a11.842 11.842 0 00-.143-.078l-.021-.012a9.62 9.62 0 00-.783-.374l-.017-.007a9.163 9.163 0 00-.213-.087h1.413c.23 0 .416-.251.416-.562 0-.31-.186-.56-.416-.56h-.421l.086-.215c.398-.235 1.098-.736 1.793-1.656l.005-.007a4.84 4.84 0 00.155-.213l.01-.015c.051-.072.102-.147.151-.225l.014-.02.07-.113s0-.002.004-.004l.072-.119.016-.026.061-.105.012-.02.07-.123.015-.028a6.403 6.403 0 00.139-.263l.015-.03.052-.107.02-.038.063-.134.013-.029.05-.112.021-.045a7.044 7.044 0 00.121-.291l.02-.05.048-.124.012-.031.055-.15.019-.053.042-.12.015-.045a12.614 12.614 0 00.068-.212l.04-.123c.005-.018.01-.038.016-.054a9.077 9.077 0 00.097-.349l.016-.06c.014-.057.03-.115.043-.174l.012-.049.033-.141.014-.064a12.913 12.913 0 00.079-.383l.013-.066.03-.168.006-.036.032-.199a16.55 16.55 0 00.034-.232l.008-.05.027-.21.008-.066a8.25 8.25 0 00.026-.228l.02-.22c0-.02.004-.04.006-.062l.015-.178c0-.022.003-.044.005-.066l.015-.23c0-.018 0-.038.003-.054l.01-.194c0-.024 0-.047.003-.07l.009-.244v-.035l.004-.22v-.67c0-.075-.003-.153-.005-.231v-.043c-.002-.09-.006-.18-.01-.271L19.94 12a17.182 17.182 0 00-.012-.232c0-.019 0-.037-.003-.058a29.902 29.902 0 00-.018-.283l-.005-.066-.018-.24c0-.023-.004-.046-.006-.069a27.538 27.538 0 00-.027-.295c0-.018-.003-.037-.005-.056l-.027-.255a23.313 23.313 0 00-.044-.385c0-.012-.003-.025-.005-.037a22.797 22.797 0 00-.036-.28l-.011-.083-.046-.322C18.098-1.316 6.91.414 6.91.414l.358 2.29L.5 9.48l.296 2.617 2.563 1.497c.114-.276.261-.538.438-.782C5.45 11.004 8.659 9.584 9.578 9.29c.184-.059.289-.088.289-.088-4.394 5.391-3.895 11.568-3.699 13.04-.203.037-.361.27-.361.555 0 .31.187.561.417.561h1.413c-2.35.933-4.215 2.709-5.189 4.94a2.614 2.614 0 00-.31.836l-.02.065-.037.121-.021.075a4.219 4.219 0 00-.054.2c-.01.037-.02.074-.028.111-.01.038-.018.075-.027.115l-.03.13H1.36a.853.853 0 00-.587.22.77.77 0 00-.181.252.737.737 0 00.18.85.821.821 0 00.588.22h19.964a.853.853 0 00.587-.22.772.772 0 00.181-.252.737.737 0 00-.18-.85.853.853 0 00-.587-.22l-.008-.007z" fill="#595653"/></svg></svg>