<svg width="635" height="635" viewBox="0 0 635 635" fill="none" xmlns="http://www.w3.org/2000/svg">
<path d="M459.78 600.3L459.388 599.482L460.885 598.457L456.706 590.106L456.373 592.869L454.468 601.118L454.652 601.574L456.211 601.076L456.603 601.894L452.006 604.227L451.614 603.409L452.87 602.523L447.723 592.079L446.259 592.603L445.867 591.785L450.559 589.477L450.951 590.295L449.6 591.156L453.849 599.628L454.131 597.055L456.087 588.616L455.739 588.013L454.059 588.582L453.667 587.764L458.359 585.456L458.751 586.274L457.4 587.134L462.547 597.579L463.986 597.149L464.378 597.967L459.78 600.3Z" fill="#f58400"/>
<path d="M448.405 605.502C447.897 605.876 447.536 606.084 447.174 606.293C446.813 606.502 446.451 606.71 446.115 606.824C444.72 607.469 443.522 607.759 442.546 607.599C441.57 607.44 440.886 606.951 440.45 605.917C440.084 605.004 440.002 604.168 440.327 603.338C440.651 602.508 441.235 601.85 441.983 601.337C440.95 601.773 440.018 601.829 439.163 601.6C438.333 601.276 437.769 600.717 437.377 599.899C436.802 598.625 436.772 597.598 437.242 596.604C437.712 595.609 438.753 594.767 440.389 593.984C441.086 593.661 441.758 593.434 442.284 593.371C442.836 593.213 443.362 593.151 443.672 593.132C443.983 593.113 444.199 593.069 444.294 593.095L445.291 596.214L444.473 596.606L442.98 594.576C442.289 594.493 441.522 594.695 440.489 595.131C439.696 595.428 439.258 595.922 439.08 596.587C438.902 597.252 439.008 597.994 439.375 598.907C439.697 599.604 440.166 600.137 440.805 600.41C441.445 600.684 442.282 600.602 443.315 600.166L444.47 599.661L444.931 600.599L443.898 601.035C443.441 601.218 443.054 601.522 442.642 601.921C442.324 602.345 442.102 602.795 441.975 603.27C441.942 603.771 441.98 604.392 442.232 604.969C442.529 605.761 443.023 606.199 443.593 606.352C444.163 606.505 444.81 606.373 445.603 606.076C446.085 605.797 446.541 605.614 446.833 605.285C447.125 604.956 447.296 604.696 447.347 604.506L446.994 602.782L448.054 602.251L449.394 604.851C449.274 604.92 448.912 605.129 448.405 605.502Z" fill="#f58400"/>
<path d="M433.181 610.998L434.69 610.689L435.056 611.602L432.679 612.493C432.317 612.702 431.766 612.86 431.189 613.112C430.612 613.365 430.25 613.574 430.009 613.713C428.424 614.307 427.156 614.476 426.301 614.247C425.446 614.018 424.787 613.434 424.446 612.426C424.149 611.634 424.068 610.797 424.367 610.062C424.571 609.302 425.154 608.643 425.877 608.226C424.749 608.637 423.792 608.788 422.962 608.463C422.132 608.139 421.473 607.555 421.132 606.547C420.627 605.393 420.717 604.297 421.308 603.233C421.898 602.169 423.059 601.258 424.98 600.55C425.437 600.367 425.773 600.253 426.204 600.165C427.092 599.893 427.669 599.641 427.884 599.597L430.167 598.68L430.438 599.568L429.018 600.308L433.181 610.998ZM425.277 601.343C424.123 601.848 423.375 602.361 422.981 603.07C422.587 603.779 422.694 604.521 422.965 605.409C423.332 606.322 423.8 606.855 424.44 607.128C425.08 607.401 425.916 607.32 426.95 606.884C428.104 606.378 428.871 606.176 429.233 605.968L427.268 600.756C426.862 600.749 426.285 601.002 425.277 601.343ZM428.54 607.412L427.627 607.778C426.835 608.075 426.302 608.543 426.028 609.183C425.755 609.823 425.767 610.539 426.159 611.357C426.456 612.15 426.924 612.683 427.469 612.93C428.014 613.178 428.85 613.097 429.884 612.661C430.34 612.478 430.702 612.269 431.158 612.086L431.52 611.877L429.669 607.001C429.428 607.14 429.092 607.254 428.54 607.412Z" fill="#f58400"/>
<path d="M418.343 617.717L416.422 618.425L408.012 607.616L406.84 607.811L406.568 606.923L411.273 605.332L411.544 606.219L410.149 606.864L411.851 609.255L417.012 607.481L416.965 604.616L415.361 604.899L415.089 604.012L419.337 602.603L419.609 603.491L418.55 604.022L418.343 617.717ZM416.356 615.25L417.311 616.626L417.174 614.858L417.017 608.602L412.528 610.15L416.356 615.25Z" fill="#f58400"/>
<path d="M403.727 608.402C404.868 608.708 405.742 609.248 406.514 610.168C407.286 611.087 407.912 612.172 408.246 613.586C408.606 614.904 408.68 616.147 408.444 617.408C408.208 618.668 407.643 619.637 406.818 620.435C405.993 621.232 405.004 621.884 403.78 622.269C402.893 622.541 401.72 622.736 400.383 622.785L399.762 622.822L399.005 619.564L400.229 619.179L401.386 621.322C401.576 621.373 401.956 621.475 402.362 621.482C402.767 621.488 403.319 621.331 403.965 621.198C404.732 620.996 405.36 620.554 405.824 619.965C406.287 619.376 406.611 618.546 406.65 617.64C406.69 616.734 406.589 615.586 406.274 614.483C405.958 613.38 405.522 612.347 404.915 611.573C404.307 610.799 403.674 610.12 402.94 609.821C402.205 609.522 401.324 609.388 400.436 609.66C399.79 609.792 399.308 610.07 399.067 610.209C398.826 610.349 398.534 610.678 398.363 610.937L398.138 612.914L396.966 613.11L396.652 610.479C396.867 610.435 397.229 610.226 397.711 609.948C398.098 609.644 398.459 609.436 398.916 609.252C399.277 609.044 399.829 608.886 400.381 608.728C401.44 608.197 402.587 608.097 403.727 608.402Z" fill="#f58400"/>
<path d="M389.64 622.962C389.265 623.982 388.7 624.951 388.021 625.584C387.222 626.286 386.378 626.773 385.421 626.924C384.223 627.214 383.127 627.124 382.202 626.775C381.277 626.425 380.428 625.79 379.751 624.896C379.074 624.001 378.543 622.942 378.304 621.554C377.995 620.045 377.946 618.708 378.157 617.542C378.393 616.281 378.958 615.312 379.688 614.489C380.417 613.666 381.356 613.205 382.459 612.889C383.657 612.599 384.779 612.594 385.799 612.969C386.819 613.344 387.572 613.954 388.275 614.753C388.952 615.647 389.483 616.706 389.722 618.095L392.644 617.452L391.421 612.133L389.843 612.321L389.667 611.459L394.675 610.255L394.851 611.117L393.387 611.641L396.06 622.951L397.518 622.832L397.694 623.694L392.807 624.829L392.63 623.967L394.095 623.443L392.96 618.555L390.012 619.293C390.036 620.725 389.92 621.916 389.64 622.962ZM387.573 623.834C387.999 622.624 388.001 621.097 387.535 619.036C387.087 617.287 386.442 615.892 385.549 615.041C384.657 614.191 383.637 613.816 382.344 614.08C381.145 614.371 380.441 615.099 380.04 616.214C379.64 617.328 379.708 618.976 380.174 621.037C380.622 622.786 381.172 624.156 382.064 625.006C382.931 625.952 383.977 626.232 385.08 625.916C386.348 625.747 387.147 625.044 387.573 623.834Z" fill="#f58400"/>
<path d="M368.366 622.151C367.803 621.592 366.979 620.862 366.112 619.917C365.479 619.238 365.106 618.731 364.777 618.439C364.448 618.147 364.188 617.975 363.998 617.924L363.307 617.841L363.131 616.979L365.381 616.563C365.692 616.545 366.046 616.742 366.445 617.154C366.844 617.567 367.477 618.245 368.154 619.14C368.996 620.18 369.629 620.859 370.192 621.418C370.66 621.95 371.11 622.173 371.541 622.085L372.714 621.889L371.776 616.647L370.128 616.715L369.951 615.853L374.978 614.959L375.129 615.916L373.69 616.345L375.717 627.787L377.244 627.789L377.395 628.746L372.489 629.57L372.389 628.423L373.854 627.899L372.941 622.562L371.337 622.845L368.516 628.812L370.069 628.718L370.22 629.675L365.719 630.507L365.568 629.549L367.008 629.12L370.07 623.014C369.569 622.982 368.955 622.614 368.366 622.151Z" fill="#f58400"/>
<path d="M360.012 617.977C361.006 618.447 361.734 619.151 362.265 620.21C362.822 621.174 363.207 622.398 363.446 623.786C363.685 625.174 363.544 626.461 363.118 627.671C362.718 628.786 362.057 629.729 361.258 630.432C360.363 631.109 359.425 631.57 358.157 631.74C356.243 632.042 354.627 631.609 353.501 630.492C352.374 629.375 351.564 627.834 351.339 625.635C351.125 624.152 351.266 622.865 351.667 621.75C352.093 620.54 352.728 619.692 353.553 618.894C354.447 618.217 355.48 617.781 356.653 617.586C357.921 617.417 359.017 617.507 360.012 617.977ZM360.785 628.777C361.306 627.592 361.498 626.116 361.247 624.012C361.04 622.123 360.49 620.753 359.648 619.713C358.807 618.672 357.787 618.297 356.614 618.492C355.441 618.687 354.572 619.269 354.051 620.454C353.53 621.638 353.313 623.21 353.589 625.219C353.796 627.108 354.346 628.478 355.213 629.423C355.985 630.343 356.98 630.813 358.247 630.644C359.369 630.639 360.263 629.961 360.785 628.777Z" fill="#f58400"/>
<path d="M348.638 631.532L350.14 631.629L350.196 632.56L347.686 632.805C347.281 632.798 346.729 632.956 346.108 632.993C345.461 633.125 345.056 633.118 344.84 633.162C343.167 633.325 341.881 633.184 341.102 632.67C340.323 632.156 339.905 631.433 339.78 630.381C339.698 629.544 339.928 628.689 340.296 628.074C340.664 627.46 341.413 626.948 342.3 626.676C341.153 626.776 340.177 626.616 339.398 626.102C338.619 625.588 338.228 624.77 338.172 623.838C338.097 622.596 338.377 621.551 339.227 620.658C340.078 619.765 341.447 619.216 343.526 619.06C343.957 618.972 344.363 618.978 344.864 619.011C345.795 618.955 346.416 618.917 346.606 618.968L349.116 618.724L349.172 619.656L347.664 619.965L348.638 631.532ZM343.652 620.112C342.409 620.186 341.496 620.553 341.033 621.142C340.475 621.705 340.271 622.465 340.422 623.423C340.478 624.354 340.8 625.052 341.32 625.395C341.839 625.738 342.694 625.967 343.746 625.841C344.989 625.767 345.825 625.685 346.161 625.572L345.705 620.051C345.325 619.949 344.704 619.986 343.652 620.112ZM345.209 626.844L344.157 626.97C343.32 627.051 342.623 627.374 342.28 627.893C341.937 628.412 341.733 629.172 341.815 630.009C341.896 630.846 342.123 631.518 342.643 631.861C343.162 632.203 343.922 632.407 344.974 632.282C345.405 632.193 345.906 632.226 346.363 632.043L346.794 631.954L346.356 626.744C346.046 626.763 345.735 626.782 345.209 626.844Z" fill="#f58400"/>
<path d="M319.286 634.26L319.23 633.328L320.833 633.045L320.48 621.441L318.693 621.267L318.637 620.336L323.865 620.209L323.921 621.14L322.343 621.329L322.671 633.028L328.616 632.89L328.288 621.19L326.596 621.042L326.54 620.111L331.769 619.984L331.825 620.915L330.341 621.129L330.695 632.734L332.267 632.951L332.322 633.883L319.286 634.26Z" fill="#f58400"/>
<path d="M314.878 621.06C315.726 621.695 316.429 622.494 316.839 623.623C317.275 624.656 317.445 625.924 317.469 627.356C317.397 628.763 317.161 630.024 316.571 631.088C315.98 632.152 315.25 632.975 314.286 633.532C313.322 634.088 312.219 634.404 311.097 634.409C309.164 634.4 307.72 633.708 306.714 632.521C305.733 631.24 305.26 629.585 305.25 627.342C305.226 625.909 305.583 624.579 306.173 623.515C306.764 622.451 307.519 621.533 308.483 620.976C309.447 620.42 310.55 620.104 311.767 620.125C312.984 620.145 314.029 620.425 314.878 621.06ZM314.123 631.858C314.809 630.82 315.216 629.299 315.251 627.271C315.234 625.433 314.925 623.925 314.299 622.84C313.673 621.756 312.704 621.19 311.487 621.17C310.27 621.15 309.306 621.706 308.621 622.745C307.935 623.783 307.502 625.399 307.468 627.427C307.459 629.36 307.698 630.748 308.419 631.858C309.046 632.942 310.015 633.507 311.231 633.528C312.404 633.333 313.343 632.871 314.123 631.858Z" fill="#f58400"/>
<path d="M299.371 624.952C299.735 623.216 300.161 622.006 300.795 621.157C301.113 620.733 301.405 620.404 301.766 620.195C302.128 619.986 302.559 619.898 302.964 619.905C303.56 619.963 303.966 619.97 304.251 620.046L304.249 621.573C303.964 621.497 303.463 621.465 302.868 621.407C302.677 621.356 302.462 621.4 302.221 621.539C301.98 621.678 301.834 621.843 301.688 622.007C300.59 623.445 299.991 626.442 299.7 630.947L299.603 632.449L301.745 632.82L301.706 633.726L290.882 633.066L290.921 632.16L292.689 632.023L293.457 620.413L291.601 620.119L291.64 619.213L297.337 619.619L297.298 620.526L295.339 620.612L294.571 632.222L298.386 632.429L298.534 630.737C298.809 628.57 299.033 626.593 299.371 624.952Z" fill="#f58400"/>
<path d="M287.493 631.649L289.013 632.056L288.879 632.937L279.374 631.918L279.447 628.984L280.544 629.074L280.871 630.893L285.49 631.52L286.08 626.279L283.006 625.965L282.599 627.486L281.598 627.421L282.027 623.156L283.029 623.221L283.096 624.869L286.144 625.278L286.715 619.727L281.424 619.328L280.217 621.551L279.127 621.055L279.993 617.824L290.284 618.952L290.15 619.833L288.623 619.831L287.493 631.649Z" fill="#f58400"/>
<path d="M272.057 629.957L275.225 630.297L276.434 626.547L277.6 626.757L276.586 631.68L265.041 629.911L265.554 624.956L266.72 625.166L266.772 629.152L269.985 629.708L271.684 618.042L269.093 617.45L269.227 616.569L276.273 617.642L276.139 618.523L273.731 618.387L272.057 629.957Z" fill="#f58400"/>
<path d="M258.727 620.784L259.608 620.918C259.944 620.804 260.356 620.405 260.699 619.886C261.042 619.367 261.626 618.709 262.14 617.93C262.654 617.151 263.118 616.562 263.435 616.138C263.752 615.713 263.993 615.574 264.184 615.625L266.705 616.097L266.571 616.978L265.83 617.085C265.614 617.129 265.398 617.173 265.107 617.502C264.84 617.736 264.402 618.23 263.939 618.819C263.33 619.572 262.866 620.161 262.454 620.56C262.016 621.054 261.654 621.263 261.198 621.446C262.002 621.865 262.566 622.423 262.888 623.121C263.21 623.818 263.292 624.655 263.132 625.631C262.845 627.082 262.185 628.025 261.272 628.392C260.264 628.733 259.022 628.808 257.381 628.47C257 628.368 256.62 628.266 256.05 628.113C255.48 627.96 255.005 627.833 254.72 627.757L252.103 627.259L252.237 626.378L253.834 626.501L256.078 615.083L254.393 614.53L254.527 613.649L259.951 614.695L259.817 615.576L258.03 615.402L257.137 620.256L258.727 620.784ZM256.184 627.232C256.754 627.385 257.23 627.513 257.61 627.614C258.585 627.774 259.302 627.762 259.904 627.414C260.507 627.066 260.875 626.452 261.06 625.381C261.22 624.406 261.138 623.569 260.695 622.941C260.253 622.313 259.638 621.945 258.688 621.69C257.712 621.53 257.047 621.352 256.736 621.371L255.639 626.985L256.184 627.232Z" fill="#f58400"/>
<path d="M245.603 624.906L248.79 625.556L250.284 621.882L251.519 622.213L250.031 627.009L238.74 624.29L239.659 619.341L240.799 619.647L240.446 623.626L243.582 624.466L246.257 612.961L243.717 612.178L243.946 611.323L250.935 612.992L250.705 613.847L248.253 613.495L245.603 624.906Z" fill="#f58400"/>
<path d="M233.599 609.264C234.397 610.088 234.833 611.122 235.028 612.295C235.223 613.467 235.082 614.754 234.7 616.179C234.344 617.51 233.633 618.643 232.808 619.441C231.957 620.333 230.898 620.864 229.795 621.18C228.597 621.47 227.501 621.38 226.265 621.049C225.315 620.794 224.321 620.324 223.066 619.683L222.522 619.435L223.673 616.28L224.908 616.611L224.677 618.994C224.816 619.235 225.076 619.406 225.431 619.603C225.785 619.8 226.33 620.048 226.9 620.201C227.66 620.404 228.377 620.392 229.144 620.191C229.816 619.963 230.564 619.451 231.078 618.672C231.688 617.918 232.158 616.924 232.463 615.784C232.769 614.643 232.954 613.572 232.924 612.546C232.893 611.519 232.622 610.631 232.204 609.908C231.787 609.185 231.103 608.696 230.153 608.442C229.487 608.264 229.012 608.136 228.607 608.129C228.201 608.123 227.865 608.236 227.624 608.375L226.405 609.882L225.316 609.387L226.479 606.948C226.764 607.024 227.169 607.031 227.67 607.064C228.171 607.096 228.576 607.103 228.982 607.109C229.387 607.116 229.958 607.269 230.528 607.422C231.763 607.753 232.827 608.344 233.599 609.264Z" fill="#f58400"/>
<path d="M215.16 617.258L215.484 616.429L217.315 616.817L220.4 607.967L218.224 609.625L211.013 614.11L210.885 614.585L212.425 615.303L212.1 616.133L207.26 614.429L207.585 613.599L209.036 613.886L212.801 602.876L211.357 602.183L211.681 601.353L216.616 603.083L216.291 603.913L214.65 603.575L211.541 612.52L213.596 610.932L221.023 606.403L221.201 605.738L219.567 604.994L219.891 604.164L224.826 605.894L224.502 606.724L222.956 606.411L219.191 617.422L220.54 618.089L220.215 618.919L215.16 617.258Z" fill="#f58400"/>
<path d="M196.067 610.207L197.72 605.557L198.93 605.983L198.032 609.715L201.776 611.329L206.136 600.377L203.153 598.966L203.477 598.137L210.306 600.781L209.982 601.611L207.986 601.076L203.771 611.864L205.545 612.849L205.221 613.678L196.067 610.207Z" fill="#f58400"/>
<path d="M193.528 607.897L194.732 608.729L194.407 609.559L189.764 607.5L190.089 606.67L191.609 607.078L193.643 602.53L187.625 599.899L185.591 604.447L186.89 605.304L186.565 606.134L182.017 604.1L182.342 603.27L183.767 603.652L188.457 592.992L187.133 592.23L187.458 591.4L192.006 593.433L191.681 594.263L190.186 593.761L187.93 598.758L193.948 601.389L196.204 596.392L194.785 595.604L195.109 594.774L199.847 596.859L199.523 597.688L198.123 597.211L193.528 607.897Z" fill="#f58400"/>
<path d="M175.817 601.012L174.018 600.123L175.726 586.525L174.783 585.864L175.202 585.06L179.604 587.258L179.185 588.062L177.69 587.56L177.236 590.392L182.088 592.813L184.081 590.698L182.687 589.816L183.107 589.011L187.059 590.987L186.64 591.792L185.525 591.391L175.817 601.012ZM176.061 597.819L175.723 599.46L176.891 598.143L181.263 593.61L177.051 591.463L176.061 597.819Z" fill="#f58400"/>
<path d="M168.507 587.239C169.579 585.896 170.55 584.934 171.419 584.352C171.901 584.074 172.237 583.96 172.668 583.872C173.074 583.879 173.454 583.981 173.904 584.203C174.448 584.451 174.778 584.743 175.037 584.914L174.465 586.289C174.206 586.117 173.851 585.92 173.237 585.552C173.072 585.406 172.882 585.355 172.666 585.399C172.451 585.443 172.235 585.487 171.994 585.627C170.453 586.436 168.575 588.886 166.288 592.857L165.526 594.181L167.318 595.476L166.899 596.28L157.513 591.015L157.932 590.211L159.592 590.859L165.276 580.669L163.718 579.64L164.138 578.836L169.198 581.618L168.779 582.422L167.049 581.653L161.391 591.749L164.678 593.546L165.491 592.032C166.38 590.234 167.434 588.581 168.507 587.239Z" fill="#f58400"/>
<path d="M140.458 580.538L140.972 579.759L142.607 580.502L148.81 570.655L147.468 569.582L147.982 568.803L152.586 571.768L152.072 572.547L150.533 571.829L144.329 581.677L145.671 582.75L145.157 583.528L140.458 580.538ZM153.271 582.138C151.973 581.28 151.201 580.36 150.86 579.352C150.519 578.344 150.704 577.273 151.415 576.14C152.151 574.911 153.141 574.26 154.314 574.065C155.486 573.87 156.722 574.201 158.045 574.963C158.21 575.109 158.4 575.16 158.565 575.306C158.729 575.452 158.894 575.598 159.084 575.648C159.673 576.112 160.192 576.455 160.616 576.772L162.788 578.169L162.274 578.948L160.83 578.255L154.626 588.103L155.779 589.125L155.264 589.903L150.73 587.059L151.244 586.28L152.974 587.049L155.278 583.388L153.271 582.138ZM158.614 576.643C158.449 576.497 158.19 576.325 157.74 576.103C156.866 575.563 156.011 575.334 155.244 575.536C154.476 575.738 153.823 576.276 153.163 577.219C152.623 578.093 152.419 578.854 152.621 579.621C152.823 580.388 153.361 581.041 154.235 581.581L155.888 582.635L159.247 577.322C159.038 576.96 158.873 576.814 158.614 576.643Z" fill="#f58400"/>
<path d="M134.02 574.534L135.052 575.626L134.538 576.405L130.46 573.377L130.974 572.598L132.393 573.385L135.421 569.308L130.14 565.448L127.112 569.526L128.143 570.617L127.629 571.396L123.646 568.394L124.161 567.615L125.51 568.282L132.397 558.923L131.34 557.927L131.854 557.148L135.932 560.176L135.418 560.955L134.094 560.193L130.895 564.53L136.176 568.39L139.375 564.052L138.153 562.91L138.668 562.131L142.841 565.184L142.326 565.963L141.003 565.201L134.02 574.534Z" fill="#f58400"/>
<path d="M118.182 564.078L116.606 562.738L121.191 549.809L120.419 548.889L121.003 548.231L124.865 551.303L124.255 552.056L122.957 551.199L121.934 553.879L126.195 557.363L128.656 555.781L127.529 554.665L128.113 554.006L131.551 556.761L130.967 557.419L129.903 556.829L118.182 564.078ZM119.187 561.087L118.564 562.652L119.966 561.602L125.18 558.11L121.508 555.088L119.187 561.087Z" fill="#f58400"/>
<path d="M107.079 553.056L108.389 554.629L107.805 555.287L104.14 551.861L107.901 543.905L109.083 541.777L107.078 543.175L99.4869 547.558L95.891 544.252L96.475 543.594L98.1719 544.863L104.99 535.384L103.914 534.077L104.498 533.419L108.398 537.112L107.814 537.77L106.446 536.793L101.393 543.485L99.197 546.36L101.607 544.969L110.593 539.941L111.486 540.791L107.641 549.438L106.034 552.776L108.724 550.339L115.024 544.693L113.758 543.335L114.342 542.677L117.938 545.983L117.354 546.642L116.081 545.689L107.079 553.056Z" fill="#f58400"/>
<path d="M90.751 539.106L89.3209 537.603L95.445 525.391L94.7929 524.402L95.4719 523.769L98.8959 527.334L98.2179 527.967L96.945 527.015L95.5409 529.593L99.3899 533.476L101.99 532.136L101.009 530.854L101.688 530.221L104.809 533.4L104.13 534.033L103.186 533.373L90.751 539.106ZM92.1359 536.218L91.3229 537.732L92.8639 536.922L98.5209 534.058L95.1659 530.613L92.1359 536.218Z" fill="#f58400"/>
<path d="M84.544 530.72L85.335 531.951L84.656 532.584L83.0169 530.718C82.6879 530.426 82.3839 530.04 82.0549 529.748C81.5609 529.31 81.0919 528.777 80.6939 528.364C79.5229 527.032 78.9219 525.853 78.8919 524.826C78.8609 523.799 79.4009 522.925 80.3719 521.963C81.1459 521.356 81.8939 520.843 82.7309 520.762C83.5929 520.585 84.4739 520.719 85.3029 521.044C86.1329 521.368 86.887 521.977 87.589 522.777C87.823 523.043 88.058 523.309 88.292 523.576C88.526 523.842 88.6649 524.083 88.7599 524.109L91.837 521.368L90.2489 519.313L90.9279 518.68L95.0039 523.235L94.3249 523.868L93.173 522.847L84.544 530.72ZM86.8849 523.504C86.2519 522.826 85.4479 522.406 84.6619 522.298C83.8759 522.189 82.8429 522.625 81.8719 523.587C81.0719 524.29 80.6789 524.999 80.6899 525.715C80.7019 526.431 81.0939 527.249 81.7969 528.049C82.0309 528.315 82.3599 528.607 82.6889 528.899C82.8539 529.045 83.0189 529.191 83.0879 529.312L88.0299 524.932C87.7959 524.665 87.4229 524.158 86.8849 523.504Z" fill="#f58400"/>
<path d="M84.8439 512.874C85.0389 514.047 84.854 515.118 84.264 516.182C83.768 517.271 82.892 518.259 81.826 519.195C80.761 520.132 79.606 520.638 78.434 520.833C77.261 521.028 76.0439 521.007 74.9549 520.512C73.8399 520.111 72.8959 519.451 72.0549 518.41C71.4469 517.637 70.796 516.647 70.195 515.468L69.9419 514.891L72.6249 512.859L73.3969 513.779L71.8869 515.615C71.9309 515.831 71.9499 516.141 72.1329 516.598C72.3419 516.96 72.6199 517.441 72.9929 517.949C73.5309 518.602 74.145 518.971 74.906 519.174C75.666 519.378 76.5029 519.297 77.3899 519.025C78.2779 518.754 79.2419 518.197 80.1619 517.425C81.0819 516.653 81.786 515.925 82.326 515.051C82.865 514.177 83.1899 513.347 83.2029 512.536C83.2169 511.725 82.92 510.932 82.408 510.184C82.034 509.677 81.61 509.359 81.281 509.067C80.952 508.775 80.6659 508.699 80.3559 508.718L78.46 509.33L77.809 508.341L80.098 507.019C80.263 507.165 80.592 507.457 81.016 507.774C81.44 508.091 81.7949 508.288 82.1239 508.58C82.4529 508.872 82.757 509.259 83.251 509.697C84.213 510.668 84.7439 511.727 84.8439 512.874Z" fill="#f58400"/>
<path d="M54.3699 494.319L55.1179 493.807L56.2639 495.234L64.0839 489.996L61.3399 489.974L52.9059 489.14L52.5189 489.443L53.2329 490.959L52.4849 491.471L49.6699 487.152L50.4179 486.64L51.4499 487.731L61.1289 481.259L60.389 479.839L61.1379 479.326L64.048 483.671L63.2989 484.183L62.223 482.876L54.2819 488.184L56.8359 488.156L65.4609 489.041L66.063 488.693L65.2539 487.152L66.0019 486.639L68.9119 490.984L68.1639 491.496L67.158 490.31L57.479 496.782L58.1239 498.177L57.3749 498.689L54.3699 494.319Z" fill="#f58400"/>
<path d="M47.7469 483.683C47.3479 483.271 47.0449 482.884 46.7149 482.592C46.3859 482.3 46.2729 481.964 46.0379 481.697C45.2729 480.372 44.8629 479.243 44.8319 478.217C44.8019 477.19 45.2899 476.506 46.2539 475.949C47.0979 475.462 47.9599 475.286 48.8149 475.515C49.6709 475.744 50.3539 476.233 50.9869 476.912C50.4309 475.948 50.1849 474.965 50.4139 474.11C50.6429 473.255 51.1319 472.571 51.8809 472.058C52.9899 471.337 54.1629 471.142 55.1829 471.517C56.2029 471.893 57.1909 472.768 58.1899 474.36C58.5379 474.963 58.8859 475.565 59.0429 476.117C59.2009 476.668 59.3849 477.125 59.4979 477.461C59.6119 477.797 59.656 478.012 59.63 478.107L56.7199 479.467L56.2329 478.623L58.003 476.958C57.991 476.242 57.6939 475.45 57.1119 474.581C56.6949 473.858 56.1059 473.394 55.5099 473.337C54.9149 473.279 54.0529 473.455 53.2089 473.942C52.5809 474.385 52.1429 474.879 51.8699 475.519C51.6919 476.184 51.8679 477.046 52.4499 477.915L53.1709 479.025L52.3019 479.607L51.7459 478.643C51.4679 478.161 51.1379 477.869 50.7139 477.552C50.2899 477.234 49.8149 477.107 49.3139 477.075C48.8129 477.042 48.2619 477.2 47.6589 477.548C46.9359 477.966 46.5939 478.485 46.4409 479.055C46.3829 479.651 46.5149 480.297 46.9329 481.02C47.2109 481.502 47.5149 481.889 47.8689 482.086C48.1989 482.378 48.4839 482.454 48.6989 482.41L50.3789 481.842L51.0309 482.831L48.6649 484.438C48.4749 484.387 48.2409 484.121 47.7469 483.683Z" fill="#f58400"/>
<path d="M40.4 469.288L40.924 470.753L40.106 471.144L38.8799 468.88C38.6709 468.519 38.3929 468.037 38.0189 467.53C37.6459 467.022 37.4369 466.661 37.2979 466.42C36.4889 464.879 36.1989 463.68 36.2379 462.774C36.3719 461.893 36.8609 461.21 37.8249 460.653C38.6429 460.261 39.4099 460.059 40.1699 460.263C40.9559 460.372 41.64 460.86 42.178 461.514C41.647 460.455 41.4009 459.472 41.6299 458.617C41.8589 457.762 42.348 457.078 43.286 456.616C44.371 455.99 45.518 455.89 46.607 456.386C47.722 456.786 48.754 457.878 49.772 459.78C49.981 460.142 50.164 460.598 50.373 460.96C50.765 461.778 51.0179 462.355 51.1819 462.501L52.3389 464.644L51.521 465.036L50.636 463.78L40.4 469.288ZM43.398 464.183L42.9359 463.245C42.5189 462.522 42.05 461.989 41.385 461.811C40.72 461.632 40.0729 461.765 39.2549 462.157C38.5319 462.574 37.999 463.042 37.847 463.613C37.694 464.183 37.896 464.95 38.357 465.888C38.566 466.25 38.844 466.732 39.053 467.093L39.262 467.455L43.885 465.027C43.885 465.027 43.676 464.665 43.398 464.183ZM49.049 460.197C48.423 459.113 47.79 458.434 47.055 458.135C46.32 457.837 45.579 457.943 44.735 458.43C43.892 458.917 43.359 459.386 43.276 460.076C43.193 460.767 43.299 461.509 43.856 462.473C44.482 463.557 44.804 464.255 45.013 464.616L49.903 461.954C49.764 461.713 49.511 461.136 49.049 460.197Z" fill="#f58400"/>
<path d="M31.8989 455.398L30.9759 453.521L40.5889 443.874L40.2729 442.771L41.091 442.379L43.2599 446.831L42.4419 447.223L41.5819 445.872L39.424 447.84L41.7759 452.748L44.6479 452.295L44.1489 450.736L44.9669 450.344L46.8569 454.313L46.0389 454.705L45.3869 453.716L31.8989 455.398ZM34.063 453.024L32.7309 454.195L34.4549 453.842L40.6989 452.969L38.5999 448.638L34.063 453.024Z" fill="#f58400"/>
<path d="M39.2759 439.652C39.0909 440.723 38.5949 441.812 37.8649 442.635C37.1359 443.458 35.9999 444.275 34.7259 444.85C33.4509 445.425 32.1829 445.595 30.9919 445.479C29.8009 445.364 28.6856 444.963 27.7421 444.303C26.7985 443.643 26.0519 442.628 25.5463 441.474C25.1798 440.561 24.8642 439.457 24.5996 438.164L24.4673 437.518L27.6376 436.33L28.1432 437.484L26.1388 438.882C26.0879 439.072 26.081 439.478 26.1692 439.909C26.2575 440.34 26.4152 440.892 26.668 441.469C26.9904 442.166 27.4333 442.794 28.1426 443.188C28.852 443.582 29.6119 443.785 30.5439 443.729C31.4759 443.673 32.5529 443.453 33.7069 442.947C34.7409 442.511 35.7049 441.955 36.5039 441.252C37.3039 440.55 37.7929 439.866 38.0219 439.011C38.3459 438.181 38.2649 437.344 37.8729 436.526C37.6199 435.949 37.3419 435.467 37.1069 435.201C36.8729 434.934 36.6389 434.668 36.2589 434.566L34.2309 434.532L33.9149 433.428L36.5269 432.804C36.6659 433.045 36.8749 433.407 37.1789 433.794C37.4829 434.181 37.8119 434.473 38.0199 434.834C38.2289 435.196 38.5069 435.677 38.7599 436.255C39.2659 437.409 39.4609 438.581 39.2759 439.652Z" fill="#f58400"/>
<path d="M23.0851 427.47C22.0143 427.285 21.02 426.815 20.2665 426.206C19.5131 425.597 18.9309 424.728 18.5899 423.72C18.1793 422.591 18.0538 421.539 18.3339 420.493C18.614 419.448 19.0587 418.549 19.8581 417.846C20.683 417.049 21.647 416.492 22.8961 416.012C24.3607 415.488 25.6284 415.318 26.8452 415.338C28.0365 415.454 29.152 415.855 30 416.489C30.849 417.124 31.5259 418.019 31.9619 419.052C32.3719 420.181 32.472 421.328 32.287 422.399C32.102 423.47 31.5619 424.343 30.7379 425.141C29.9129 425.939 28.9232 426.59 27.6741 427.07L28.7481 429.905L33.8389 428.009L33.4609 426.38L34.3489 426.109L36.1049 430.959L35.2169 431.231L34.4769 429.81L23.6225 433.828L23.9313 435.336L23.0437 435.608L21.2622 430.853L22.1499 430.581L22.8897 432.002L27.6449 430.22L26.5709 427.386C25.3728 427.676 24.1305 427.751 23.0851 427.47ZM21.9466 425.638C23.182 425.969 24.7604 425.78 26.707 424.978C28.4126 424.314 29.643 423.524 30.424 422.511C31.205 421.497 31.3899 420.427 30.9789 419.298C30.5679 418.169 29.7199 417.535 28.5794 417.229C27.439 416.924 25.8352 417.207 23.9141 417.914C22.2085 418.578 20.9781 419.368 20.2228 420.287C19.442 421.3 19.2824 422.275 19.693 423.404C19.9831 424.602 20.8061 425.332 21.9466 425.638Z" fill="#f58400"/>
<path d="M21.2912 406.415C21.7801 405.731 22.4148 404.883 23.2906 403.895C23.8745 403.237 24.3124 402.743 24.6297 402.319C24.9217 401.989 24.9981 401.704 25.049 401.514L25.0372 400.798L25.9247 400.527L26.6509 402.758C26.7901 402.999 26.5677 403.449 26.2503 403.873C25.9075 404.392 25.3236 405.051 24.4988 405.848C23.623 406.836 22.9186 407.564 22.4553 408.153C21.9919 408.742 21.8646 409.217 21.9783 409.553L22.2939 410.656L27.4039 409.071L27.1461 407.373L28.0337 407.101L29.5739 411.996L28.6866 412.267L28.0418 410.872L16.9342 414.313L17.1479 415.796L16.2603 416.067L14.7893 411.294L15.677 411.022L16.3217 412.417L21.4317 410.832L20.9329 409.273L14.6421 407.282L14.9253 408.885L14.0378 409.157L12.6805 404.719L13.5681 404.447L14.2383 405.747L20.6684 407.98C20.5547 407.644 20.8279 407.004 21.2912 406.415Z" fill="#f58400"/>
<path d="M24.2807 397.539C23.9056 398.559 23.2708 399.408 22.3764 400.085C21.482 400.762 20.3025 401.363 18.9838 401.722C17.5701 402.056 16.3279 402.131 15.162 401.92C13.9962 401.71 13.0272 401.145 12.2041 400.415C11.3811 399.685 10.8246 398.721 10.5345 397.523C10.017 395.653 10.2344 394.081 11.212 392.714C12.1642 391.441 13.6356 390.511 15.7214 389.949C17.1351 389.615 18.4724 389.566 19.6382 389.777C20.8041 389.987 21.8681 390.578 22.6911 391.308C23.5141 392.037 24.0707 393.001 24.3608 394.2C24.6509 395.398 24.6559 396.52 24.2807 397.539ZM13.6247 399.675C14.8347 400.101 16.3875 400.008 18.3527 399.516C20.1975 399.094 21.523 398.328 22.3733 397.436C23.2236 396.543 23.5291 395.403 23.2136 394.3C22.9235 393.102 22.1005 392.372 20.8905 391.946C19.6805 391.52 18.0326 391.587 16.0674 392.079C14.2227 392.502 12.8972 393.267 12.0469 394.16C11.1966 395.052 10.9165 396.097 11.2066 397.296C11.7122 398.45 12.5097 399.275 13.6247 399.675Z" fill="#f58400"/>
<path d="M9.43044 387.958L9.52364 389.511L8.66154 389.688L8.10685 387.196C8.01865 386.765 7.86085 386.214 7.70305 385.662C7.54535 385.11 7.36204 384.654 7.34334 384.343C6.99054 382.619 7.01104 381.402 7.33524 380.572C7.65944 379.743 8.40795 379.23 9.39055 378.984C10.2526 378.808 11.0383 378.916 11.7731 379.215C12.4825 379.609 13.0459 380.167 13.4378 380.985C13.1477 379.787 13.1868 378.881 13.6061 378.077C14.0253 377.272 14.7738 376.76 15.7309 376.609C16.9291 376.319 18.095 376.529 19.013 377.285C19.9565 377.945 20.6963 379.365 21.0933 381.305C21.1815 381.736 21.2697 382.167 21.2629 382.573C21.4138 383.53 21.5716 384.081 21.6157 384.297L22.1959 386.693L21.3338 386.87L20.8095 385.405L9.43044 387.958ZM13.6752 383.901L13.4292 382.918C13.2527 382.056 12.9049 381.454 12.2906 381.085C11.7713 380.743 10.9856 380.634 10.098 380.905C9.23594 381.082 8.63344 381.43 8.38564 381.974C8.13774 382.519 8.02905 383.305 8.24965 384.382C8.33785 384.814 8.42604 385.245 8.60924 385.701L8.72294 386.037L13.8007 384.953C13.8516 384.763 13.7379 384.427 13.6752 383.901ZM20.1107 381.551C19.8206 380.353 19.4286 379.535 18.7447 379.046C18.1559 378.583 17.3701 378.474 16.3875 378.72C15.4304 378.871 14.8024 379.314 14.5546 379.859C14.2117 380.378 14.1726 381.284 14.3931 382.362C14.6832 383.56 14.8597 384.422 14.9733 384.758L20.3871 383.56C20.4635 383.275 20.3312 382.629 20.1107 381.551Z" fill="#f58400"/>
<path d="M2.96875 359.235L3.92595 359.084L4.42474 360.643L15.9106 358.832L15.8683 357.089L16.8255 356.938L17.6685 362.155L16.7113 362.306L16.3075 360.772L4.82165 362.583L5.77155 368.542L17.3524 366.756L17.3102 365.013L18.2673 364.862L19.0154 370.053L18.0581 370.204L17.6289 368.765L6.14294 370.576L6.11575 372.199L5.15855 372.35L2.96875 359.235Z" fill="#f58400"/>
<path d="M15.6006 353.147C15.1559 354.046 14.3312 354.844 13.3672 355.4C12.4032 355.957 11.1794 356.342 9.72175 356.461C8.26395 356.579 6.97755 356.438 5.86265 356.038C4.74765 355.637 3.80415 354.977 3.12705 354.083C2.45005 353.188 2.01395 352.155 1.91395 351.007C1.70705 349.119 2.13995 347.503 3.25675 346.376C4.37355 345.249 5.98415 344.561 8.18355 344.335C9.64135 344.216 10.9276 344.357 12.0426 344.758C13.1575 345.159 14.101 345.819 14.8731 346.739C15.5501 347.633 15.9863 348.667 16.0863 349.814C16.2305 351.177 16.0453 352.247 15.6006 353.147ZM4.75635 353.704C5.91535 354.32 7.41725 354.417 9.49615 354.261C11.385 354.054 12.7291 353.6 13.7695 352.758C14.7844 352.011 15.2546 351.017 15.085 349.749C14.9849 348.602 14.308 347.708 13.1489 347.092C11.9899 346.475 10.393 346.353 8.40905 346.534C6.52015 346.741 5.08104 347.171 4.13564 348.038C3.12074 348.784 2.74565 349.804 2.91525 351.072C2.98975 352.314 3.66685 353.209 4.75635 353.704Z" fill="#f58400"/>
<path d="M9.69275 338.322C11.3846 338.47 12.7406 338.732 13.64 339.176C14.0897 339.399 14.4189 339.691 14.653 339.957C14.8617 340.319 14.9754 340.655 15.0636 341.086C15.1009 341.707 15.0941 342.113 15.0177 342.398L13.5344 342.611C13.5158 342.301 13.5226 341.895 13.5108 341.179C13.4667 340.963 13.4226 340.748 13.258 340.602C13.0934 340.456 12.9288 340.31 12.6692 340.139C11.1554 339.326 8.08215 339.011 3.51865 339.316L2.06084 339.435L2.00135 341.558L1.06965 341.614L0.391747 330.839L1.32345 330.783L1.67625 332.508L13.2876 331.748L13.3658 329.936L14.2975 329.88L14.7026 335.591L13.771 335.647L13.469 333.732L1.88315 334.396L2.08134 338.218L3.72925 338.151C6.06775 338.166 8.00075 338.175 9.69275 338.322Z" fill="#f58400"/>
<path d="M1.52405 327.374L1.30665 328.945L0.374947 329.001L0.177246 319.476L3.11825 319.143L3.14875 320.17L1.37354 320.713L1.34254 325.39L6.57124 325.263L6.47995 322.183L4.90845 321.966L4.87794 320.939L9.17495 320.868L9.20535 321.895L7.60165 322.178L7.57255 325.328L13.1117 325.182L12.7948 319.903L10.4004 318.956L10.7059 317.815L13.9439 318.275L14.128 328.612L13.1964 328.668L13.008 327.09L1.52405 327.374Z" fill="#f58400"/>
<path d="M1.30795 311.834L1.37385 315.009L5.25165 315.743L5.23115 316.959L0.250244 316.541L0.517746 304.9L5.53085 304.817L5.51044 306.034L1.58675 306.612L1.43715 309.831L13.1994 310.029L13.4118 307.336L14.318 307.375L14.1511 314.46L13.2449 314.421L13.0957 311.937L1.30795 311.834Z" fill="#f58400"/>
<path d="M8.73395 297.425L8.69495 298.331C8.90365 298.692 9.23285 298.984 9.84715 299.353C10.3663 299.695 11.0757 300.089 11.9751 300.534C12.8745 300.979 13.4888 301.347 13.9385 301.569C14.3882 301.792 14.6224 302.058 14.5715 302.248L14.4101 304.751L13.5038 304.712L13.397 303.971C13.3528 303.755 13.1882 303.609 12.9541 303.343C12.5994 303.146 12.1751 302.828 11.4913 302.34C10.6869 301.92 10.0982 301.457 9.57885 301.114C9.05955 300.771 8.75585 300.384 8.54715 300.023C8.22285 300.853 7.75955 301.442 7.01105 301.954C6.28805 302.371 5.52105 302.573 4.51975 302.509C3.01785 302.412 2.02345 301.942 1.46685 300.978C0.910351 300.014 0.740746 298.746 0.863046 297.149C0.869846 296.743 0.971651 296.363 1.02945 295.768C1.08725 295.172 1.21455 294.697 1.19585 294.386L1.40825 291.693L2.31445 291.732L2.40765 293.285L14.0173 294.053L14.2855 292.292L15.1918 292.331L14.8366 297.838L13.9304 297.798L13.9135 295.961L8.90725 295.638L8.73395 297.425ZM1.96114 295.712C1.80834 296.282 1.77605 296.783 1.76925 297.188C1.70465 298.189 1.81155 298.931 2.27985 299.464C2.74825 299.997 3.38795 300.27 4.48425 300.36C5.48555 300.425 6.25265 300.223 6.88065 299.78C7.50855 299.337 7.71225 298.577 7.87185 297.601C7.93645 296.6 7.99424 296.004 7.90604 295.573L2.20895 295.167L1.96114 295.712Z" fill="#f58400"/>
<path d="M2.90555 284.964L2.66095 288.158L6.46225 289.177L6.34675 290.368L1.37275 289.544L2.64145 277.967L7.64774 278.29L7.53225 279.481L3.61545 279.654L3.15524 282.892L14.8275 284.186L15.3251 281.569L16.2057 281.704L15.4177 288.826L14.5369 288.692L14.5779 286.258L2.90555 284.964Z" fill="#f58400"/>
<path d="M17.0299 271.026C16.3001 271.849 15.3106 272.5 14.2075 272.816C13.1044 273.131 11.7671 273.181 10.4112 272.919C9.05524 272.658 7.84524 272.232 6.92724 271.476C6.00914 270.721 5.23714 269.801 4.82654 268.673C4.41594 267.544 4.31585 266.397 4.55185 265.136C4.71145 264.16 5.01704 263.02 5.53814 261.835L5.78595 261.29L9.06804 261.966L8.83204 263.227L6.37304 263.281C6.22704 263.446 6.05564 263.705 5.83324 264.155C5.63634 264.51 5.48355 265.08 5.42585 265.676C5.31715 266.461 5.42404 267.203 5.74634 267.9C6.06874 268.598 6.63215 269.156 7.50605 269.696C8.28505 270.21 9.33034 270.49 10.5912 270.726C11.7571 270.937 12.7838 270.907 13.836 270.781C14.7932 270.63 15.7062 270.264 16.3597 269.726C17.0131 269.188 17.4069 268.478 17.5665 267.503C17.6497 266.812 17.682 266.311 17.6633 266.001C17.6447 265.69 17.531 265.354 17.3223 264.993L15.6694 263.939L15.975 262.798L18.49 263.676C18.4136 263.961 18.5273 264.297 18.59 264.823C18.6782 265.254 18.6459 265.755 18.7342 266.186C18.8224 266.617 18.695 267.092 18.6118 267.783C18.2808 269.018 17.7852 270.108 17.0299 271.026Z" fill="#f58400"/>
<path d="M6.79635 253.718L7.67715 253.852L7.50385 255.639L16.6594 257.583L14.735 255.642L9.38145 249.013L8.90625 248.885L8.37835 250.475L7.49754 250.341L8.53654 245.323L9.41734 245.457L9.32055 246.959L20.6872 249.394L21.1897 247.899L22.045 248.128L20.9805 253.241L20.1252 253.012L20.273 251.32L10.9274 249.325L12.7822 251.146L18.2053 257.896L18.8706 258.074L19.424 256.389L20.3047 256.523L19.2402 261.636L18.3595 261.502L18.4818 259.905L7.11504 257.471L6.63815 258.871L5.75735 258.736L6.79635 253.718Z" fill="#f58400"/>
<path d="M11.3767 233.963L16.1793 235.046L15.8483 236.281L12.0842 235.884L10.9197 239.85L22.3747 242.715L23.4051 239.63L24.2604 239.86L22.471 246.917L21.6157 246.688L21.9604 244.642L10.6955 241.827L9.99625 243.677L9.14095 243.448L11.3767 233.963Z" fill="#f58400"/>
<path d="M13.3574 231.132L12.6903 232.482L11.835 232.252L13.3492 227.362L14.2045 227.591L13.9872 229.162L18.783 230.651L20.6791 224.335L15.8833 222.846L15.2163 224.195L14.361 223.966L15.8497 219.17L16.705 219.399L16.5131 220.876L27.6252 224.261L28.1973 222.886L29.0529 223.115L27.5639 227.911L26.7085 227.682L27.021 226.136L21.845 224.545L19.9488 230.861L25.1247 232.452L25.7222 230.982L26.5775 231.212L25.0633 236.103L24.208 235.873L24.495 234.422L13.3574 231.132Z" fill="#f58400"/>
<path d="M17.8918 212.689L18.6166 210.744L32.2679 210.735L32.8589 209.671L33.688 209.996L32.035 214.645L31.2049 214.321L31.5179 212.775L28.5833 212.702L26.8027 217.827L29.0889 219.56L29.7809 218.116L30.6109 218.44L29.1799 222.64L28.35 222.316L28.5605 221.15L17.8918 212.689ZM21.162 212.649L19.4701 212.501L20.9329 213.504L25.9287 217.287L27.5311 212.827L21.162 212.649Z" fill="#f58400"/>
<path d="M30.7869 203.718C32.2749 204.626 33.3829 205.432 33.9909 206.206C34.2949 206.593 34.4779 207.049 34.5919 207.385C34.6799 207.816 34.5779 208.197 34.4759 208.577C34.2279 209.121 34.0309 209.476 33.8599 209.736L32.4599 209.259C32.6309 208.999 32.759 208.524 33.007 207.979C33.057 207.789 33.1339 207.504 33.0639 207.383C33.0199 207.168 32.8809 206.927 32.7419 206.686C31.6919 205.284 29.0699 203.665 24.8254 202.018L23.4508 201.446L22.4409 203.315L21.611 202.99L25.622 192.963L26.452 193.287L25.9935 194.998L36.7559 199.307L37.5949 197.699L38.424 198.023L36.2819 203.357L35.452 203.032L35.9619 201.132L25.1992 196.822L23.7563 200.306L25.321 200.929C27.4745 202.015 29.2989 202.81 30.7869 203.718Z" fill="#f58400"/>
<path d="M33.7969 187.922C34.4639 186.573 35.2199 185.655 36.2529 185.218C37.2869 184.782 38.2879 184.847 39.4719 185.368C40.7269 186.01 41.6189 186.86 41.9089 188.058C42.2249 189.161 42.0839 190.448 41.4169 191.797C41.3659 191.987 41.2199 192.151 41.1689 192.342C41.0229 192.506 40.9719 192.696 40.8009 192.956C40.4319 193.57 40.1839 194.115 39.9369 194.66L38.9199 196.934L38.1159 196.514L38.6179 195.019L28.0337 190.044L27.1766 191.342L26.3722 190.923L28.5771 186.116L29.382 186.535L28.8026 188.315L32.6849 190.17L33.7969 187.922ZM33.7999 174.987L34.6039 175.406L34.0509 177.091L44.5399 182.041L45.4479 180.552L46.2529 180.972L43.9019 185.944L43.0969 185.525L43.6509 183.839L33.1619 178.89L32.2539 180.378L31.4489 179.959L33.7999 174.987ZM39.9709 192.632C40.1169 192.467 40.2189 192.087 40.4149 191.732C40.8599 190.833 40.8989 189.927 40.6019 189.134C40.3049 188.341 39.6469 187.758 38.6529 187.287C37.7529 186.843 36.8469 186.804 36.1749 187.031C35.4769 187.353 34.9189 187.917 34.4739 188.816L33.7049 190.545L39.4119 193.195C39.6529 193.056 39.8249 192.796 39.9709 192.632Z" fill="#f58400"/>
<path d="M38.8599 167.888L37.9329 169.066L37.1289 168.647L39.6369 164.226L40.4419 164.645L39.8439 166.115L44.2899 168.528L47.466 162.759L43.0199 160.345L42.0929 161.523L41.2889 161.104L43.6769 156.752L44.4809 157.172L44.0039 158.572L54.1949 164.256L55.1209 163.078L55.9259 163.498L53.5119 167.944L52.7079 167.525L53.3049 166.055L48.5039 163.444L45.3289 169.214L50.1299 171.825L51.1069 170.457L51.9119 170.876L49.3769 175.392L48.5729 174.973L49.1449 173.598L38.8599 167.888Z" fill="#f58400"/>
<path d="M47.2839 150.894L48.3629 149.147L61.7259 152.116L62.4809 151.198L63.2599 151.712L60.6119 155.892L59.8329 155.377L60.5259 153.933L57.6749 153.169L54.8039 157.799L56.6519 160.025L57.6999 158.778L58.4779 159.292L56.1479 163.048L55.3689 162.534L55.8649 161.444L47.2839 150.894ZM50.3759 151.519L48.7599 151.086L49.9559 152.324L54.0759 157.094L56.5779 153.079L50.3759 151.519Z" fill="#f58400"/>
<path d="M56.8489 138.383L55.5099 139.959L54.7309 139.445L57.639 135.437L65.9699 138.178L68.2689 139.1L66.63 137.235L61.283 130.2L64.1899 126.192L64.9689 126.706L63.9849 128.479L74.3209 133.999L75.4629 132.777L76.242 133.291L73.0169 137.724L72.2389 137.21L73.0519 135.696L65.7239 131.492L62.5319 129.72L64.285 131.921L70.4219 140.186L69.7369 141.225L60.6899 138.495L57.13 137.337L59.8579 139.698L66.2339 145.175L67.4269 143.763L68.2059 144.278L65.419 148.216L64.6399 147.702L65.4269 146.283L56.8489 138.383Z" fill="#f58400"/>
<path d="M68.557 120.538L69.8009 118.936L82.7559 123.426L83.5809 122.628L84.335 123.237L81.2629 127.1L80.5089 126.49L81.3659 125.192L78.6869 124.168L75.2969 128.455L76.904 130.821L78.0209 129.694L78.7749 130.303L76.02 133.741L75.266 133.132L75.8569 132.068L68.557 120.538ZM71.5729 121.447L70.0079 120.825L71.059 122.226L74.5509 127.44L77.477 123.742L71.5729 121.447Z" fill="#f58400"/>
<path d="M76.1009 113.29L74.9409 114.201L74.1869 113.592L75.8179 111.686C76.1099 111.357 76.4019 111.028 76.5989 110.673C77.0369 110.179 77.3799 109.66 77.8179 109.166C78.9849 107.85 80.1209 107.033 81.0779 106.882C82.0349 106.731 83.055 107.107 84.042 107.982C84.796 108.592 85.3079 109.34 85.5799 110.228C85.8509 111.115 85.8379 111.926 85.6079 112.782C85.3789 113.637 84.9349 114.537 84.2299 115.264C83.9639 115.499 83.7669 115.853 83.4999 116.088C83.2339 116.322 83.088 116.486 83.063 116.581L86.2149 119.26L88.0109 117.5L88.6699 118.084L84.6779 122.718L84.0189 122.134L84.876 120.836L76.1009 113.29ZM83.572 114.681C84.181 113.927 84.5049 113.097 84.4239 112.261C84.3429 111.424 83.856 110.581 82.798 109.584C81.975 108.854 81.2409 108.556 80.4989 108.663C79.7569 108.769 79.129 109.212 78.279 110.105C77.987 110.434 77.7899 110.789 77.4979 111.118C77.3269 111.378 77.2059 111.447 77.1809 111.542L82.2389 115.852C82.5759 115.738 82.988 115.339 83.572 114.681Z" fill="#f58400"/>
<path d="M93.9379 111.347C92.8349 111.662 91.7379 111.572 90.5979 111.267C89.4829 110.866 88.4189 110.275 87.3619 109.279C86.3999 108.308 85.6529 107.293 85.2679 106.07C84.8569 104.941 84.8779 103.724 85.0879 102.559C85.3939 101.418 85.8899 100.329 86.8349 99.462C87.5389 98.734 88.3389 98.031 89.5689 97.24L90.0759 96.867L92.3739 99.316L91.5239 100.209L89.4209 98.932C89.2059 98.976 88.8699 99.09 88.5079 99.299C88.1469 99.507 87.7339 99.906 87.3219 100.305C86.7629 100.868 86.4649 101.603 86.3809 102.294C86.2729 103.08 86.4749 103.847 86.8409 104.76C87.2329 105.578 87.9099 106.472 88.8029 107.323C89.5999 108.147 90.5689 108.713 91.4689 109.157C92.3679 109.602 93.2489 109.736 94.0859 109.655C94.9219 109.573 95.6449 109.156 96.3239 108.523C96.7619 108.029 97.0789 107.605 97.2509 107.345C97.4219 107.086 97.5239 106.706 97.5049 106.395L96.6769 104.543L97.5969 103.771L99.2549 105.947C99.1089 106.112 98.9119 106.466 98.6639 107.011C98.4419 107.461 98.2449 107.815 98.0479 108.17C97.8509 108.525 97.5339 108.949 97.0959 109.443C96.0299 110.38 94.9459 111.006 93.9379 111.347Z" fill="#f58400"/>
<path d="M105.007 81.82L105.64 82.499L104.447 83.911L110.725 90.89L110.342 88.139L109.959 79.684L109.655 79.297L108.279 80.253L107.646 79.574L111.522 76.131L112.155 76.809L111.229 77.987L118.982 86.685L120.238 85.8L120.871 86.478L116.994 89.921L116.361 89.243L117.504 88.021L111.156 80.921L111.59 83.482L111.922 92.127L112.39 92.66L113.792 91.61L114.425 92.289L110.523 95.827L109.89 95.148L110.912 93.996L103.159 85.297L101.928 86.088L101.295 85.409L105.007 81.82Z" fill="#f58400"/>
<path d="M114.688 73.821C115.005 73.397 115.323 72.973 115.614 72.644C115.906 72.314 116.173 72.08 116.439 71.846C117.626 70.84 118.78 70.334 119.737 70.183C120.694 70.032 121.498 70.451 122.201 71.251C122.808 72.025 123.105 72.817 122.971 73.698C122.837 74.579 122.538 75.314 121.929 76.067C122.823 75.39 123.736 75.024 124.617 75.158C125.523 75.197 126.233 75.591 126.84 76.365C127.682 77.405 127.997 78.508 127.812 79.579C127.627 80.65 126.821 81.758 125.394 82.903C124.861 83.372 124.258 83.719 123.776 83.998C123.294 84.276 122.838 84.459 122.502 84.573C122.166 84.687 121.95 84.731 121.925 84.826L120.109 82.098L120.883 81.491L122.814 83.027C123.461 82.895 124.279 82.503 125.078 81.8C125.732 81.262 126.1 80.648 126.063 80.027C126.051 79.311 125.823 78.638 125.121 77.839C124.678 77.211 124.064 76.843 123.373 76.76C122.682 76.676 121.89 76.973 120.995 77.65L119.955 78.492L119.253 77.693L120.052 76.99C120.439 76.686 120.756 76.262 120.979 75.812C121.201 75.363 121.328 74.888 121.266 74.361C121.203 73.835 120.925 73.353 120.551 72.846C120.013 72.193 119.494 71.85 118.873 71.887C118.252 71.924 117.675 72.177 117.047 72.62C116.634 73.019 116.342 73.348 116.05 73.677C115.759 74.006 115.777 74.317 115.821 74.532L116.631 76.073L115.711 76.846L113.742 74.688C113.983 74.549 114.275 74.22 114.688 73.821Z" fill="#f58400"/>
<path d="M127.875 64.521L126.454 65.261L125.942 64.512L127.972 63.019C128.333 62.81 128.745 62.411 129.253 62.038C129.665 61.639 130.052 61.336 130.293 61.196C131.695 60.146 132.849 59.64 133.755 59.679C134.662 59.719 135.466 60.138 136.074 60.912C136.586 61.66 136.788 62.427 136.774 63.239C136.761 64.05 136.367 64.759 135.783 65.417C136.703 64.645 137.685 64.399 138.592 64.439C139.498 64.478 140.277 64.992 140.789 65.74C141.536 66.755 141.756 67.833 141.546 68.999C141.335 70.165 140.314 71.317 138.645 72.601C138.258 72.905 137.897 73.114 137.535 73.323C136.692 73.81 136.279 74.208 136.064 74.252L134.034 75.746L133.522 74.997L134.613 73.965L127.875 64.521ZM133.278 66.783L134.147 66.201C134.895 65.689 135.264 65.075 135.321 64.479C135.379 63.883 135.177 63.116 134.665 62.368C134.152 61.619 133.633 61.276 133.037 61.219C132.442 61.161 131.649 61.458 130.875 62.065C130.488 62.369 130.127 62.578 129.835 62.907L129.568 63.141L132.625 67.321C132.529 67.296 132.891 67.087 133.278 66.783ZM138.063 71.732C139.078 70.986 139.687 70.232 139.796 69.447C139.905 68.661 139.703 67.894 139.19 67.145C138.583 66.371 137.994 65.908 137.398 65.85C136.708 65.767 136.01 66.09 135.116 66.767C134.101 67.513 133.473 67.956 133.207 68.19L136.471 72.732C136.687 72.688 137.194 72.314 138.063 71.732Z" fill="#f58400"/>
<path d="M140.436 54.136L142.174 52.972L153.109 61.198L154.168 60.667L154.68 61.416L150.577 64.187L150.064 63.438L151.25 62.432L148.99 60.604L144.404 63.653L145.193 66.411L146.614 65.671L147.126 66.42L143.409 68.887L142.897 68.138L143.722 67.341L140.436 54.136ZM143.102 55.971L141.759 54.898L142.328 56.578L144.063 62.645L148.021 60.039L143.102 55.971Z" fill="#f58400"/>
<path d="M157.009 59.188C155.887 59.193 154.867 58.818 153.803 58.227C152.86 57.567 151.992 56.621 151.202 55.391C150.506 54.186 150.121 52.962 150.021 51.815C149.921 50.668 150.252 49.432 150.817 48.463C151.408 47.399 152.233 46.602 153.343 45.881C154.186 45.394 155.22 44.958 156.564 44.503L157.141 44.25L158.69 47.212L157.605 47.838L155.941 46.068C155.751 46.017 155.415 46.13 154.984 46.219C154.553 46.307 154.071 46.585 153.589 46.863C152.866 47.281 152.402 47.87 152.129 48.509C151.83 49.244 151.722 50.03 151.872 50.987C152.023 51.944 152.46 52.978 153.111 53.967C153.763 54.957 154.44 55.851 155.193 56.46C155.947 57.07 156.751 57.489 157.606 57.718C158.462 57.947 159.229 57.745 160.072 57.258C160.675 56.911 161.062 56.607 161.233 56.347C161.5 56.113 161.696 55.758 161.773 55.473L161.496 53.464L162.555 52.933L163.516 55.431C163.275 55.57 163.008 55.804 162.691 56.228C162.399 56.558 162.107 56.887 161.72 57.191C161.428 57.52 160.946 57.798 160.464 58.076C159.329 58.893 158.131 59.183 157.009 59.188Z" fill="#f58400"/>
<path d="M166.758 41.429C166.848 40.332 167.128 39.287 167.668 38.413C168.208 37.539 168.887 36.906 169.851 36.35C170.935 35.724 172.013 35.503 173.014 35.568C174.015 35.632 175.035 36.007 175.858 36.737C176.681 37.467 177.453 38.387 178.175 39.497C178.94 40.822 179.299 42.141 179.374 43.383C179.449 44.625 179.264 45.696 178.698 46.665C178.133 47.634 177.429 48.362 176.465 48.919C175.38 49.545 174.303 49.765 173.206 49.675C172.205 49.611 171.185 49.236 170.337 48.601C169.488 47.966 168.621 47.021 168.02 45.841L165.395 47.277L167.988 52.046L169.478 51.426L169.87 52.244L165.342 54.698L164.95 53.88L166.206 52.994L160.698 42.759L159.233 43.283L158.746 42.439L163.154 40.055L163.641 40.899L162.385 41.785L164.769 46.192L167.489 44.782C166.958 43.723 166.738 42.645 166.758 41.429ZM168.522 40.17C168.381 41.456 168.784 42.99 169.828 44.798C170.732 46.364 171.644 47.525 172.803 48.141C173.962 48.757 174.963 48.822 176.142 48.221C177.201 47.69 177.767 46.721 177.787 45.504C177.808 44.287 177.404 42.753 176.455 40.971C175.551 39.405 174.64 38.244 173.576 37.653C172.512 37.063 171.415 36.973 170.356 37.504C169.297 38.035 168.663 38.883 168.522 40.17Z" fill="#f58400"/>
<path d="M187.481 36.694C188.191 37.088 189.065 37.628 190.224 38.244C191.003 38.758 191.522 39.101 191.972 39.323C192.421 39.545 192.611 39.596 192.827 39.552L193.569 39.445L193.961 40.263L191.868 41.231C191.627 41.37 191.247 41.268 190.702 41.02C190.157 40.772 189.474 40.283 188.53 39.623C187.517 38.842 186.643 38.303 186.029 37.934C185.414 37.566 184.914 37.534 184.578 37.647L183.519 38.179L185.801 42.966L187.361 42.467L187.752 43.285L183.085 45.498L182.693 44.68L184.019 43.915L179.088 33.426L177.649 33.856L177.257 33.038L181.804 30.895L182.196 31.713L180.845 32.573L183.101 37.456L184.522 36.716L185.658 30.196L184.098 30.695L183.706 29.877L187.891 27.9422L188.283 28.7603L187.053 29.551L185.676 36.21C186.081 36.217 186.747 36.395 187.481 36.694Z" fill="#f58400"/>
<path d="M196.688 38.448C195.617 38.263 194.743 37.723 193.946 36.898C193.148 36.073 192.401 35.059 191.852 33.689C191.302 32.319 191.012 31.121 191.127 29.93C191.243 28.7385 191.523 27.6932 192.183 26.7496C192.843 25.8061 193.738 25.1291 194.771 24.693C196.597 23.96 198.125 23.9619 199.569 24.6544C201.013 25.3469 202.159 26.7743 202.961 28.7209C203.511 30.09 203.775 31.384 203.66 32.575C203.544 33.766 203.239 34.907 202.579 35.85C201.918 36.794 201.024 37.471 199.99 37.907C198.811 38.508 197.759 38.633 196.688 38.448ZM193.088 28.3161C192.852 29.577 193.16 31.086 193.868 33.007C194.626 34.738 195.512 35.994 196.551 36.68C197.564 37.46 198.66 37.55 199.814 37.045C200.943 36.634 201.603 35.691 201.839 34.43C202.075 33.169 201.792 31.565 200.964 29.713C200.205 27.9824 199.319 26.7265 198.281 26.0408C197.242 25.3551 196.171 25.17 195.017 25.6756C193.958 26.2067 193.324 27.0552 193.088 28.3161Z" fill="#f58400"/>
<path d="M204.046 22.3907L202.537 22.6994L202.266 21.8119L204.644 20.9211C205.075 20.8329 205.557 20.5546 206.134 20.3018C206.711 20.049 207.072 19.8403 207.383 19.8216C208.968 19.2278 210.236 19.0582 211.091 19.2874C211.946 19.5166 212.605 20.1004 212.946 21.1085C213.243 21.9011 213.324 22.7377 213.025 23.4725C212.727 24.2073 212.238 24.8912 211.515 25.3086C212.643 24.898 213.575 24.8421 214.43 25.0713C215.286 25.3005 215.919 25.9793 216.26 26.9874C216.67 28.116 216.65 29.333 216.085 30.302C215.494 31.366 214.238 32.252 212.317 32.959C211.86 33.142 211.524 33.256 211.093 33.344C210.206 33.616 209.629 33.868 209.413 33.913L207.035 34.803L206.738 34.011L208.159 33.271L204.046 22.3907ZM208.662 26.072L209.67 25.731C210.463 25.4341 210.995 24.9658 211.269 24.326C211.542 23.6862 211.53 22.9701 211.138 22.152C210.841 21.3595 210.373 20.8266 209.828 20.5787C209.284 20.3309 208.447 20.4123 207.439 20.7533C206.982 20.9366 206.621 21.1453 206.164 21.3285L205.803 21.5372L207.654 26.4131C207.774 26.3435 208.11 26.2298 208.662 26.072ZM211.83 32.116C212.958 31.705 213.732 31.098 214.126 30.388C214.52 29.679 214.508 28.9627 214.167 27.9546C213.801 27.0415 213.332 26.5086 212.787 26.2608C212.148 25.9875 211.311 26.0689 210.277 26.5049C209.054 26.8901 208.356 27.2125 208.02 27.3261L209.985 32.538C210.245 32.709 210.917 32.482 211.83 32.116Z" fill="#f58400"/>
<path d="M231.57 12.0427L231.842 12.9303L230.421 13.6701L233.767 24.7523L235.491 24.3994L235.762 25.287L230.773 26.8021L230.501 25.9145L231.897 25.2697L228.481 14.0671L222.725 15.784L226.14 26.9867L227.864 26.6338L228.136 27.5214L223.146 29.036L222.875 28.1489L224.27 27.5041L220.924 16.422L219.32 16.7052L219.049 15.8176L231.57 12.0427Z" fill="#f58400"/>
<path d="M239.371 23.6056C238.351 23.2304 237.502 22.5957 236.825 21.7013C236.148 20.8068 235.642 19.6528 235.308 18.2391C234.974 16.8254 234.9 15.5832 235.136 14.3223C235.346 13.1564 235.911 12.1874 236.641 11.3644C237.371 10.5414 238.335 9.98483 239.533 9.69473C241.403 9.17733 242.975 9.39463 244.342 10.3723C245.615 11.3244 246.545 12.7959 247.081 14.9767C247.415 16.3903 247.464 17.7276 247.254 18.8935C247.018 20.1544 246.453 21.1234 245.628 21.9209C244.803 22.7185 243.839 23.275 242.736 23.5906C241.417 23.9503 240.39 23.9807 239.371 23.6056ZM237.235 12.9495C236.809 14.1595 236.902 15.7123 237.394 17.6776C237.816 19.5223 238.582 20.8478 239.474 21.6981C240.367 22.5484 241.507 22.854 242.61 22.5384C243.809 22.2483 244.513 21.5203 244.964 20.2153C245.39 19.0054 245.323 17.3575 244.831 15.3922C244.408 13.5475 243.643 12.222 242.751 11.3717C241.858 10.5214 240.813 10.2413 239.614 10.5314C238.46 11.037 237.635 11.8346 237.235 12.9495Z" fill="#f58400"/>
<path d="M253.297 15.7255C253.435 17.4938 253.294 18.7802 252.919 19.8001C252.791 20.2753 252.474 20.6995 252.207 20.9337C251.941 21.1679 251.579 21.3766 251.148 21.4648C250.597 21.6226 250.096 21.5903 249.881 21.6344L249.451 20.1952C249.762 20.1766 250.193 20.0884 250.84 19.9561C251.055 19.912 251.271 19.8678 251.417 19.7032C251.563 19.5386 251.709 19.374 251.785 19.0889C252.433 17.4293 252.221 14.4186 251.295 9.89252L250.961 8.47882L248.762 8.70432L248.585 7.84222L259.146 5.68102L259.323 6.54322L257.643 7.11153L259.98 18.5347L261.869 18.3278L262.045 19.1899L256.442 20.3367L256.265 19.4746L258.161 18.8621L255.823 7.43893L252.159 8.18872L252.538 9.81792C252.858 12.0428 253.135 14.0522 253.297 15.7255Z" fill="#f58400"/>
<path d="M262.91 6.07842L261.383 6.07662L261.232 5.11952L270.614 3.55902L271.377 6.41182L270.325 6.53732L269.471 4.78082L264.927 5.39642L265.77 10.6133L268.882 10.0213L268.884 8.49392L269.936 8.36842L270.628 12.6281L269.576 12.7536L269.077 11.1939L265.99 11.6909L266.852 17.2183L272.024 16.1598L272.591 13.6635L273.757 13.874L273.798 17.1443L263.58 18.7862L263.403 17.924L264.937 17.5203L262.91 6.07842Z" fill="#f58400"/>
<path d="M278.32 3.68872L275.138 4.16022L275 8.09573L273.732 8.26532L273.434 3.29623L285.008 1.91582L285.833 6.82212L284.685 6.92212L283.581 3.06123L280.355 3.31722L281.805 15.0118L284.479 14.9136L284.535 15.8453L277.48 16.7051L277.425 15.7734L279.795 15.2883L278.32 3.68872Z" fill="#f58400"/>
<path d="M293.6 9.00512L292.668 9.06102C292.402 9.29522 292.084 9.71942 291.837 10.2642C291.563 10.904 291.265 11.6388 291.01 12.5891C290.66 13.514 290.482 14.1792 290.26 14.6289C290.037 15.0786 289.866 15.3382 289.65 15.3824L287.14 15.6265L287.084 14.6948L287.757 14.4675C287.972 14.4234 288.118 14.2588 288.315 13.9041C288.512 13.5494 288.76 13.0047 289.058 12.2699C289.383 11.44 289.776 10.7307 290.024 10.186C290.367 9.66672 290.684 9.24252 291.046 9.03372C290.165 8.89962 289.456 8.50582 288.918 7.85242C288.38 7.19902 288.083 6.40642 288.027 5.47472C287.908 4.01692 288.309 2.90203 289.083 2.29453C289.977 1.61753 291.201 1.23232 292.849 1.16462C293.159 1.14592 293.685 1.08322 294.281 1.14092C294.902 1.10372 295.308 1.11052 295.618 1.09182L298.319 0.898621L298.374 1.83032L296.866 2.13902L297.771 13.5859L299.488 13.6386L299.544 14.5703L294.024 15.0263L293.968 14.0947L295.787 13.7673L295.394 8.77282L293.6 9.00512ZM294.363 1.97762C293.767 1.91992 293.336 2.00812 292.835 1.97582C291.903 2.03172 291.111 2.32862 290.699 2.72742C290.166 3.19572 289.962 3.95602 290.087 5.00822C290.118 6.03492 290.535 6.75792 291.004 7.29082C291.592 7.75422 292.353 7.95792 293.284 7.90202C294.311 7.87152 294.958 7.73922 295.268 7.72062L294.863 2.00993L294.363 1.97762Z" fill="#f58400"/>
<path d="M305.086 1.48972L301.86 1.74572L301.317 5.67442L300.075 5.74892L300.207 0.691727L311.837 0.24292L312.231 5.23742L311.109 5.24242L310.315 1.36292L307.045 1.40332L307.443 13.2234L310.066 13.3153L310.122 14.247L303.03 14.4857L302.974 13.554L305.389 13.2844L305.086 1.48972Z" fill="#f58400"/>
<path d="M320.922 13.4742C319.979 12.814 319.276 12.0146 318.745 10.9556C318.214 9.89662 318.045 8.62883 318.021 7.19653C318.092 5.78963 318.423 4.55422 319.014 3.49022C319.605 2.42622 320.43 1.62863 321.489 1.09753C322.548 0.566427 323.651 0.250922 324.963 0.296822C325.869 0.335922 327.06 0.451423 328.391 0.807923L328.961 0.960724L328.665 4.34473L327.448 4.32423L327.058 1.97882C326.894 1.83282 326.634 1.66143 326.159 1.53413C325.684 1.40683 325.183 1.37453 324.587 1.31673C323.776 1.30313 323.104 1.53042 322.476 1.97332C321.848 2.41622 321.359 3.10013 320.94 3.90443C320.59 4.82933 320.336 5.77972 320.29 7.09152C320.269 8.30832 320.395 9.36052 320.666 10.248C320.938 11.1356 321.425 11.9791 322.083 12.563C322.742 13.1468 323.476 13.4456 324.383 13.4847C325.099 13.4729 325.504 13.4797 325.935 13.3915C326.272 13.2778 326.608 13.1641 326.874 12.93L327.668 11.1057L328.834 11.3162L328.337 13.933C328.026 13.9517 327.69 14.0654 327.164 14.1281C326.733 14.2163 326.277 14.3996 325.871 14.3927C325.44 14.481 324.939 14.4487 324.318 14.486C323.006 14.44 321.866 14.1345 320.922 13.4742Z" fill="#f58400"/>
<path d="M336.528 0.84922L336.489 1.75552L334.625 1.86732L333.942 11.2588L335.65 9.06812L341.482 2.88953L341.514 2.38892L339.873 2.05103L339.912 1.14482L345.013 1.49313L344.974 2.39942L343.516 2.51802L342.748 14.1276L344.294 14.44L344.255 15.3462L339.059 14.9725L339.098 14.0662L340.746 13.9985L341.359 4.48653L339.798 6.51263L333.846 12.7607L333.762 13.4514L335.524 13.7197L335.485 14.6259L330.193 14.2267L330.232 13.3204L331.785 13.2272L332.553 1.61772L331.102 1.33073L331.142 0.424522L336.528 0.84922Z" fill="#f58400"/>
<path d="M356.806 2.71772L356.414 7.60362L355.127 7.46262L355.024 3.66622L350.905 3.07192L349.586 14.8393L352.798 15.3945L352.664 16.2752L345.352 15.4363L345.486 14.5555L347.514 14.5896L348.757 3.10742L346.856 2.59812L346.99 1.71732L356.806 2.71772Z" fill="#f58400"/>
<path d="M359.954 4.27432L358.554 3.79733L358.688 2.91652L363.688 3.64502L363.553 4.52583L361.931 4.49852L361.203 9.49802L367.653 10.5134L368.381 5.51392L366.886 5.01142L367.021 4.13072L372.02 4.85912L371.886 5.73992L370.359 5.73812L368.615 17.188L370.04 17.57L369.906 18.4508L364.907 17.7223L365.041 16.8415L366.568 16.8434L367.398 11.4637L360.948 10.4483L360.118 15.828L361.733 16.2608L361.599 17.1416L356.504 16.3877L356.639 15.5069L358.166 15.5087L359.954 4.27432Z" fill="#f58400"/>
<path d="M378.774 6.26152L380.795 6.70123L382.668 20.2406L383.783 20.6412L383.649 21.5219L378.821 20.5338L378.955 19.6531L380.552 19.7754L380.219 16.8343L374.916 15.7189L373.512 18.2966L375.007 18.7991L374.873 19.6799L370.52 18.8191L370.654 17.9383L371.871 17.9588L378.774 6.26152ZM379.366 9.37402L379.203 7.70062L378.485 9.23982L375.481 14.7499L380.119 15.6871L379.366 9.37402Z" fill="#f58400"/>
<path d="M389.465 17.6821C388.842 19.2468 388.105 20.4754 387.401 21.2034C386.988 21.6021 386.627 21.8108 386.291 21.9245C385.955 22.0382 385.549 22.0314 385.074 21.904C384.504 21.7513 384.029 21.6239 383.769 21.4525L383.961 19.9761C384.246 20.0525 384.721 20.1798 385.292 20.3326C385.482 20.3835 385.697 20.3394 385.913 20.2953C386.128 20.2512 386.274 20.0866 386.541 19.8524C387.778 18.6561 389.042 15.8374 390.144 11.3453L390.526 9.91982L388.53 9.38512L388.785 8.43472L399.29 11.0457L399.035 11.9961L397.248 11.8228L394.433 23.0877L396.188 23.7616L395.959 24.6169L390.327 23.2095L390.556 22.3542L392.507 22.6735L395.322 11.4086L391.59 10.5105L391.157 12.1261C390.718 14.1472 390.088 16.1175 389.465 17.6821Z" fill="#f58400"/>
<path d="M405.536 18.5252C406.936 19.0022 407.975 19.6879 408.557 20.5569C409.139 21.4258 409.239 22.5731 408.813 23.783C408.336 25.1831 407.58 26.1011 406.547 26.5372C405.393 27.0428 404.176 27.0223 402.75 26.6404C402.56 26.5894 402.37 26.5385 402.18 26.4876C401.99 26.4367 401.8 26.3857 401.541 26.2143C400.901 25.941 400.235 25.7628 399.691 25.515L397.245 24.7578L397.474 23.9025L399.021 24.2149L402.405 13.1028L401.056 12.4358L401.285 11.5804L406.366 13.1456L406.137 14.0009L404.281 13.7071L402.97 17.8377L405.536 18.5252ZM401.7 25.2385C401.89 25.2894 402.245 25.4863 402.625 25.5882C403.67 25.8683 404.482 25.8819 405.205 25.4645C405.927 25.0471 406.416 24.3632 406.696 23.3178C406.977 22.2725 406.965 21.5563 406.547 20.8333C406.199 20.2308 405.516 19.742 404.496 19.3669L402.69 18.8831L400.87 24.9143C401.25 25.0161 401.51 25.1876 401.7 25.2385ZM418.334 16.7597L418.105 17.615L416.343 17.3467L412.958 28.4588L414.592 29.202L414.363 30.058L409.092 28.4415L409.321 27.5862L411.058 27.9495L414.442 16.8374L412.808 16.0939L413.037 15.2386L418.334 16.7597Z" fill="#f58400"/>
<path d="M426.023 20.7553L424.699 19.9932L425.023 19.1634L429.743 20.9372L429.419 21.7671L427.873 21.4547L426.099 26.1741L432.288 28.5454L434.062 23.826L432.738 23.0639L433.062 22.2341L437.782 24.0079L437.457 24.8377L436.006 24.5508L431.861 35.459L433.21 36.126L432.886 36.956L428.167 35.182L428.491 34.352L430.012 34.76L431.982 29.686L425.793 27.3145L423.823 32.389L425.241 33.176L424.917 34.006L420.128 32.112L420.452 31.282L421.973 31.689L426.023 20.7553Z" fill="#f58400"/>
<path d="M444.015 26.5946L445.934 27.4144L444.916 41.096L445.86 41.756L445.536 42.586L440.988 40.553L441.312 39.723L442.807 40.225L443.191 37.272L438.168 35.112L436.27 37.252L437.689 38.039L437.365 38.869L433.266 37.058L433.59 36.228L434.731 36.534L444.015 26.5946ZM443.96 29.839L444.203 28.1729L443.13 29.515L439.018 34.219L443.401 36.107L443.96 29.839Z" fill="#f58400"/>
<path d="M457.726 34.343L456.004 33.168L456.423 32.364L460.8 34.657L459.294 43.319L458.752 45.72L460.358 43.91L466.525 37.617L470.902 39.911L470.483 40.715L468.538 39.99L464.488 50.924L465.855 51.902L465.436 52.706L460.705 50.216L461.124 49.412L462.689 50.035L465.804 42.211L467.126 38.797L465.159 40.816L457.925 48.045L456.861 47.454L458.356 38.077L459.013 34.484L457.076 37.53L452.517 44.661L454.075 45.689L453.656 46.494L449.374 44.226L449.793 43.422L451.263 44.019L457.726 34.343Z" fill="#f58400"/>
<path d="M477.096 43.404L478.844 44.483L476.255 57.947L477.198 58.608L476.779 59.412L472.548 56.954L472.967 56.15L474.437 56.747L475.081 53.966L470.426 51.191L468.269 53.159L469.541 54.112L469.122 54.916L465.341 52.681L465.76 51.876L466.875 52.277L477.096 43.404ZM476.661 46.547L477.094 44.931L475.857 46.127L471.156 50.368L475.291 52.8L476.661 46.547Z" fill="#f58400"/>
<path d="M485.365 49.795L484.308 48.799L484.822 48.02L486.899 49.392C487.254 49.588 487.678 49.906 488.033 50.103C488.647 50.471 489.192 50.719 489.711 51.062C491.174 52.065 492.136 53.036 492.382 54.018C492.628 55.001 492.443 56.072 491.757 57.11C491.218 57.984 490.564 58.522 489.746 58.914C488.928 59.306 488.091 59.387 487.211 59.253C486.33 59.119 485.405 58.769 484.531 58.23C484.176 58.033 483.917 57.861 483.588 57.569C483.233 57.373 483.068 57.227 482.999 57.106L480.745 60.576L482.771 62.138L482.257 62.917L477.133 59.609L477.648 58.83L479.092 59.522L485.365 49.795ZM485.045 57.451C485.919 57.991 486.68 58.194 487.542 58.018C488.404 57.841 489.178 57.234 489.914 56.005C490.454 55.131 490.683 54.276 490.456 53.604C490.229 52.932 489.691 52.279 488.747 51.618C488.392 51.421 488.038 51.225 487.588 51.002C487.328 50.831 487.138 50.78 487.138 50.78L483.513 56.327C483.842 56.619 484.266 56.937 485.045 57.451Z" fill="#f58400"/>
<path d="M489.774 67.172C489.338 66.138 489.238 64.991 489.423 63.92C489.608 62.85 490.155 61.57 490.987 60.367C491.793 59.259 492.738 58.392 493.797 57.861C494.856 57.329 496.029 57.134 497.22 57.25C498.412 57.365 499.527 57.766 500.54 58.547C501.319 59.061 502.211 59.911 503.078 60.857L503.572 61.295L501.452 63.884L500.414 63.198L501.405 61.019C501.361 60.804 501.127 60.538 500.918 60.176C500.709 59.815 500.19 59.472 499.671 59.129C498.987 58.64 498.322 58.462 497.51 58.448C496.699 58.434 495.907 58.731 495.158 59.244C494.41 59.756 493.585 60.554 492.925 61.497C492.264 62.441 491.794 63.435 491.445 64.36C491.19 65.31 491.056 66.191 491.327 67.079C491.599 67.966 492.042 68.594 492.82 69.109C493.34 69.452 493.764 69.769 494.144 69.871C494.524 69.973 494.809 70.049 495.12 70.03L496.832 68.961L497.725 69.812L495.783 71.736C495.524 71.565 495.144 71.463 494.694 71.24C494.219 71.113 493.864 70.916 493.389 70.789C493.034 70.592 492.584 70.37 492.065 70.027C491.078 69.151 490.21 68.206 489.774 67.172Z" fill="#f58400"/>
<path d="M517.034 71.115L516.425 71.868L514.867 70.84L508.945 78.115L511.608 77.3L519.893 75.65L520.211 75.226L519.109 74.014L519.719 73.26L523.72 76.573L523.111 77.327L521.787 76.565L514.38 85.581L515.507 86.697L514.923 87.356L510.922 84.043L511.506 83.384L512.899 84.267L518.941 76.923L516.494 77.693L507.993 79.387L507.555 79.881L508.751 81.119L508.168 81.777L504.071 78.438L504.655 77.78L505.953 78.637L513.36 69.621L512.328 68.53L512.938 67.777L517.034 71.115Z" fill="#f58400"/>
<path d="M526.512 79.46C527.056 79.708 527.385 80 527.74 80.197C528.095 80.394 528.424 80.686 528.684 80.857C529.836 81.879 530.582 82.894 530.828 83.876C531.074 84.859 530.845 85.714 530.141 86.442C529.437 87.17 528.714 87.588 527.807 87.549C526.971 87.63 526.115 87.401 525.336 86.886C526.134 87.711 526.621 88.555 526.702 89.391C526.784 90.228 526.46 91.058 525.876 91.716C525 92.704 523.941 93.235 522.845 93.145C521.723 93.15 520.564 92.534 519.152 91.341C518.563 90.877 518.19 90.37 517.816 89.862C517.443 89.355 517.234 88.994 517 88.727C516.861 88.486 516.722 88.245 516.652 88.125L519.076 85.922L519.734 86.506L518.553 88.634C518.78 89.306 519.318 89.959 520.046 90.664C520.705 91.248 521.25 91.495 521.991 91.388C522.638 91.256 523.335 90.934 523.945 90.18C524.503 89.617 524.681 88.952 524.764 88.261C524.848 87.57 524.335 86.822 523.512 86.092L522.525 85.216L523.229 84.488L524.052 85.218C524.476 85.536 524.9 85.853 525.376 85.98C525.851 86.108 526.351 86.14 526.903 85.982C527.455 85.824 527.841 85.521 528.279 85.027C528.863 84.368 529.111 83.824 528.979 83.177C528.941 82.556 528.568 82.048 527.91 81.465C527.511 81.052 527.156 80.855 526.707 80.633C526.352 80.436 526.041 80.455 525.826 80.499L524.424 81.549L523.506 80.794L525.334 78.533C525.638 78.92 525.992 79.117 526.512 79.46Z" fill="#f58400"/>
<path d="M537.652 91.103L536.766 89.847L537.445 89.214L539.204 91.01C539.534 91.302 539.932 91.714 540.426 92.152C540.92 92.59 541.249 92.882 541.414 93.028C542.61 94.265 543.357 95.28 543.413 96.212C543.589 97.074 543.265 97.904 542.561 98.632C541.882 99.265 541.184 99.587 540.443 99.694C539.701 99.801 538.846 99.571 538.067 99.057C538.959 99.907 539.446 100.751 539.502 101.683C539.558 102.614 539.259 103.349 538.555 104.077C537.705 104.97 536.576 105.38 535.48 105.29C534.289 105.175 532.965 104.413 531.509 103.004C531.18 102.712 530.876 102.325 530.642 102.059C530.009 101.38 529.61 100.967 529.446 100.821L527.686 99.026L528.365 98.393L529.637 99.345L537.652 91.103ZM532.118 102.251C533.011 103.101 533.79 103.615 534.601 103.629C535.412 103.642 536.11 103.32 536.789 102.687C537.467 102.054 537.766 101.319 537.729 100.698C537.692 100.077 537.274 99.354 536.477 98.529C535.584 97.679 535.021 97.121 534.786 96.854L530.878 100.798C530.922 101.013 531.416 101.451 532.118 102.251ZM536.339 96.761L537.067 97.465C537.726 98.049 538.34 98.417 538.961 98.38C539.582 98.343 540.28 98.02 540.864 97.362C541.448 96.704 541.79 96.184 541.753 95.563C541.716 94.942 541.298 94.219 540.57 93.515C540.241 93.223 539.912 92.931 539.488 92.614L539.159 92.322L535.516 96.031C535.706 96.082 535.941 96.348 536.339 96.761Z" fill="#f58400"/>
<path d="M549.953 101.835L551.383 103.338L545 115.378L545.651 116.368L544.972 117.001L541.668 113.365L542.347 112.732L543.499 113.754L544.998 111.202L541.296 107.154L538.626 108.374L539.607 109.655L538.928 110.288L535.928 107.04L536.607 106.407L537.525 107.162L549.953 101.835ZM548.473 104.697L549.381 103.209L547.84 104.018L542.139 106.667L545.373 110.182L548.473 104.697Z" fill="#f58400"/>
<path d="M547.397 118.975C547.202 117.802 547.387 116.731 547.883 115.642C548.379 114.552 549.159 113.539 550.32 112.628C551.386 111.691 552.54 111.186 553.738 110.896C554.936 110.606 556.128 110.721 557.243 111.122C558.358 111.522 559.301 112.183 560.143 113.223C560.75 113.997 561.402 114.986 562.003 116.166L562.255 116.743L559.572 118.774L558.8 117.854L560.336 115.923C560.292 115.707 560.273 115.397 560.065 115.035C559.856 114.674 559.578 114.192 559.179 113.779C558.641 113.126 558.027 112.758 557.266 112.554C556.506 112.35 555.669 112.432 554.782 112.703C553.894 112.975 552.93 113.531 552.01 114.303C551.09 115.075 550.361 115.898 549.846 116.677C549.307 117.551 549.077 118.407 549.064 119.218C549.05 120.029 549.347 120.821 549.955 121.595C550.423 122.128 550.752 122.42 551.107 122.617C551.462 122.814 551.721 122.985 552.032 122.967L553.927 122.354L554.579 123.344L552.264 124.761C552.099 124.615 551.77 124.323 551.346 124.005C550.896 123.783 550.567 123.491 550.238 123.199C549.909 122.907 549.484 122.59 549.111 122.082C548.123 121.207 547.592 120.148 547.397 118.975Z" fill="#f58400"/>
<path d="M566.421 125.905C567.568 125.805 568.544 125.965 569.469 126.315C570.394 126.664 571.217 127.394 571.824 128.168C572.571 129.183 572.937 130.096 573.063 131.148C573.093 132.175 572.934 133.151 572.368 134.12C571.803 135.089 571.048 136.007 569.912 136.823C568.752 137.734 567.477 138.309 566.279 138.6C565.081 138.89 563.984 138.8 562.869 138.399C561.754 137.998 561.001 137.389 560.324 136.495C559.577 135.48 559.141 134.446 559.016 133.394C558.89 132.342 559.145 131.391 559.615 130.397C560.18 129.428 560.936 128.51 561.976 127.668L560.179 125.252L555.827 128.567L556.662 130.013L555.914 130.526L552.832 126.441L553.581 125.928L554.707 127.045L563.918 120.04L563.153 118.715L563.927 118.107L566.939 122.072L566.165 122.679L565.038 121.563L561.073 124.575L562.87 126.991C564.24 126.442 565.343 126.126 566.421 125.905ZM568.041 127.46C566.799 127.535 565.309 128.154 563.641 129.439C562.213 130.584 561.217 131.641 560.791 132.851C560.365 134.061 560.49 135.113 561.237 136.128C562.009 137.048 562.909 137.493 564.176 137.323C565.419 137.249 566.839 136.509 568.482 135.319C569.909 134.174 570.906 133.117 571.332 131.907C571.758 130.697 571.632 129.645 570.955 128.75C570.278 127.856 569.284 127.386 568.041 127.46Z" fill="#f58400"/>
<path d="M574.37 145.657C574.166 146.417 573.696 147.412 573.175 148.596C572.756 149.401 572.577 150.066 572.38 150.42C572.279 150.801 572.177 151.181 572.246 151.301L572.474 151.973L571.725 152.486L570.397 150.602C570.257 150.361 570.264 149.955 570.512 149.411C570.76 148.866 571.084 148.036 571.554 147.041C572.17 145.882 572.52 144.958 572.793 144.318C573.067 143.678 573.004 143.152 572.89 142.816L572.239 141.826L567.868 144.832L568.583 146.347L567.834 146.86L564.994 142.635L565.742 142.123L566.749 143.309L576.332 136.812L575.688 135.417L576.436 134.904L579.207 139.008L578.459 139.521L577.452 138.334L572.987 141.314L573.847 142.665L580.432 142.8L579.692 141.379L580.441 140.867L582.977 144.704L582.229 145.216L581.197 144.125L574.448 143.844C574.631 144.301 574.574 144.897 574.37 145.657Z" fill="#f58400"/>
<path d="M573.997 155.03C574.062 154.028 574.342 152.983 575.097 152.065C575.758 151.121 576.703 150.254 577.908 149.559C579.138 148.768 580.362 148.383 581.509 148.283C582.751 148.208 583.822 148.393 584.817 148.863C585.811 149.334 586.634 150.063 587.26 151.148C588.234 152.835 588.543 154.344 588.015 155.934C587.513 157.429 586.345 158.746 584.512 159.884C583.282 160.675 582.058 161.06 580.79 161.23C579.548 161.304 578.477 161.119 577.388 160.623C576.393 160.153 575.596 159.328 574.944 158.339C574.248 157.134 574.028 156.056 573.997 155.03ZM583.535 149.844C582.319 149.824 580.759 150.323 579.047 151.392C577.455 152.391 576.363 153.423 575.842 154.607C575.226 155.766 575.352 156.818 575.978 157.903C576.629 158.892 577.598 159.458 578.815 159.478C580.127 159.524 581.591 159 583.304 157.931C584.896 156.931 585.987 155.9 586.508 154.715C587.004 153.626 586.999 152.504 586.373 151.419C585.721 150.43 584.847 149.89 583.535 149.844Z" fill="#f58400"/>
<path d="M591.027 159.898L590.503 158.434L591.346 157.947L592.599 160.116C592.807 160.477 593.086 160.959 593.459 161.467C593.832 161.974 594.041 162.336 594.18 162.577C594.989 164.118 595.4 165.246 595.24 166.222C595.081 167.198 594.617 167.787 593.748 168.369C593.025 168.786 592.163 168.962 591.378 168.854C590.592 168.745 589.883 168.351 589.275 167.577C589.901 168.662 590.078 169.524 589.918 170.5C589.784 171.381 589.2 172.039 588.356 172.526C587.272 173.152 586.125 173.252 585.01 172.852C583.895 172.451 582.863 171.36 581.82 169.552C581.611 169.191 581.428 168.734 581.219 168.373C580.732 167.529 580.479 166.952 580.41 166.832L579.157 164.663L579.975 164.271L580.861 165.527L591.027 159.898ZM582.568 169.04C583.194 170.124 583.827 170.803 584.587 171.007C585.348 171.21 586.089 171.104 586.933 170.617C587.776 170.13 588.24 169.541 588.392 168.971C588.545 168.4 588.369 167.538 587.812 166.574C587.186 165.49 586.769 164.767 586.63 164.526L581.74 167.188C581.828 167.619 582.081 168.196 582.568 169.04ZM588.15 164.933L588.612 165.872C589.029 166.595 589.618 167.058 590.188 167.211C590.853 167.389 591.5 167.257 592.343 166.77C593.066 166.352 593.504 165.859 593.657 165.288C593.81 164.718 593.608 163.951 593.051 162.987C592.843 162.626 592.539 162.239 592.356 161.782L592.147 161.421L587.594 163.969C587.733 164.21 587.872 164.451 588.15 164.933Z" fill="#f58400"/>
<path d="M605.586 185.393L604.768 185.785L603.907 184.434L593.489 189.485L594.057 191.165L593.239 191.557L590.957 186.77L591.775 186.378L592.635 187.729L603.149 182.703L600.519 177.313L589.98 182.433L590.548 184.114L589.73 184.506L587.423 179.813L588.241 179.421L589.031 180.651L599.45 175.6L598.951 174.041L599.769 173.649L605.586 185.393Z" fill="#f58400"/>
<path d="M595.282 194.957C595.467 193.886 596.007 193.012 596.737 192.189C597.561 191.391 598.576 190.645 599.851 190.07C601.125 189.494 602.419 189.23 603.61 189.345C604.801 189.461 605.847 189.741 606.79 190.401C607.734 191.061 608.411 191.956 608.847 192.989C609.58 194.816 609.673 196.368 608.886 197.787C608.193 199.231 606.766 200.377 604.819 201.179C603.449 201.729 602.156 201.993 600.965 201.878C599.774 201.762 598.633 201.457 597.69 200.797C596.746 200.136 596.069 199.242 595.538 198.183C595.222 197.08 595.027 195.907 595.282 194.957ZM605.439 191.261C604.178 191.025 602.67 191.334 600.723 192.137C598.992 192.895 597.736 193.781 597.05 194.82C596.365 195.858 596.18 196.929 596.685 198.083C597.191 199.237 598.039 199.872 599.3 200.108C600.561 200.344 602.165 200.061 604.016 199.233C605.748 198.474 607.003 197.588 607.689 196.55C608.375 195.511 608.465 194.415 608.054 193.286C607.549 192.132 606.7 191.497 605.439 191.261Z" fill="#f58400"/>
<path d="M605.192 207.391C603.468 207.743 602.105 207.888 601.129 207.728C600.654 207.601 600.179 207.473 599.944 207.207C599.615 206.915 599.381 206.648 599.198 206.192C598.945 205.615 598.857 205.184 598.838 204.873L600.233 204.228C600.252 204.539 600.435 204.996 600.688 205.573C600.732 205.788 600.897 205.934 601.061 206.08C601.226 206.226 601.416 206.277 601.701 206.353C603.437 206.717 606.455 206.099 610.658 204.475L612.028 203.926L611.466 201.84L612.379 201.473L616.195 211.561L615.282 211.928L614.473 210.387L603.592 214.499L604.04 216.249L603.153 216.521L601.144 211.093L602.032 210.822L602.885 212.578L613.765 208.466L612.464 204.959L610.879 205.553C608.786 206.52 606.916 207.038 605.192 207.391Z" fill="#f58400"/>
<path d="M616.273 215.452L615.964 213.944L616.852 213.672L619.826 222.719L617.182 223.844L616.841 222.836L618.363 221.716L617.006 217.278L611.991 218.888L613.04 221.818L614.618 221.629L614.959 222.638L610.832 223.976L610.49 222.968L611.911 222.228L610.983 219.229L605.727 220.979L607.553 225.95L610.151 226.136L610.156 227.258L606.879 227.704L603.608 217.864L604.495 217.593L605.14 218.988L616.273 215.452Z" fill="#f58400"/>
<path d="M621.059 230.282L620.036 227.258L616.043 227.716L615.753 226.517L620.615 225.478L623.815 236.724L619.015 238.29L618.7 237.187L622.308 235.506L621.526 232.342L610.184 235.516L610.713 238.103L609.825 238.374L607.888 231.54L608.776 231.269L609.597 233.526L621.059 230.282Z" fill="#f58400"/>
<path d="M618.118 246.198L617.942 245.336C617.708 245.07 617.233 244.942 616.567 244.764C615.902 244.586 615.116 244.477 614.141 244.318C613.165 244.158 612.5 243.98 612.024 243.852C611.549 243.725 611.29 243.554 611.246 243.338L610.691 240.847L611.553 240.67L611.875 241.368C611.945 241.488 612.205 241.66 612.559 241.857C612.939 241.959 613.51 242.111 614.244 242.41C615.1 242.639 615.86 242.843 616.525 243.021C617.07 243.269 617.52 243.491 617.849 243.783C617.888 242.877 618.187 242.142 618.65 241.553C619.234 240.895 619.957 240.478 620.819 240.301C622.233 239.967 623.399 240.178 624.127 240.882C624.855 241.586 625.455 242.766 625.833 244.395C625.947 244.731 626.01 245.257 626.073 245.783C626.11 246.404 626.198 246.835 626.312 247.171L626.936 249.783L626.049 250.055L625.429 248.565L614.12 251.238L614.378 252.937L613.541 253.018L612.223 247.674L613.085 247.498L613.653 249.178L618.446 248.018L618.118 246.198ZM625.116 245.934C625.053 245.408 624.99 244.882 624.902 244.451C624.656 243.468 624.308 242.866 623.814 242.428C623.32 241.99 622.509 241.976 621.527 242.222C620.544 242.468 619.821 242.886 619.453 243.5C619.084 244.114 618.976 244.9 619.222 245.883C619.468 246.865 619.6 247.512 619.739 247.753L625.299 246.391L625.116 245.934Z" fill="#f58400"/>
<path d="M627.302 256.4L626.615 253.262L622.603 253.41L622.408 252.237L627.359 251.628L629.601 263.026L624.713 264.161L624.518 262.988L628.24 261.643L627.769 258.461L616.181 260.652L616.495 263.283L615.633 263.459L614.247 256.467L615.109 256.291L615.809 258.617L627.302 256.4Z" fill="#f58400"/>
<path d="M617.94 273.855C618.41 272.861 619.165 271.943 620.129 271.386C621.118 270.735 622.342 270.35 623.73 270.11C625.093 269.966 626.405 270.012 627.494 270.508C628.609 270.909 629.527 271.664 630.299 272.584C631.071 273.504 631.482 274.632 631.652 275.9C631.803 276.857 631.808 277.979 631.641 279.36L631.583 279.956L628.262 280.186L628.093 278.919L630.35 278.097C630.496 277.933 630.598 277.553 630.604 277.147C630.611 276.742 630.669 276.146 630.511 275.594C630.404 274.853 630.082 274.155 629.519 273.597C628.955 273.038 628.246 272.645 627.296 272.39C626.345 272.135 625.319 272.166 624.076 272.24C622.904 272.435 621.921 272.681 620.982 273.143C620.044 273.604 619.391 274.142 618.902 274.826C618.413 275.51 618.279 276.391 618.36 277.228C618.492 277.874 618.555 278.4 618.764 278.762C618.878 279.098 619.112 279.364 619.346 279.631L621.247 280.14L621.226 281.357L618.507 281.239C618.463 281.024 618.375 280.593 618.097 280.111C617.914 279.654 617.705 279.293 617.617 278.862C617.528 278.431 617.345 277.974 617.308 277.353C617.328 276.136 617.444 274.945 617.94 273.855Z" fill="#f58400"/>
<path d="M632.842 287.423L631.91 287.479L631.488 285.634L622.095 286.479L624.482 287.832L631.562 292.581L632.088 292.518L632.141 290.8L633.073 290.744L633.536 295.859L632.604 295.915L632.27 294.502L620.677 295.572L620.65 297.194L619.718 297.25L619.281 292.04L620.212 291.984L620.59 293.613L630.079 292.794L627.761 291.562L620.611 286.692L619.99 286.73L619.938 288.447L619.006 288.503L618.568 283.293L619.5 283.237L619.809 284.746L631.402 283.676L631.499 282.174L632.43 282.118L632.842 287.423Z" fill="#f58400"/>
<path d="M634.123 307.73L629.249 308.054L629.175 306.812L632.934 306.087L632.907 302.006L621.156 302.524L621.102 305.769L620.17 305.825L619.792 298.492L620.724 298.436L621 300.445L632.561 299.876L632.69 297.874L633.622 297.818L634.123 307.73Z" fill="#f58400"/>
<path d="M633.042 311.006L633.234 309.529L634.14 309.568L634.102 314.651L633.196 314.612L633.008 313.034L628.02 313.021L627.981 319.632L632.968 319.644L633.16 318.167L634.066 318.206L634.054 323.194L633.148 323.155L632.934 321.672L621.311 321.715L621.119 323.191L620.213 323.152L620.225 318.165L621.131 318.204L621.32 319.782L626.713 319.801L626.752 313.191L621.359 313.172L621.142 314.743L620.236 314.704L620.178 309.596L621.085 309.635L621.298 311.118L633.042 311.006Z" fill="#f58400"/>
<path d="M634.084 329.925L634.05 331.953L620.977 335.885L620.767 337.051L619.86 337.012L620.063 332.075L620.969 332.115L621.062 333.667L623.915 332.904L624.15 327.466L621.47 326.443L621.253 328.014L620.346 327.975L620.517 323.539L621.423 323.578L621.523 324.725L634.084 329.925ZM631.034 331.043L632.664 330.665L630.978 330.111L625.049 327.911L624.803 332.632L631.034 331.043Z" fill="#f58400"/>
<path d="M624.449 342.316C622.738 341.857 621.528 341.431 620.68 340.797C620.255 340.479 619.926 340.187 619.812 339.851C619.604 339.49 619.611 339.084 619.617 338.679C619.675 338.083 619.682 337.677 619.853 337.418L621.381 337.419C621.304 337.705 621.272 338.205 621.214 338.801C621.163 338.991 621.208 339.206 621.347 339.447C621.391 339.663 621.555 339.809 621.815 339.98C623.157 341.053 626.224 341.773 630.704 342.158L632.206 342.255L632.576 340.114L633.482 340.153L632.538 350.9L631.632 350.861L631.589 349.118L620.056 348.065L619.667 349.896L618.761 349.857L619.288 344.09L620.194 344.13L620.185 346.063L631.718 347.116L632.021 343.326L630.329 343.178C628.041 342.973 626.09 342.654 624.449 342.316Z" fill="#f58400"/>
<path d="M626.09 358.238C625.898 359.714 625.377 360.899 624.483 361.576C623.683 362.278 622.606 362.499 621.319 362.358C619.938 362.191 618.899 361.506 618.248 360.516C617.596 359.527 617.427 358.259 617.619 356.783C617.669 356.593 617.72 356.403 617.676 356.187C617.632 355.972 617.778 355.807 617.855 355.522C618.033 354.857 618.116 354.166 618.269 353.596L618.646 351.048L619.527 351.183L619.499 352.805L631.07 354.479L631.572 352.984L632.453 353.118L631.648 358.403L630.767 358.269L630.655 356.405L626.347 355.76L626.09 358.238ZM618.856 355.586C618.805 355.776 618.703 356.157 618.696 356.562C618.511 357.633 618.713 358.4 619.251 359.054C619.789 359.707 620.498 360.101 621.594 360.191C622.57 360.35 623.432 360.174 623.965 359.706C624.593 359.263 624.892 358.528 625.077 357.457L625.371 355.601L619.085 354.731C618.983 355.111 618.907 355.396 618.856 355.586ZM629.796 370.639L628.915 370.504L628.967 368.787L617.492 367.138L617.034 368.849L616.153 368.715L616.888 363.31L617.769 363.444L617.716 365.161L629.192 366.81L629.65 365.099L630.531 365.234L629.796 370.639Z" fill="#f58400"/>
<path d="M626.984 378.849L627.557 377.474L628.412 377.704L627.278 382.696L626.422 382.467L626.545 380.87L621.647 379.762L620.226 386.205L625.124 387.314L625.696 385.939L626.551 386.168L625.443 391.066L624.587 390.837L624.684 389.335L613.317 386.9L612.84 388.3L611.985 388.071L613.094 383.174L613.949 383.403L613.852 384.905L619.155 386.02L620.576 379.576L615.273 378.461L614.745 380.051L613.89 379.822L615.024 374.829L615.879 375.058L615.782 376.56L626.984 378.849Z" fill="#f58400"/>
<path d="M623.952 397.389L623.417 399.385L609.84 400.636L609.345 401.725L608.489 401.496L609.668 396.719L610.523 396.948L610.306 398.52L613.196 398.377L614.501 393.125L612.044 391.652L611.446 393.121L610.591 392.892L611.642 388.59L612.497 388.82L612.382 390.011L623.952 397.389ZM620.795 397.765L622.538 397.723L621.024 396.91L615.686 393.646L614.558 398.233L620.795 397.765Z" fill="#f58400"/>
<path d="M618.427 412.308L619.341 410.414L620.171 410.738L618.613 415.413L609.81 415.193L607.402 415.058L609.505 416.334L616.673 421.514L615.114 426.189L614.285 425.865L614.724 423.844L603.212 421.574L602.519 423.018L601.689 422.694L603.375 417.543L604.205 417.868L603.867 419.509L612.116 421.413L615.683 422.166L613.372 420.528L605.121 414.446L605.522 413.331L614.997 413.324L618.742 413.411L615.379 411.898L607.632 408.498L606.863 410.228L606.033 409.903L607.566 405.323L608.396 405.647L608.083 407.193L618.427 412.308Z" fill="#f58400"/>
<path d="M612.495 432.923L611.771 434.868L598.152 434.376L597.586 435.345L596.757 435.021L598.6 430.422L599.43 430.746L599.022 432.267L601.931 432.435L603.902 427.361L601.642 425.533L600.854 426.952L600.024 426.627L601.645 422.478L602.475 422.802L602.265 423.968L612.495 432.923ZM609.251 432.868L610.943 433.016L609.575 432.038L604.725 428.091L603.027 432.525L609.251 432.868Z" fill="#f58400"/>
<path d="M607.427 441.954L608.259 440.751L609.089 441.075L608.072 443.349C607.85 443.799 607.748 444.179 607.551 444.534C607.277 445.174 607.125 445.744 606.877 446.288C606.133 447.923 605.353 448.936 604.414 449.397C603.501 449.764 602.474 449.794 601.195 449.248C600.295 448.803 599.612 448.314 599.099 447.566C598.587 446.817 598.385 446.05 598.329 445.118C598.273 444.187 598.528 443.236 598.972 442.337C599.169 441.982 599.246 441.697 599.442 441.343C599.639 440.988 599.69 440.798 599.811 440.728L596.067 439.114L594.86 441.337L594.03 441.013L596.534 435.47L597.364 435.795L596.862 437.29L607.427 441.954ZM599.872 442.782C599.427 443.681 599.413 444.492 599.685 445.38C599.956 446.268 600.71 446.877 601.989 447.423C602.984 447.894 603.795 447.907 604.372 447.654C605.069 447.332 605.558 446.648 606.028 445.654C606.225 445.299 606.327 444.919 606.454 444.444C606.531 444.159 606.582 443.969 606.607 443.874L600.495 441.217C600.418 441.502 600.17 442.047 599.872 442.782Z" fill="#f58400"/>
<path d="M590.96 449.052C591.924 448.495 593.027 448.18 594.149 448.175C595.365 448.195 596.601 448.526 597.855 449.168C599.109 449.809 600.122 450.59 600.774 451.579C601.52 452.594 601.836 453.697 601.936 454.845C602.036 455.992 601.825 457.158 601.209 458.317C600.765 459.216 600.104 460.16 599.298 461.268L598.955 461.787L596.023 460.187L596.519 459.097L598.894 459.734C599.11 459.69 599.376 459.455 599.668 459.126C599.96 458.797 600.183 458.347 600.525 457.828C600.919 457.119 601.002 456.428 600.826 455.566C600.719 454.824 600.302 454.101 599.694 453.327C599.061 452.648 598.213 452.014 597.054 451.398C595.964 450.902 594.944 450.527 593.969 450.367C592.993 450.208 592.061 450.263 591.243 450.655C590.451 450.952 589.892 451.516 589.447 452.415C589.174 453.055 588.952 453.505 588.945 453.91C588.843 454.29 588.862 454.601 588.975 454.937L590.311 456.415L589.651 457.359L587.434 455.746C587.511 455.461 587.613 455.081 587.74 454.606C587.867 454.131 587.874 453.725 588.001 453.25C588.103 452.87 588.351 452.325 588.599 451.78C589.215 450.621 589.97 449.703 590.96 449.052Z" fill="#f58400"/>
<path d="M591.332 476.551L590.553 476.037L591.322 474.307L583.216 469.589L584.392 472.043L587.336 480.064L587.785 480.286L588.858 478.944L589.637 479.458L587.033 483.853L586.254 483.339L586.826 481.964L576.782 476.115L575.83 477.388L575.025 476.969L577.654 472.479L578.459 472.898L577.741 474.437L585.917 479.276L584.69 477.012L581.772 468.896L581.157 468.528L580.059 469.965L579.255 469.546L581.91 464.961L582.714 465.38L582.116 466.85L592.161 472.699L593.088 471.521L593.866 472.035L591.332 476.551Z" fill="#f58400"/>
<path d="M584.615 487.178C584.367 487.722 584.239 488.197 584.042 488.552C583.846 488.907 583.649 489.262 583.477 489.521C582.62 490.819 581.77 491.712 580.857 492.078C579.944 492.445 579.037 492.406 578.164 491.866C577.29 491.326 576.872 490.603 576.696 489.741C576.519 488.879 576.628 488.093 576.978 487.168C576.317 488.112 575.544 488.719 574.681 488.896C573.819 489.072 573.034 488.964 572.255 488.449C571.121 487.738 570.444 486.844 570.344 485.696C570.218 484.644 570.575 483.314 571.604 481.756C571.972 481.142 572.41 480.648 572.848 480.154C573.26 479.755 573.647 479.452 573.913 479.217C574.18 478.983 574.326 478.819 574.421 478.844L576.941 480.843L576.427 481.622L574.127 480.701C573.525 481.049 572.966 481.612 572.306 482.555C571.817 483.239 571.734 483.93 571.866 484.577C571.999 485.223 572.562 485.782 573.436 486.321C574.05 486.69 574.716 486.868 575.457 486.761C576.199 486.654 576.852 486.116 577.392 485.242L578.103 484.109L578.977 484.648L578.437 485.522C578.12 485.947 577.993 486.422 577.865 486.897C577.833 487.398 577.896 487.924 578.079 488.38C578.262 488.837 578.661 489.249 579.18 489.592C579.864 490.081 580.555 490.164 581.106 490.006C581.658 489.849 582.191 489.38 582.68 488.696C582.997 488.272 583.219 487.822 583.226 487.417C583.328 487.037 583.309 486.726 583.17 486.485L581.879 485.222L582.539 484.279L585.022 485.657C584.964 486.253 584.767 486.607 584.615 487.178Z" fill="#f58400"/>
<path d="M574.827 500.139L575.943 499.012L576.722 499.527L575.256 501.578C574.964 501.908 574.742 502.357 574.373 502.972C574.03 503.491 573.833 503.845 573.662 504.105C572.684 505.473 571.739 506.34 570.851 506.611C569.964 506.883 569.083 506.749 568.33 506.139C567.646 505.651 567.108 504.997 566.931 504.135C566.73 503.368 566.838 502.582 567.162 501.752C566.502 502.696 565.728 503.303 564.841 503.575C563.979 503.751 563.098 503.617 562.344 503.008C561.331 502.227 560.775 501.263 560.675 500.116C560.575 498.969 561.077 497.474 562.321 495.872C562.613 495.542 562.81 495.188 563.102 494.859C563.711 494.105 564.054 493.586 564.175 493.516L565.641 491.465L566.42 491.979L565.658 493.303L574.827 500.139ZM562.91 496.335C562.129 497.348 561.875 498.298 561.887 499.015C561.898 499.731 562.411 500.479 563.19 500.993C563.943 501.603 564.703 501.806 565.35 501.674C565.997 501.542 566.65 501.004 567.285 500.155C568.066 499.142 568.459 498.433 568.631 498.173L564.103 494.923C563.983 494.993 563.545 495.487 562.91 496.335ZM568.965 499.587L568.33 500.436C567.841 501.119 567.663 501.785 567.795 502.431C567.928 503.078 568.371 503.706 569.055 504.195C569.738 504.683 570.404 504.862 571.025 504.824C571.576 504.667 572.204 504.224 572.865 503.28C573.156 502.951 573.379 502.501 573.576 502.147L573.773 501.792L569.6 498.739C569.549 498.929 569.282 499.163 568.965 499.587Z" fill="#f58400"/>
<path d="M566.051 513.881L564.807 515.483L551.852 510.993L551.027 511.791L550.274 511.181L553.346 507.319L554.1 507.928L553.242 509.226L555.922 510.25L559.311 505.963L557.704 503.598L556.588 504.724L555.834 504.115L558.589 500.677L559.342 501.286L558.752 502.35L566.051 513.881ZM562.966 512.851L564.531 513.473L563.481 512.072L559.988 506.858L557.062 510.556L562.966 512.851Z" fill="#f58400"/>
<path d="M548.699 514.019C549.802 513.703 550.924 513.698 552.064 514.004C553.205 514.309 554.338 515.02 555.421 515.922C556.504 516.823 557.25 517.838 557.661 518.966C558.071 520.095 558.171 521.242 557.961 522.408C557.75 523.574 557.16 524.638 556.404 525.556C555.795 526.309 554.875 527.082 553.835 527.923L553.327 528.296L550.909 525.917L551.76 525.024L553.888 526.206C554.103 526.162 554.439 526.048 554.826 525.744C555.188 525.536 555.6 525.137 555.943 524.617C556.501 524.054 556.8 523.319 556.814 522.508C556.922 521.722 556.72 520.955 556.233 520.112C555.746 519.268 555.164 518.399 554.151 517.619C553.233 516.863 552.385 516.229 551.46 515.879C550.535 515.529 549.654 515.395 548.818 515.476C547.981 515.558 547.258 515.975 546.649 516.729C546.211 517.223 545.893 517.647 545.792 518.027C545.595 518.382 545.613 518.692 545.537 518.977L546.39 520.734L545.47 521.506L543.787 519.425C543.933 519.261 544.13 518.906 544.378 518.361C544.6 517.911 544.797 517.557 544.994 517.202C545.191 516.847 545.508 516.423 545.946 515.929C546.581 515.081 547.596 514.334 548.699 514.019Z" fill="#f58400"/>
<path d="M544.784 533.952C545.099 535.055 545.13 536.082 544.875 537.032C544.62 537.983 544.176 538.882 543.376 539.584C542.526 540.477 541.562 541.034 540.579 541.28C539.597 541.526 538.501 541.436 537.481 541.06C536.461 540.685 535.422 540 534.435 539.124C533.377 538.128 532.561 536.992 532.176 535.769C531.765 534.64 531.57 533.467 531.851 532.422C532.036 531.351 532.601 530.382 533.331 529.559C534.181 528.666 535.145 528.11 536.153 527.769C537.136 527.523 538.232 527.613 539.252 527.988C540.272 528.363 541.31 529.049 542.298 529.925L544.411 527.741L540.442 523.927L539.16 524.908L538.528 524.229L542.075 520.494L542.733 521.078L541.781 522.351L550.118 530.39L551.279 529.479L551.912 530.158L548.39 533.798L547.757 533.119L548.709 531.846L545.069 528.325L542.956 530.509C543.937 531.79 544.468 532.849 544.784 533.952ZM543.609 535.675C543.319 534.476 542.459 533.125 541.003 531.717C539.711 530.454 538.388 529.692 537.127 529.456C535.866 529.22 534.763 529.535 533.913 530.428C533.062 531.321 532.808 532.271 533.098 533.469C533.388 534.667 534.248 536.018 535.799 537.452C537.091 538.715 538.319 539.452 539.555 539.783C540.79 540.114 541.798 539.773 542.648 538.88C543.499 537.988 543.779 536.942 543.609 535.675Z" fill="#f58400"/>
<path d="M526.512 544.742C525.726 544.633 524.681 544.353 523.446 544.022C522.59 543.793 521.925 543.615 521.45 543.488C521.07 543.386 520.759 543.404 520.518 543.544L519.821 543.866L519.188 543.187L520.838 541.592C521.079 541.453 521.415 541.339 522.08 541.517C522.65 541.67 523.505 541.899 524.646 542.205C525.856 542.631 526.806 542.886 527.592 542.994C528.257 543.173 528.783 543.11 529.075 542.781L529.9 541.983L526.267 538.056L524.89 539.011L524.257 538.332L528.039 534.864L528.672 535.543L527.65 536.695L535.549 545.228L536.805 544.343L537.438 545.021L533.777 548.42L533.144 547.741L534.096 546.469L530.463 542.541L529.251 543.643L530.143 550.197L531.399 549.311L532.032 549.99L528.638 553.155L528.005 552.476L528.932 551.298L528.186 544.579C528.014 544.839 527.298 544.851 526.512 544.742Z" fill="#f58400"/>
<path d="M517.233 545.923C518.285 545.797 519.356 545.982 520.325 546.548C521.414 547.043 522.307 547.893 523.243 548.959C524.18 550.025 524.781 551.205 525.071 552.403C525.361 553.601 525.366 554.723 524.991 555.743C524.616 556.763 524.05 557.731 523.131 558.504C521.678 559.744 520.118 560.243 518.547 560.025C516.975 559.808 515.512 558.805 514.012 557.181C513.076 556.115 512.475 554.935 512.185 553.737C511.895 552.539 511.89 551.417 512.29 550.302C512.596 549.162 513.231 548.314 514.151 547.541C515.147 546.484 516.18 546.048 517.233 545.923ZM523.794 554.505C523.625 553.238 522.885 551.817 521.55 550.339C520.309 548.886 519.106 548.054 517.896 547.628C516.686 547.202 515.608 547.423 514.689 548.195C513.769 548.967 513.394 549.987 513.563 551.255C513.733 552.522 514.472 553.943 515.782 555.516C517.023 556.969 518.226 557.801 519.436 558.227C520.672 558.558 521.749 558.337 522.669 557.565C523.589 556.793 523.964 555.773 523.794 554.505Z" fill="#f58400"/>
<path d="M515.101 563.38L516.427 562.615L517.034 563.389L515.099 564.907C514.738 565.116 514.325 565.515 513.888 566.009C513.475 566.408 513.088 566.711 512.847 566.85C511.445 567.901 510.386 568.432 509.455 568.488C508.523 568.544 507.719 568.124 507.111 567.351C506.573 566.697 506.276 565.905 506.29 565.093C506.303 564.282 506.602 563.547 507.186 562.889C506.266 563.661 505.353 564.028 504.447 563.988C503.541 563.949 502.736 563.53 502.129 562.756C501.382 561.741 501.067 560.638 501.277 559.472C501.488 558.306 502.44 557.034 503.988 555.819C504.375 555.515 504.736 555.306 505.003 555.072C505.777 554.465 506.259 554.186 506.404 554.022L508.339 552.503L508.852 553.251L507.735 554.378L515.101 563.38ZM504.716 556.523C503.701 557.27 503.187 558.049 503.078 558.834C502.969 559.62 503.171 560.387 503.778 561.161C504.386 561.935 505 562.303 505.691 562.387C506.382 562.47 507.079 562.147 507.974 561.47C508.989 560.724 509.642 560.186 509.813 559.926L506.403 555.549C506.023 555.447 505.515 555.821 504.716 556.523ZM509.647 561.308L508.873 561.915C508.22 562.453 507.851 563.067 507.768 563.758C507.685 564.449 507.912 565.121 508.545 565.8C509.083 566.453 509.697 566.821 510.293 566.879C510.889 566.937 511.586 566.614 512.481 565.937C512.868 565.634 513.16 565.304 513.547 565.001L513.813 564.767L510.636 560.656C510.3 560.77 510.034 561.004 509.647 561.308Z" fill="#f58400"/>
<path d="M100.44 97.395C101.545 97.395 102.44 96.4996 102.44 95.395C102.44 94.2905 101.545 93.395 100.44 93.395C99.3354 93.395 98.4399 94.2905 98.4399 95.395C98.4399 96.4996 99.3354 97.395 100.44 97.395Z" fill="#f58400"/>
<path d="M504.939 71.765C506.044 71.765 506.939 70.8696 506.939 69.765C506.939 68.6605 506.044 67.765 504.939 67.765C503.834 67.765 502.939 68.6605 502.939 69.765C502.939 70.8696 503.834 71.765 504.939 71.765Z" fill="#f58400"/>
</svg>
